G04 #@! TF.GenerationSoftware,KiCad,Pcbnew,6.0.9-8da3e8f707~116~ubuntu20.04.1*
G04 #@! TF.CreationDate,2023-03-08T13:01:56+01:00*
G04 #@! TF.ProjectId,dac_adc_pmod,6461635f-6164-4635-9f70-6d6f642e6b69,rev?*
G04 #@! TF.SameCoordinates,Original*
G04 #@! TF.FileFunction,Copper,L2,Bot*
G04 #@! TF.FilePolarity,Positive*
%FSLAX46Y46*%
G04 Gerber Fmt 4.6, Leading zero omitted, Abs format (unit mm)*
G04 Created by KiCad (PCBNEW 6.0.9-8da3e8f707~116~ubuntu20.04.1) date 2023-03-08 13:01:56*
%MOMM*%
%LPD*%
G01*
G04 APERTURE LIST*
G04 #@! TA.AperFunction,ComponentPad*
%ADD10R,1.700000X1.700000*%
G04 #@! TD*
G04 #@! TA.AperFunction,ComponentPad*
%ADD11O,1.700000X1.700000*%
G04 #@! TD*
G04 #@! TA.AperFunction,ViaPad*
%ADD12C,0.800000*%
G04 #@! TD*
G04 #@! TA.AperFunction,Conductor*
%ADD13C,0.250000*%
G04 #@! TD*
G04 APERTURE END LIST*
D10*
X90170000Y-82535000D03*
D11*
X90170000Y-79995000D03*
X90170000Y-77455000D03*
D10*
X80010000Y-82550000D03*
D11*
X80010000Y-80010000D03*
X80010000Y-77470000D03*
D10*
X78740000Y-45720000D03*
D11*
X78740000Y-43180000D03*
X81280000Y-45720000D03*
X81280000Y-43180000D03*
X83820000Y-45720000D03*
X83820000Y-43180000D03*
X86360000Y-45720000D03*
X86360000Y-43180000D03*
X88900000Y-45720000D03*
X88900000Y-43180000D03*
X91440000Y-45720000D03*
X91440000Y-43180000D03*
D10*
X85090000Y-82535000D03*
D11*
X85090000Y-79995000D03*
X85090000Y-77455000D03*
D10*
X83820000Y-63246000D03*
D11*
X86360000Y-63246000D03*
D12*
X88900000Y-67818000D03*
X85978000Y-67792000D03*
X77724000Y-75692000D03*
X86360000Y-40640000D03*
X81280000Y-40640000D03*
X91186000Y-61214000D03*
X87630000Y-70358000D03*
X77216000Y-62738000D03*
X82296000Y-70358000D03*
X82550000Y-55880000D03*
X79962405Y-58118405D03*
X86506600Y-51582100D03*
X87102400Y-49059000D03*
X84840000Y-73451700D03*
X87069900Y-71805800D03*
D13*
X91440000Y-43180000D02*
X91440000Y-44355300D01*
X91440000Y-44355300D02*
X91807300Y-44355300D01*
X91807300Y-44355300D02*
X92655300Y-45203300D01*
X92655300Y-45203300D02*
X92655300Y-66094700D01*
X92655300Y-66094700D02*
X89662000Y-69088000D01*
X89662000Y-69088000D02*
X87122000Y-69088000D01*
X87122000Y-69088000D02*
X84840000Y-71370000D01*
X84840000Y-71370000D02*
X84840000Y-73451700D01*
X85978000Y-67792000D02*
X88874000Y-67792000D01*
X88874000Y-67792000D02*
X88900000Y-67818000D01*
X85090000Y-77455000D02*
X83914700Y-77455000D01*
X83899700Y-77470000D02*
X83914700Y-77455000D01*
X80010000Y-77470000D02*
X80010000Y-76294700D01*
X80010000Y-67792000D02*
X80010000Y-76294700D01*
X80010000Y-67792000D02*
X85978000Y-67792000D01*
X77724000Y-76962000D02*
X77724000Y-75692000D01*
X80010000Y-77470000D02*
X83899700Y-77470000D01*
X80010000Y-77470000D02*
X78232000Y-77470000D01*
X78740000Y-45720000D02*
X78740000Y-66522000D01*
X90170000Y-77455000D02*
X86265300Y-77455000D01*
X78740000Y-66522000D02*
X80010000Y-67792000D01*
X78232000Y-77470000D02*
X77724000Y-76962000D01*
X85090000Y-77455000D02*
X86265300Y-77455000D01*
X85090000Y-82535000D02*
X90170000Y-82535000D01*
X80010000Y-82550000D02*
X83899700Y-82550000D01*
X83899700Y-82550000D02*
X83914700Y-82535000D01*
X85090000Y-82535000D02*
X83914700Y-82535000D01*
X86360000Y-61976000D02*
X86360000Y-63246000D01*
X79962405Y-58118405D02*
X82042000Y-60198000D01*
X84582000Y-60198000D02*
X86360000Y-61976000D01*
X82042000Y-60198000D02*
X84582000Y-60198000D01*
X83820000Y-45720000D02*
X83820000Y-48895500D01*
X83820000Y-48895500D02*
X86506600Y-51582100D01*
X87227200Y-49059000D02*
X87102400Y-49059000D01*
X90264700Y-46021500D02*
X87227200Y-49059000D01*
X90264700Y-45720000D02*
X90264700Y-46021500D01*
X91440000Y-45720000D02*
X90264700Y-45720000D01*
X91367600Y-76103500D02*
X87069900Y-71805800D01*
X90170000Y-78819700D02*
X90537300Y-78819700D01*
X91367600Y-77989400D02*
X91367600Y-76103500D01*
X90170000Y-79995000D02*
X90170000Y-78819700D01*
X90537300Y-78819700D02*
X91367600Y-77989400D01*
G04 #@! TA.AperFunction,Conductor*
G36*
X94683621Y-39898502D02*
G01*
X94730114Y-39952158D01*
X94741500Y-40004500D01*
X94741500Y-86995500D01*
X94721498Y-87063621D01*
X94667842Y-87110114D01*
X94615500Y-87121500D01*
X75564500Y-87121500D01*
X75496379Y-87101498D01*
X75449886Y-87047842D01*
X75438500Y-86995500D01*
X75438500Y-83444669D01*
X78652001Y-83444669D01*
X78652371Y-83451490D01*
X78657895Y-83502352D01*
X78661521Y-83517604D01*
X78706676Y-83638054D01*
X78715214Y-83653649D01*
X78791715Y-83755724D01*
X78804276Y-83768285D01*
X78906351Y-83844786D01*
X78921946Y-83853324D01*
X79042394Y-83898478D01*
X79057649Y-83902105D01*
X79108514Y-83907631D01*
X79115328Y-83908000D01*
X79737885Y-83908000D01*
X79753124Y-83903525D01*
X79754329Y-83902135D01*
X79756000Y-83894452D01*
X79756000Y-83889884D01*
X80264000Y-83889884D01*
X80268475Y-83905123D01*
X80269865Y-83906328D01*
X80277548Y-83907999D01*
X80904669Y-83907999D01*
X80911490Y-83907629D01*
X80962352Y-83902105D01*
X80977604Y-83898479D01*
X81098054Y-83853324D01*
X81113649Y-83844786D01*
X81215724Y-83768285D01*
X81228285Y-83755724D01*
X81304786Y-83653649D01*
X81313324Y-83638054D01*
X81358478Y-83517606D01*
X81362105Y-83502351D01*
X81367631Y-83451486D01*
X81368000Y-83444672D01*
X81368000Y-83429669D01*
X83732001Y-83429669D01*
X83732371Y-83436490D01*
X83737895Y-83487352D01*
X83741521Y-83502604D01*
X83786676Y-83623054D01*
X83795214Y-83638649D01*
X83871715Y-83740724D01*
X83884276Y-83753285D01*
X83986351Y-83829786D01*
X84001946Y-83838324D01*
X84122394Y-83883478D01*
X84137649Y-83887105D01*
X84188514Y-83892631D01*
X84195328Y-83893000D01*
X84817885Y-83893000D01*
X84833124Y-83888525D01*
X84834329Y-83887135D01*
X84836000Y-83879452D01*
X84836000Y-83874884D01*
X85344000Y-83874884D01*
X85348475Y-83890123D01*
X85349865Y-83891328D01*
X85357548Y-83892999D01*
X85984669Y-83892999D01*
X85991490Y-83892629D01*
X86042352Y-83887105D01*
X86057604Y-83883479D01*
X86178054Y-83838324D01*
X86193649Y-83829786D01*
X86295724Y-83753285D01*
X86308285Y-83740724D01*
X86384786Y-83638649D01*
X86393324Y-83623054D01*
X86438478Y-83502606D01*
X86442105Y-83487351D01*
X86447631Y-83436486D01*
X86448000Y-83429672D01*
X86448000Y-83429669D01*
X88812001Y-83429669D01*
X88812371Y-83436490D01*
X88817895Y-83487352D01*
X88821521Y-83502604D01*
X88866676Y-83623054D01*
X88875214Y-83638649D01*
X88951715Y-83740724D01*
X88964276Y-83753285D01*
X89066351Y-83829786D01*
X89081946Y-83838324D01*
X89202394Y-83883478D01*
X89217649Y-83887105D01*
X89268514Y-83892631D01*
X89275328Y-83893000D01*
X89897885Y-83893000D01*
X89913124Y-83888525D01*
X89914329Y-83887135D01*
X89916000Y-83879452D01*
X89916000Y-83874884D01*
X90424000Y-83874884D01*
X90428475Y-83890123D01*
X90429865Y-83891328D01*
X90437548Y-83892999D01*
X91064669Y-83892999D01*
X91071490Y-83892629D01*
X91122352Y-83887105D01*
X91137604Y-83883479D01*
X91258054Y-83838324D01*
X91273649Y-83829786D01*
X91375724Y-83753285D01*
X91388285Y-83740724D01*
X91464786Y-83638649D01*
X91473324Y-83623054D01*
X91518478Y-83502606D01*
X91522105Y-83487351D01*
X91527631Y-83436486D01*
X91528000Y-83429672D01*
X91528000Y-82807115D01*
X91523525Y-82791876D01*
X91522135Y-82790671D01*
X91514452Y-82789000D01*
X90442115Y-82789000D01*
X90426876Y-82793475D01*
X90425671Y-82794865D01*
X90424000Y-82802548D01*
X90424000Y-83874884D01*
X89916000Y-83874884D01*
X89916000Y-82807115D01*
X89911525Y-82791876D01*
X89910135Y-82790671D01*
X89902452Y-82789000D01*
X88830116Y-82789000D01*
X88814877Y-82793475D01*
X88813672Y-82794865D01*
X88812001Y-82802548D01*
X88812001Y-83429669D01*
X86448000Y-83429669D01*
X86448000Y-82807115D01*
X86443525Y-82791876D01*
X86442135Y-82790671D01*
X86434452Y-82789000D01*
X85362115Y-82789000D01*
X85346876Y-82793475D01*
X85345671Y-82794865D01*
X85344000Y-82802548D01*
X85344000Y-83874884D01*
X84836000Y-83874884D01*
X84836000Y-82807115D01*
X84831525Y-82791876D01*
X84830135Y-82790671D01*
X84822452Y-82789000D01*
X83750116Y-82789000D01*
X83734877Y-82793475D01*
X83733672Y-82794865D01*
X83732001Y-82802548D01*
X83732001Y-83429669D01*
X81368000Y-83429669D01*
X81368000Y-82822115D01*
X81363525Y-82806876D01*
X81362135Y-82805671D01*
X81354452Y-82804000D01*
X80282115Y-82804000D01*
X80266876Y-82808475D01*
X80265671Y-82809865D01*
X80264000Y-82817548D01*
X80264000Y-83889884D01*
X79756000Y-83889884D01*
X79756000Y-82822115D01*
X79751525Y-82806876D01*
X79750135Y-82805671D01*
X79742452Y-82804000D01*
X78670116Y-82804000D01*
X78654877Y-82808475D01*
X78653672Y-82809865D01*
X78652001Y-82817548D01*
X78652001Y-83444669D01*
X75438500Y-83444669D01*
X75438500Y-75692000D01*
X76810496Y-75692000D01*
X76811186Y-75698565D01*
X76823394Y-75814713D01*
X76830458Y-75881928D01*
X76889473Y-76063556D01*
X76892776Y-76069278D01*
X76892777Y-76069279D01*
X76908313Y-76096188D01*
X76984960Y-76228944D01*
X77058137Y-76310215D01*
X77088853Y-76374221D01*
X77090500Y-76394524D01*
X77090500Y-76883233D01*
X77089973Y-76894416D01*
X77088298Y-76901909D01*
X77088547Y-76909835D01*
X77088547Y-76909836D01*
X77090438Y-76969986D01*
X77090500Y-76973945D01*
X77090500Y-77001856D01*
X77090997Y-77005790D01*
X77090997Y-77005791D01*
X77091005Y-77005856D01*
X77091938Y-77017693D01*
X77093327Y-77061889D01*
X77098978Y-77081339D01*
X77102987Y-77100700D01*
X77105526Y-77120797D01*
X77108445Y-77128168D01*
X77108445Y-77128170D01*
X77121804Y-77161912D01*
X77125649Y-77173142D01*
X77137982Y-77215593D01*
X77142015Y-77222412D01*
X77142017Y-77222417D01*
X77148293Y-77233028D01*
X77156988Y-77250776D01*
X77164448Y-77269617D01*
X77169110Y-77276033D01*
X77169110Y-77276034D01*
X77190436Y-77305387D01*
X77196952Y-77315307D01*
X77219458Y-77353362D01*
X77233779Y-77367683D01*
X77246619Y-77382716D01*
X77258528Y-77399107D01*
X77264634Y-77404158D01*
X77292605Y-77427298D01*
X77301384Y-77435288D01*
X77728343Y-77862247D01*
X77735887Y-77870537D01*
X77740000Y-77877018D01*
X77745777Y-77882443D01*
X77789667Y-77923658D01*
X77792509Y-77926413D01*
X77812230Y-77946134D01*
X77815425Y-77948612D01*
X77824447Y-77956318D01*
X77856679Y-77986586D01*
X77863628Y-77990406D01*
X77874432Y-77996346D01*
X77890956Y-78007199D01*
X77906959Y-78019613D01*
X77947543Y-78037176D01*
X77958173Y-78042383D01*
X77996940Y-78063695D01*
X78004617Y-78065666D01*
X78004622Y-78065668D01*
X78016558Y-78068732D01*
X78035266Y-78075137D01*
X78053855Y-78083181D01*
X78061680Y-78084420D01*
X78061682Y-78084421D01*
X78097519Y-78090097D01*
X78109140Y-78092504D01*
X78144250Y-78101518D01*
X78151970Y-78103500D01*
X78172231Y-78103500D01*
X78191940Y-78105051D01*
X78211943Y-78108219D01*
X78219835Y-78107473D01*
X78225062Y-78106979D01*
X78255954Y-78104059D01*
X78267811Y-78103500D01*
X78734274Y-78103500D01*
X78802395Y-78123502D01*
X78841707Y-78163665D01*
X78909987Y-78275088D01*
X79056250Y-78443938D01*
X79228126Y-78586632D01*
X79291918Y-78623909D01*
X79301445Y-78629476D01*
X79350169Y-78681114D01*
X79363240Y-78750897D01*
X79336509Y-78816669D01*
X79296055Y-78850027D01*
X79283607Y-78856507D01*
X79279474Y-78859610D01*
X79279471Y-78859612D01*
X79109100Y-78987530D01*
X79104965Y-78990635D01*
X79101393Y-78994373D01*
X78968535Y-79133401D01*
X78950629Y-79152138D01*
X78824743Y-79336680D01*
X78809003Y-79370590D01*
X78735334Y-79529297D01*
X78730688Y-79539305D01*
X78670989Y-79754570D01*
X78647251Y-79976695D01*
X78647548Y-79981848D01*
X78647548Y-79981851D01*
X78653011Y-80076590D01*
X78660110Y-80199715D01*
X78661247Y-80204761D01*
X78661248Y-80204767D01*
X78677739Y-80277939D01*
X78709222Y-80417639D01*
X78793266Y-80624616D01*
X78909987Y-80815088D01*
X79056250Y-80983938D01*
X79060225Y-80987238D01*
X79060231Y-80987244D01*
X79065425Y-80991556D01*
X79105059Y-81050460D01*
X79106555Y-81121441D01*
X79069439Y-81181962D01*
X79029168Y-81206480D01*
X78921946Y-81246676D01*
X78906351Y-81255214D01*
X78804276Y-81331715D01*
X78791715Y-81344276D01*
X78715214Y-81446351D01*
X78706676Y-81461946D01*
X78661522Y-81582394D01*
X78657895Y-81597649D01*
X78652369Y-81648514D01*
X78652000Y-81655328D01*
X78652000Y-82277885D01*
X78656475Y-82293124D01*
X78657865Y-82294329D01*
X78665548Y-82296000D01*
X81349884Y-82296000D01*
X81365123Y-82291525D01*
X81366328Y-82290135D01*
X81367999Y-82282452D01*
X81367999Y-81655331D01*
X81367629Y-81648510D01*
X81362105Y-81597648D01*
X81358479Y-81582396D01*
X81313324Y-81461946D01*
X81304786Y-81446351D01*
X81228285Y-81344276D01*
X81215724Y-81331715D01*
X81113649Y-81255214D01*
X81098054Y-81246676D01*
X80987813Y-81205348D01*
X80931049Y-81162706D01*
X80906349Y-81096145D01*
X80921557Y-81026796D01*
X80943104Y-80998115D01*
X81044430Y-80897144D01*
X81044440Y-80897132D01*
X81048096Y-80893489D01*
X81061891Y-80874292D01*
X81175435Y-80716277D01*
X81178453Y-80712077D01*
X81185867Y-80697077D01*
X81275136Y-80516453D01*
X81275137Y-80516451D01*
X81277430Y-80511811D01*
X81342370Y-80298069D01*
X81371529Y-80076590D01*
X81371611Y-80073240D01*
X81373074Y-80013365D01*
X81373074Y-80013361D01*
X81373156Y-80010000D01*
X81354852Y-79787361D01*
X81300431Y-79570702D01*
X81211354Y-79365840D01*
X81090014Y-79178277D01*
X80939670Y-79013051D01*
X80935619Y-79009852D01*
X80935615Y-79009848D01*
X80768414Y-78877800D01*
X80768410Y-78877798D01*
X80764359Y-78874598D01*
X80723053Y-78851796D01*
X80673084Y-78801364D01*
X80658312Y-78731921D01*
X80683428Y-78665516D01*
X80710780Y-78638909D01*
X80754603Y-78607650D01*
X80889860Y-78511173D01*
X80908040Y-78493057D01*
X81031025Y-78370500D01*
X81048096Y-78353489D01*
X81059026Y-78338279D01*
X81175435Y-78176277D01*
X81178453Y-78172077D01*
X81180746Y-78167437D01*
X81182446Y-78164608D01*
X81234674Y-78116518D01*
X81290451Y-78103500D01*
X83820933Y-78103500D01*
X83832113Y-78104027D01*
X83838119Y-78105369D01*
X83901409Y-78130632D01*
X83931055Y-78163920D01*
X83987287Y-78255683D01*
X83987291Y-78255688D01*
X83989987Y-78260088D01*
X84136250Y-78428938D01*
X84308126Y-78571632D01*
X84328140Y-78583327D01*
X84381445Y-78614476D01*
X84430169Y-78666114D01*
X84443240Y-78735897D01*
X84416509Y-78801669D01*
X84376055Y-78835027D01*
X84363607Y-78841507D01*
X84359474Y-78844610D01*
X84359471Y-78844612D01*
X84315269Y-78877800D01*
X84184965Y-78975635D01*
X84030629Y-79137138D01*
X83904743Y-79321680D01*
X83810688Y-79524305D01*
X83750989Y-79739570D01*
X83727251Y-79961695D01*
X83727548Y-79966848D01*
X83727548Y-79966851D01*
X83733876Y-80076590D01*
X83740110Y-80184715D01*
X83741247Y-80189761D01*
X83741248Y-80189767D01*
X83743490Y-80199715D01*
X83789222Y-80402639D01*
X83873266Y-80609616D01*
X83989987Y-80800088D01*
X84136250Y-80968938D01*
X84140225Y-80972238D01*
X84140231Y-80972244D01*
X84145425Y-80976556D01*
X84185059Y-81035460D01*
X84186555Y-81106441D01*
X84149439Y-81166962D01*
X84109168Y-81191480D01*
X84001946Y-81231676D01*
X83986351Y-81240214D01*
X83884276Y-81316715D01*
X83871715Y-81329276D01*
X83795214Y-81431351D01*
X83786676Y-81446946D01*
X83741522Y-81567394D01*
X83737895Y-81582649D01*
X83732369Y-81633514D01*
X83732000Y-81640328D01*
X83732000Y-82262885D01*
X83736475Y-82278124D01*
X83737865Y-82279329D01*
X83745548Y-82281000D01*
X86429884Y-82281000D01*
X86445123Y-82276525D01*
X86446328Y-82275135D01*
X86447999Y-82267452D01*
X86447999Y-81640331D01*
X86447629Y-81633510D01*
X86442105Y-81582648D01*
X86438479Y-81567396D01*
X86393324Y-81446946D01*
X86384786Y-81431351D01*
X86308285Y-81329276D01*
X86295724Y-81316715D01*
X86193649Y-81240214D01*
X86178054Y-81231676D01*
X86067813Y-81190348D01*
X86011049Y-81147706D01*
X85986349Y-81081145D01*
X86001557Y-81011796D01*
X86023104Y-80983115D01*
X86124430Y-80882144D01*
X86124440Y-80882132D01*
X86128096Y-80878489D01*
X86187594Y-80795689D01*
X86255435Y-80701277D01*
X86258453Y-80697077D01*
X86347723Y-80516453D01*
X86355136Y-80501453D01*
X86355137Y-80501451D01*
X86357430Y-80496811D01*
X86389900Y-80389940D01*
X86420865Y-80288023D01*
X86420865Y-80288021D01*
X86422370Y-80283069D01*
X86451529Y-80061590D01*
X86452790Y-80010000D01*
X86453074Y-79998365D01*
X86453074Y-79998361D01*
X86453156Y-79995000D01*
X86434852Y-79772361D01*
X86380431Y-79555702D01*
X86291354Y-79350840D01*
X86177247Y-79174457D01*
X86172822Y-79167617D01*
X86172820Y-79167614D01*
X86170014Y-79163277D01*
X86019670Y-78998051D01*
X86015619Y-78994852D01*
X86015615Y-78994848D01*
X85848414Y-78862800D01*
X85848410Y-78862798D01*
X85844359Y-78859598D01*
X85803053Y-78836796D01*
X85753084Y-78786364D01*
X85738312Y-78716921D01*
X85763428Y-78650516D01*
X85790780Y-78623909D01*
X85847674Y-78583327D01*
X85969860Y-78496173D01*
X86128096Y-78338489D01*
X86258453Y-78157077D01*
X86260746Y-78152437D01*
X86262446Y-78149608D01*
X86314674Y-78101518D01*
X86370451Y-78088500D01*
X88894274Y-78088500D01*
X88962395Y-78108502D01*
X89001707Y-78148665D01*
X89069987Y-78260088D01*
X89216250Y-78428938D01*
X89388126Y-78571632D01*
X89408140Y-78583327D01*
X89461445Y-78614476D01*
X89510169Y-78666114D01*
X89523240Y-78735897D01*
X89496509Y-78801669D01*
X89456055Y-78835027D01*
X89443607Y-78841507D01*
X89439474Y-78844610D01*
X89439471Y-78844612D01*
X89395269Y-78877800D01*
X89264965Y-78975635D01*
X89110629Y-79137138D01*
X88984743Y-79321680D01*
X88890688Y-79524305D01*
X88830989Y-79739570D01*
X88807251Y-79961695D01*
X88807548Y-79966848D01*
X88807548Y-79966851D01*
X88813876Y-80076590D01*
X88820110Y-80184715D01*
X88821247Y-80189761D01*
X88821248Y-80189767D01*
X88823490Y-80199715D01*
X88869222Y-80402639D01*
X88953266Y-80609616D01*
X89069987Y-80800088D01*
X89216250Y-80968938D01*
X89220225Y-80972238D01*
X89220231Y-80972244D01*
X89225425Y-80976556D01*
X89265059Y-81035460D01*
X89266555Y-81106441D01*
X89229439Y-81166962D01*
X89189168Y-81191480D01*
X89081946Y-81231676D01*
X89066351Y-81240214D01*
X88964276Y-81316715D01*
X88951715Y-81329276D01*
X88875214Y-81431351D01*
X88866676Y-81446946D01*
X88821522Y-81567394D01*
X88817895Y-81582649D01*
X88812369Y-81633514D01*
X88812000Y-81640328D01*
X88812000Y-82262885D01*
X88816475Y-82278124D01*
X88817865Y-82279329D01*
X88825548Y-82281000D01*
X91509884Y-82281000D01*
X91525123Y-82276525D01*
X91526328Y-82275135D01*
X91527999Y-82267452D01*
X91527999Y-81640331D01*
X91527629Y-81633510D01*
X91522105Y-81582648D01*
X91518479Y-81567396D01*
X91473324Y-81446946D01*
X91464786Y-81431351D01*
X91388285Y-81329276D01*
X91375724Y-81316715D01*
X91273649Y-81240214D01*
X91258054Y-81231676D01*
X91147813Y-81190348D01*
X91091049Y-81147706D01*
X91066349Y-81081145D01*
X91081557Y-81011796D01*
X91103104Y-80983115D01*
X91204430Y-80882144D01*
X91204440Y-80882132D01*
X91208096Y-80878489D01*
X91267594Y-80795689D01*
X91335435Y-80701277D01*
X91338453Y-80697077D01*
X91427723Y-80516453D01*
X91435136Y-80501453D01*
X91435137Y-80501451D01*
X91437430Y-80496811D01*
X91469900Y-80389940D01*
X91500865Y-80288023D01*
X91500865Y-80288021D01*
X91502370Y-80283069D01*
X91531529Y-80061590D01*
X91532790Y-80010000D01*
X91533074Y-79998365D01*
X91533074Y-79998361D01*
X91533156Y-79995000D01*
X91514852Y-79772361D01*
X91460431Y-79555702D01*
X91371354Y-79350840D01*
X91262526Y-79182617D01*
X91252825Y-79167621D01*
X91252820Y-79167615D01*
X91250014Y-79163277D01*
X91247345Y-79160344D01*
X91221756Y-79094496D01*
X91235900Y-79024922D01*
X91258206Y-78994698D01*
X91759847Y-78493057D01*
X91768137Y-78485513D01*
X91774618Y-78481400D01*
X91821259Y-78431732D01*
X91824013Y-78428891D01*
X91843735Y-78409169D01*
X91846212Y-78405976D01*
X91853917Y-78396955D01*
X91878759Y-78370500D01*
X91884186Y-78364721D01*
X91888007Y-78357771D01*
X91893946Y-78346968D01*
X91904802Y-78330441D01*
X91912357Y-78320702D01*
X91912358Y-78320700D01*
X91917214Y-78314440D01*
X91934774Y-78273860D01*
X91939991Y-78263212D01*
X91957475Y-78231409D01*
X91957476Y-78231407D01*
X91961295Y-78224460D01*
X91966333Y-78204837D01*
X91972737Y-78186134D01*
X91977633Y-78174820D01*
X91977633Y-78174819D01*
X91980781Y-78167545D01*
X91982020Y-78159722D01*
X91982023Y-78159712D01*
X91987699Y-78123876D01*
X91990105Y-78112256D01*
X91999128Y-78077111D01*
X91999128Y-78077110D01*
X92001100Y-78069430D01*
X92001100Y-78049176D01*
X92002651Y-78029465D01*
X92004580Y-78017286D01*
X92005820Y-78009457D01*
X92001659Y-77965438D01*
X92001100Y-77953581D01*
X92001100Y-76182268D01*
X92001627Y-76171085D01*
X92003302Y-76163592D01*
X92002469Y-76137069D01*
X92001162Y-76095502D01*
X92001100Y-76091544D01*
X92001100Y-76063644D01*
X92000596Y-76059653D01*
X91999663Y-76047811D01*
X91998523Y-76011536D01*
X91998274Y-76003611D01*
X91992621Y-75984152D01*
X91988612Y-75964793D01*
X91988446Y-75963483D01*
X91986074Y-75944703D01*
X91983158Y-75937337D01*
X91983156Y-75937331D01*
X91969800Y-75903598D01*
X91965955Y-75892368D01*
X91955830Y-75857517D01*
X91955830Y-75857516D01*
X91953619Y-75849907D01*
X91943305Y-75832466D01*
X91934608Y-75814713D01*
X91930072Y-75803258D01*
X91927152Y-75795883D01*
X91901163Y-75760112D01*
X91894647Y-75750192D01*
X91876178Y-75718963D01*
X91872142Y-75712138D01*
X91857821Y-75697817D01*
X91844980Y-75682783D01*
X91837731Y-75672806D01*
X91833072Y-75666393D01*
X91798995Y-75638202D01*
X91790216Y-75630212D01*
X88017022Y-71857017D01*
X87982996Y-71794705D01*
X87980807Y-71781092D01*
X87964132Y-71622435D01*
X87964132Y-71622433D01*
X87963442Y-71615872D01*
X87904427Y-71434244D01*
X87808940Y-71268856D01*
X87789391Y-71247144D01*
X87685575Y-71131845D01*
X87685574Y-71131844D01*
X87681153Y-71126934D01*
X87568325Y-71044959D01*
X87531994Y-71018563D01*
X87531993Y-71018562D01*
X87526652Y-71014682D01*
X87520624Y-71011998D01*
X87520622Y-71011997D01*
X87358219Y-70939691D01*
X87358218Y-70939691D01*
X87352188Y-70937006D01*
X87258788Y-70917153D01*
X87171844Y-70898672D01*
X87171839Y-70898672D01*
X87165387Y-70897300D01*
X86974413Y-70897300D01*
X86967961Y-70898672D01*
X86967956Y-70898672D01*
X86881012Y-70917153D01*
X86787612Y-70937006D01*
X86781582Y-70939691D01*
X86781581Y-70939691D01*
X86619178Y-71011997D01*
X86619176Y-71011998D01*
X86613148Y-71014682D01*
X86607807Y-71018562D01*
X86607806Y-71018563D01*
X86571475Y-71044959D01*
X86458647Y-71126934D01*
X86454226Y-71131844D01*
X86454225Y-71131845D01*
X86350410Y-71247144D01*
X86330860Y-71268856D01*
X86235373Y-71434244D01*
X86176358Y-71615872D01*
X86156396Y-71805800D01*
X86176358Y-71995728D01*
X86235373Y-72177356D01*
X86330860Y-72342744D01*
X86458647Y-72484666D01*
X86613148Y-72596918D01*
X86619176Y-72599602D01*
X86619178Y-72599603D01*
X86781581Y-72671909D01*
X86787612Y-72674594D01*
X86881012Y-72694447D01*
X86967956Y-72712928D01*
X86967961Y-72712928D01*
X86974413Y-72714300D01*
X87030306Y-72714300D01*
X87098427Y-72734302D01*
X87119401Y-72751205D01*
X90249298Y-75881102D01*
X90283324Y-75943414D01*
X90278259Y-76014229D01*
X90235712Y-76071065D01*
X90169192Y-76095876D01*
X90158664Y-76096188D01*
X90080081Y-76095228D01*
X90080079Y-76095228D01*
X90074911Y-76095165D01*
X89854091Y-76128955D01*
X89641756Y-76198357D01*
X89443607Y-76301507D01*
X89439474Y-76304610D01*
X89439471Y-76304612D01*
X89269100Y-76432530D01*
X89264965Y-76435635D01*
X89110629Y-76597138D01*
X89107715Y-76601410D01*
X89107714Y-76601411D01*
X88995095Y-76766504D01*
X88940184Y-76811507D01*
X88891007Y-76821500D01*
X86366805Y-76821500D01*
X86298684Y-76801498D01*
X86261013Y-76763940D01*
X86172822Y-76627617D01*
X86172820Y-76627614D01*
X86170014Y-76623277D01*
X86019670Y-76458051D01*
X86015619Y-76454852D01*
X86015615Y-76454848D01*
X85848414Y-76322800D01*
X85848410Y-76322798D01*
X85844359Y-76319598D01*
X85648789Y-76211638D01*
X85643920Y-76209914D01*
X85643916Y-76209912D01*
X85443087Y-76138795D01*
X85443083Y-76138794D01*
X85438212Y-76137069D01*
X85433119Y-76136162D01*
X85433116Y-76136161D01*
X85223373Y-76098800D01*
X85223367Y-76098799D01*
X85218284Y-76097894D01*
X85144452Y-76096992D01*
X85000081Y-76095228D01*
X85000079Y-76095228D01*
X84994911Y-76095165D01*
X84774091Y-76128955D01*
X84561756Y-76198357D01*
X84363607Y-76301507D01*
X84359474Y-76304610D01*
X84359471Y-76304612D01*
X84189100Y-76432530D01*
X84184965Y-76435635D01*
X84030629Y-76597138D01*
X84027715Y-76601410D01*
X84027714Y-76601411D01*
X83912905Y-76769715D01*
X83857994Y-76814718D01*
X83828531Y-76823159D01*
X83822729Y-76824078D01*
X83814810Y-76824327D01*
X83795346Y-76829982D01*
X83776006Y-76833986D01*
X83763967Y-76835507D01*
X83748182Y-76836500D01*
X81286805Y-76836500D01*
X81218684Y-76816498D01*
X81181013Y-76778940D01*
X81092822Y-76642617D01*
X81092820Y-76642614D01*
X81090014Y-76638277D01*
X80939670Y-76473051D01*
X80935619Y-76469852D01*
X80935615Y-76469848D01*
X80768414Y-76337800D01*
X80768410Y-76337798D01*
X80764359Y-76334598D01*
X80759835Y-76332101D01*
X80759831Y-76332098D01*
X80708608Y-76303822D01*
X80658636Y-76253390D01*
X80643500Y-76193513D01*
X80643500Y-68551500D01*
X80663502Y-68483379D01*
X80717158Y-68436886D01*
X80769500Y-68425500D01*
X85269800Y-68425500D01*
X85337921Y-68445502D01*
X85357147Y-68461843D01*
X85357420Y-68461540D01*
X85362332Y-68465963D01*
X85366747Y-68470866D01*
X85372086Y-68474745D01*
X85446002Y-68528448D01*
X85521248Y-68583118D01*
X85527276Y-68585802D01*
X85527278Y-68585803D01*
X85689681Y-68658109D01*
X85695712Y-68660794D01*
X85789112Y-68680647D01*
X85876056Y-68699128D01*
X85876061Y-68699128D01*
X85882513Y-68700500D01*
X86073487Y-68700500D01*
X86079939Y-68699128D01*
X86079944Y-68699128D01*
X86166888Y-68680647D01*
X86260288Y-68660794D01*
X86347653Y-68621897D01*
X86418019Y-68612463D01*
X86482316Y-68642569D01*
X86520130Y-68702658D01*
X86519454Y-68773652D01*
X86487996Y-68826099D01*
X84447747Y-70866348D01*
X84439461Y-70873888D01*
X84432982Y-70878000D01*
X84427557Y-70883777D01*
X84386357Y-70927651D01*
X84383602Y-70930493D01*
X84363865Y-70950230D01*
X84361385Y-70953427D01*
X84353682Y-70962447D01*
X84323414Y-70994679D01*
X84319595Y-71001625D01*
X84319593Y-71001628D01*
X84313652Y-71012434D01*
X84302801Y-71028953D01*
X84290386Y-71044959D01*
X84287241Y-71052228D01*
X84287238Y-71052232D01*
X84272826Y-71085537D01*
X84267609Y-71096187D01*
X84246305Y-71134940D01*
X84244334Y-71142615D01*
X84244334Y-71142616D01*
X84241267Y-71154562D01*
X84234863Y-71173266D01*
X84226819Y-71191855D01*
X84225580Y-71199678D01*
X84225577Y-71199688D01*
X84219901Y-71235524D01*
X84217495Y-71247144D01*
X84206500Y-71289970D01*
X84206500Y-71310224D01*
X84204949Y-71329934D01*
X84201780Y-71349943D01*
X84202526Y-71357835D01*
X84205941Y-71393961D01*
X84206500Y-71405819D01*
X84206500Y-72749176D01*
X84186498Y-72817297D01*
X84174142Y-72833479D01*
X84100960Y-72914756D01*
X84005473Y-73080144D01*
X83946458Y-73261772D01*
X83926496Y-73451700D01*
X83946458Y-73641628D01*
X84005473Y-73823256D01*
X84100960Y-73988644D01*
X84228747Y-74130566D01*
X84383248Y-74242818D01*
X84389276Y-74245502D01*
X84389278Y-74245503D01*
X84551681Y-74317809D01*
X84557712Y-74320494D01*
X84651112Y-74340347D01*
X84738056Y-74358828D01*
X84738061Y-74358828D01*
X84744513Y-74360200D01*
X84935487Y-74360200D01*
X84941939Y-74358828D01*
X84941944Y-74358828D01*
X85028888Y-74340347D01*
X85122288Y-74320494D01*
X85128319Y-74317809D01*
X85290722Y-74245503D01*
X85290724Y-74245502D01*
X85296752Y-74242818D01*
X85451253Y-74130566D01*
X85579040Y-73988644D01*
X85674527Y-73823256D01*
X85733542Y-73641628D01*
X85753504Y-73451700D01*
X85733542Y-73261772D01*
X85674527Y-73080144D01*
X85579040Y-72914756D01*
X85505863Y-72833485D01*
X85475147Y-72769479D01*
X85473500Y-72749176D01*
X85473500Y-71684594D01*
X85493502Y-71616473D01*
X85510405Y-71595499D01*
X87347499Y-69758405D01*
X87409811Y-69724379D01*
X87436594Y-69721500D01*
X89583233Y-69721500D01*
X89594416Y-69722027D01*
X89601909Y-69723702D01*
X89609835Y-69723453D01*
X89609836Y-69723453D01*
X89669986Y-69721562D01*
X89673945Y-69721500D01*
X89701856Y-69721500D01*
X89705791Y-69721003D01*
X89705856Y-69720995D01*
X89717693Y-69720062D01*
X89749951Y-69719048D01*
X89753970Y-69718922D01*
X89761889Y-69718673D01*
X89781343Y-69713021D01*
X89800700Y-69709013D01*
X89812930Y-69707468D01*
X89812931Y-69707468D01*
X89820797Y-69706474D01*
X89828168Y-69703555D01*
X89828170Y-69703555D01*
X89861912Y-69690196D01*
X89873142Y-69686351D01*
X89907983Y-69676229D01*
X89907984Y-69676229D01*
X89915593Y-69674018D01*
X89922412Y-69669985D01*
X89922417Y-69669983D01*
X89933028Y-69663707D01*
X89950776Y-69655012D01*
X89969617Y-69647552D01*
X90005387Y-69621564D01*
X90015307Y-69615048D01*
X90046535Y-69596580D01*
X90046538Y-69596578D01*
X90053362Y-69592542D01*
X90067683Y-69578221D01*
X90082717Y-69565380D01*
X90092694Y-69558131D01*
X90099107Y-69553472D01*
X90127298Y-69519395D01*
X90135288Y-69510616D01*
X93047547Y-66598357D01*
X93055837Y-66590813D01*
X93062318Y-66586700D01*
X93070771Y-66577699D01*
X93108958Y-66537033D01*
X93111713Y-66534191D01*
X93131434Y-66514470D01*
X93133912Y-66511275D01*
X93141618Y-66502253D01*
X93166458Y-66475801D01*
X93171886Y-66470021D01*
X93181646Y-66452268D01*
X93192499Y-66435745D01*
X93200053Y-66426006D01*
X93204913Y-66419741D01*
X93222476Y-66379157D01*
X93227683Y-66368527D01*
X93248995Y-66329760D01*
X93250966Y-66322083D01*
X93250968Y-66322078D01*
X93254032Y-66310142D01*
X93260438Y-66291430D01*
X93265334Y-66280117D01*
X93268481Y-66272845D01*
X93275397Y-66229181D01*
X93277804Y-66217560D01*
X93286828Y-66182411D01*
X93286828Y-66182410D01*
X93288800Y-66174730D01*
X93288800Y-66154469D01*
X93290351Y-66134758D01*
X93292279Y-66122585D01*
X93293519Y-66114757D01*
X93289359Y-66070746D01*
X93288800Y-66058889D01*
X93288800Y-45282067D01*
X93289327Y-45270884D01*
X93291002Y-45263391D01*
X93288862Y-45195314D01*
X93288800Y-45191355D01*
X93288800Y-45163444D01*
X93288295Y-45159444D01*
X93287362Y-45147601D01*
X93286222Y-45111329D01*
X93285973Y-45103410D01*
X93280322Y-45083958D01*
X93276314Y-45064606D01*
X93274767Y-45052363D01*
X93273774Y-45044503D01*
X93264099Y-45020066D01*
X93257500Y-45003397D01*
X93253655Y-44992170D01*
X93253021Y-44989987D01*
X93241318Y-44949707D01*
X93231007Y-44932272D01*
X93222312Y-44914524D01*
X93214852Y-44895683D01*
X93188864Y-44859913D01*
X93182348Y-44849993D01*
X93163880Y-44818765D01*
X93163878Y-44818762D01*
X93159842Y-44811938D01*
X93145521Y-44797617D01*
X93132680Y-44782583D01*
X93125431Y-44772606D01*
X93120772Y-44766193D01*
X93114667Y-44761142D01*
X93114662Y-44761137D01*
X93086696Y-44738001D01*
X93077918Y-44730013D01*
X92525899Y-44177994D01*
X92491873Y-44115682D01*
X92496938Y-44044867D01*
X92512671Y-44015373D01*
X92605435Y-43886277D01*
X92608453Y-43882077D01*
X92621995Y-43854678D01*
X92705136Y-43686453D01*
X92705137Y-43686451D01*
X92707430Y-43681811D01*
X92772370Y-43468069D01*
X92801529Y-43246590D01*
X92803156Y-43180000D01*
X92784852Y-42957361D01*
X92730431Y-42740702D01*
X92641354Y-42535840D01*
X92520014Y-42348277D01*
X92369670Y-42183051D01*
X92365619Y-42179852D01*
X92365615Y-42179848D01*
X92198414Y-42047800D01*
X92198410Y-42047798D01*
X92194359Y-42044598D01*
X92158028Y-42024542D01*
X92142136Y-42015769D01*
X91998789Y-41936638D01*
X91993920Y-41934914D01*
X91993916Y-41934912D01*
X91793087Y-41863795D01*
X91793083Y-41863794D01*
X91788212Y-41862069D01*
X91783119Y-41861162D01*
X91783116Y-41861161D01*
X91573373Y-41823800D01*
X91573367Y-41823799D01*
X91568284Y-41822894D01*
X91494452Y-41821992D01*
X91350081Y-41820228D01*
X91350079Y-41820228D01*
X91344911Y-41820165D01*
X91124091Y-41853955D01*
X90911756Y-41923357D01*
X90713607Y-42026507D01*
X90709474Y-42029610D01*
X90709471Y-42029612D01*
X90685247Y-42047800D01*
X90534965Y-42160635D01*
X90380629Y-42322138D01*
X90273201Y-42479621D01*
X90218293Y-42524621D01*
X90147768Y-42532792D01*
X90084021Y-42501538D01*
X90063324Y-42477054D01*
X89982822Y-42352617D01*
X89982820Y-42352614D01*
X89980014Y-42348277D01*
X89829670Y-42183051D01*
X89825619Y-42179852D01*
X89825615Y-42179848D01*
X89658414Y-42047800D01*
X89658410Y-42047798D01*
X89654359Y-42044598D01*
X89618028Y-42024542D01*
X89602136Y-42015769D01*
X89458789Y-41936638D01*
X89453920Y-41934914D01*
X89453916Y-41934912D01*
X89253087Y-41863795D01*
X89253083Y-41863794D01*
X89248212Y-41862069D01*
X89243119Y-41861162D01*
X89243116Y-41861161D01*
X89033373Y-41823800D01*
X89033367Y-41823799D01*
X89028284Y-41822894D01*
X88954452Y-41821992D01*
X88810081Y-41820228D01*
X88810079Y-41820228D01*
X88804911Y-41820165D01*
X88584091Y-41853955D01*
X88371756Y-41923357D01*
X88173607Y-42026507D01*
X88169474Y-42029610D01*
X88169471Y-42029612D01*
X88145247Y-42047800D01*
X87994965Y-42160635D01*
X87840629Y-42322138D01*
X87733201Y-42479621D01*
X87678293Y-42524621D01*
X87607768Y-42532792D01*
X87544021Y-42501538D01*
X87523324Y-42477054D01*
X87442822Y-42352617D01*
X87442820Y-42352614D01*
X87440014Y-42348277D01*
X87289670Y-42183051D01*
X87285619Y-42179852D01*
X87285615Y-42179848D01*
X87118414Y-42047800D01*
X87118410Y-42047798D01*
X87114359Y-42044598D01*
X87078028Y-42024542D01*
X87062136Y-42015769D01*
X86918789Y-41936638D01*
X86913920Y-41934914D01*
X86913916Y-41934912D01*
X86713087Y-41863795D01*
X86713083Y-41863794D01*
X86708212Y-41862069D01*
X86703119Y-41861162D01*
X86703116Y-41861161D01*
X86493373Y-41823800D01*
X86493367Y-41823799D01*
X86488284Y-41822894D01*
X86414452Y-41821992D01*
X86270081Y-41820228D01*
X86270079Y-41820228D01*
X86264911Y-41820165D01*
X86044091Y-41853955D01*
X85831756Y-41923357D01*
X85633607Y-42026507D01*
X85629474Y-42029610D01*
X85629471Y-42029612D01*
X85605247Y-42047800D01*
X85454965Y-42160635D01*
X85300629Y-42322138D01*
X85193201Y-42479621D01*
X85138293Y-42524621D01*
X85067768Y-42532792D01*
X85004021Y-42501538D01*
X84983324Y-42477054D01*
X84902822Y-42352617D01*
X84902820Y-42352614D01*
X84900014Y-42348277D01*
X84749670Y-42183051D01*
X84745619Y-42179852D01*
X84745615Y-42179848D01*
X84578414Y-42047800D01*
X84578410Y-42047798D01*
X84574359Y-42044598D01*
X84538028Y-42024542D01*
X84522136Y-42015769D01*
X84378789Y-41936638D01*
X84373920Y-41934914D01*
X84373916Y-41934912D01*
X84173087Y-41863795D01*
X84173083Y-41863794D01*
X84168212Y-41862069D01*
X84163119Y-41861162D01*
X84163116Y-41861161D01*
X83953373Y-41823800D01*
X83953367Y-41823799D01*
X83948284Y-41822894D01*
X83874452Y-41821992D01*
X83730081Y-41820228D01*
X83730079Y-41820228D01*
X83724911Y-41820165D01*
X83504091Y-41853955D01*
X83291756Y-41923357D01*
X83093607Y-42026507D01*
X83089474Y-42029610D01*
X83089471Y-42029612D01*
X83065247Y-42047800D01*
X82914965Y-42160635D01*
X82760629Y-42322138D01*
X82653204Y-42479618D01*
X82652898Y-42480066D01*
X82597987Y-42525069D01*
X82527462Y-42533240D01*
X82463715Y-42501986D01*
X82443018Y-42477502D01*
X82362426Y-42352926D01*
X82356136Y-42344757D01*
X82212806Y-42187240D01*
X82205273Y-42180215D01*
X82038139Y-42048222D01*
X82029552Y-42042517D01*
X81843117Y-41939599D01*
X81833705Y-41935369D01*
X81632959Y-41864280D01*
X81622988Y-41861646D01*
X81551837Y-41848972D01*
X81538540Y-41850432D01*
X81534000Y-41864989D01*
X81534000Y-47038517D01*
X81538064Y-47052359D01*
X81551478Y-47054393D01*
X81558184Y-47053534D01*
X81568262Y-47051392D01*
X81772255Y-46990191D01*
X81781842Y-46986433D01*
X81973095Y-46892739D01*
X81981945Y-46887464D01*
X82155328Y-46763792D01*
X82163200Y-46757139D01*
X82314052Y-46606812D01*
X82320730Y-46598965D01*
X82448022Y-46421819D01*
X82449279Y-46422722D01*
X82496373Y-46379362D01*
X82566311Y-46367145D01*
X82631751Y-46394678D01*
X82659579Y-46426511D01*
X82719987Y-46525088D01*
X82866250Y-46693938D01*
X83038126Y-46836632D01*
X83042593Y-46839242D01*
X83124070Y-46886853D01*
X83172794Y-46938491D01*
X83186500Y-46995641D01*
X83186500Y-48816733D01*
X83185973Y-48827916D01*
X83184298Y-48835409D01*
X83184547Y-48843335D01*
X83184547Y-48843336D01*
X83186438Y-48903486D01*
X83186500Y-48907445D01*
X83186500Y-48935356D01*
X83186997Y-48939290D01*
X83186997Y-48939291D01*
X83187005Y-48939356D01*
X83187938Y-48951193D01*
X83189327Y-48995389D01*
X83194978Y-49014839D01*
X83198987Y-49034200D01*
X83201526Y-49054297D01*
X83204445Y-49061668D01*
X83204445Y-49061670D01*
X83217804Y-49095412D01*
X83221649Y-49106642D01*
X83233982Y-49149093D01*
X83238015Y-49155912D01*
X83238017Y-49155917D01*
X83244293Y-49166528D01*
X83252988Y-49184276D01*
X83260448Y-49203117D01*
X83265110Y-49209533D01*
X83265110Y-49209534D01*
X83286436Y-49238887D01*
X83292952Y-49248807D01*
X83315458Y-49286862D01*
X83329779Y-49301183D01*
X83342619Y-49316216D01*
X83354528Y-49332607D01*
X83360634Y-49337658D01*
X83388605Y-49360798D01*
X83397384Y-49368788D01*
X85559478Y-51530882D01*
X85593504Y-51593194D01*
X85595692Y-51606803D01*
X85613058Y-51772028D01*
X85672073Y-51953656D01*
X85767560Y-52119044D01*
X85895347Y-52260966D01*
X86049848Y-52373218D01*
X86055876Y-52375902D01*
X86055878Y-52375903D01*
X86218281Y-52448209D01*
X86224312Y-52450894D01*
X86317712Y-52470747D01*
X86404656Y-52489228D01*
X86404661Y-52489228D01*
X86411113Y-52490600D01*
X86602087Y-52490600D01*
X86608539Y-52489228D01*
X86608544Y-52489228D01*
X86695487Y-52470747D01*
X86788888Y-52450894D01*
X86794919Y-52448209D01*
X86957322Y-52375903D01*
X86957324Y-52375902D01*
X86963352Y-52373218D01*
X87117853Y-52260966D01*
X87245640Y-52119044D01*
X87341127Y-51953656D01*
X87400142Y-51772028D01*
X87420104Y-51582100D01*
X87400142Y-51392172D01*
X87341127Y-51210544D01*
X87245640Y-51045156D01*
X87117853Y-50903234D01*
X86963352Y-50790982D01*
X86957324Y-50788298D01*
X86957322Y-50788297D01*
X86794919Y-50715991D01*
X86794918Y-50715991D01*
X86788888Y-50713306D01*
X86695487Y-50693453D01*
X86608544Y-50674972D01*
X86608539Y-50674972D01*
X86602087Y-50673600D01*
X86546195Y-50673600D01*
X86478074Y-50653598D01*
X86457100Y-50636695D01*
X84490405Y-48670000D01*
X84456379Y-48607688D01*
X84453500Y-48580905D01*
X84453500Y-47000427D01*
X84473502Y-46932306D01*
X84514618Y-46892550D01*
X84517994Y-46890896D01*
X84699860Y-46761173D01*
X84714024Y-46747059D01*
X84844152Y-46617384D01*
X84858096Y-46603489D01*
X84988453Y-46422077D01*
X84989776Y-46423028D01*
X85036645Y-46379857D01*
X85106580Y-46367625D01*
X85172026Y-46395144D01*
X85199875Y-46426994D01*
X85259987Y-46525088D01*
X85406250Y-46693938D01*
X85578126Y-46836632D01*
X85771000Y-46949338D01*
X85979692Y-47029030D01*
X85984760Y-47030061D01*
X85984763Y-47030062D01*
X86079862Y-47049410D01*
X86198597Y-47073567D01*
X86203772Y-47073757D01*
X86203774Y-47073757D01*
X86416673Y-47081564D01*
X86416677Y-47081564D01*
X86421837Y-47081753D01*
X86426957Y-47081097D01*
X86426959Y-47081097D01*
X86638288Y-47054025D01*
X86638289Y-47054025D01*
X86643416Y-47053368D01*
X86648366Y-47051883D01*
X86852429Y-46990661D01*
X86852434Y-46990659D01*
X86857384Y-46989174D01*
X87057994Y-46890896D01*
X87239860Y-46761173D01*
X87254024Y-46747059D01*
X87384152Y-46617384D01*
X87398096Y-46603489D01*
X87528453Y-46422077D01*
X87529776Y-46423028D01*
X87576645Y-46379857D01*
X87646580Y-46367625D01*
X87712026Y-46395144D01*
X87739875Y-46426994D01*
X87799987Y-46525088D01*
X87946250Y-46693938D01*
X88118126Y-46836632D01*
X88184053Y-46875157D01*
X88252016Y-46914871D01*
X88300740Y-46966510D01*
X88313811Y-47036293D01*
X88287080Y-47102065D01*
X88277541Y-47112754D01*
X87276700Y-48113595D01*
X87214388Y-48147621D01*
X87187605Y-48150500D01*
X87006913Y-48150500D01*
X87000461Y-48151872D01*
X87000456Y-48151872D01*
X86913512Y-48170353D01*
X86820112Y-48190206D01*
X86814082Y-48192891D01*
X86814081Y-48192891D01*
X86651678Y-48265197D01*
X86651676Y-48265198D01*
X86645648Y-48267882D01*
X86491147Y-48380134D01*
X86363360Y-48522056D01*
X86267873Y-48687444D01*
X86208858Y-48869072D01*
X86188896Y-49059000D01*
X86189586Y-49065565D01*
X86207803Y-49238887D01*
X86208858Y-49248928D01*
X86267873Y-49430556D01*
X86363360Y-49595944D01*
X86491147Y-49737866D01*
X86645648Y-49850118D01*
X86651676Y-49852802D01*
X86651678Y-49852803D01*
X86814081Y-49925109D01*
X86820112Y-49927794D01*
X86913513Y-49947647D01*
X87000456Y-49966128D01*
X87000461Y-49966128D01*
X87006913Y-49967500D01*
X87197887Y-49967500D01*
X87204339Y-49966128D01*
X87204344Y-49966128D01*
X87291287Y-49947647D01*
X87384688Y-49927794D01*
X87390719Y-49925109D01*
X87553122Y-49852803D01*
X87553124Y-49852802D01*
X87559152Y-49850118D01*
X87713653Y-49737866D01*
X87841440Y-49595944D01*
X87936927Y-49430556D01*
X87981793Y-49292473D01*
X87993902Y-49255207D01*
X87993902Y-49255205D01*
X87995942Y-49248928D01*
X87998650Y-49223163D01*
X88025663Y-49157507D01*
X88034865Y-49147239D01*
X90406084Y-46776020D01*
X90468396Y-46741994D01*
X90539211Y-46747059D01*
X90575661Y-46768168D01*
X90658126Y-46836632D01*
X90851000Y-46949338D01*
X91059692Y-47029030D01*
X91064760Y-47030061D01*
X91064763Y-47030062D01*
X91159862Y-47049410D01*
X91278597Y-47073567D01*
X91283772Y-47073757D01*
X91283774Y-47073757D01*
X91496673Y-47081564D01*
X91496677Y-47081564D01*
X91501837Y-47081753D01*
X91506957Y-47081097D01*
X91506959Y-47081097D01*
X91718288Y-47054025D01*
X91718289Y-47054025D01*
X91723416Y-47053368D01*
X91728366Y-47051883D01*
X91859592Y-47012513D01*
X91930588Y-47012097D01*
X91990538Y-47050129D01*
X92020410Y-47114535D01*
X92021800Y-47133199D01*
X92021800Y-65780105D01*
X92001798Y-65848226D01*
X91984895Y-65869200D01*
X90021467Y-67832628D01*
X89959155Y-67866654D01*
X89888340Y-67861589D01*
X89831504Y-67819042D01*
X89807062Y-67756704D01*
X89794232Y-67634635D01*
X89794232Y-67634633D01*
X89793542Y-67628072D01*
X89734527Y-67446444D01*
X89639040Y-67281056D01*
X89511253Y-67139134D01*
X89356752Y-67026882D01*
X89350724Y-67024198D01*
X89350722Y-67024197D01*
X89188319Y-66951891D01*
X89188318Y-66951891D01*
X89182288Y-66949206D01*
X89081031Y-66927683D01*
X89001944Y-66910872D01*
X89001939Y-66910872D01*
X88995487Y-66909500D01*
X88804513Y-66909500D01*
X88798061Y-66910872D01*
X88798056Y-66910872D01*
X88718969Y-66927683D01*
X88617712Y-66949206D01*
X88611682Y-66951891D01*
X88611681Y-66951891D01*
X88449278Y-67024197D01*
X88449276Y-67024198D01*
X88443248Y-67026882D01*
X88437907Y-67030762D01*
X88437906Y-67030763D01*
X88295213Y-67134436D01*
X88228345Y-67158294D01*
X88221152Y-67158500D01*
X86686200Y-67158500D01*
X86618079Y-67138498D01*
X86598853Y-67122157D01*
X86598580Y-67122460D01*
X86593668Y-67118037D01*
X86589253Y-67113134D01*
X86434752Y-67000882D01*
X86428724Y-66998198D01*
X86428722Y-66998197D01*
X86266319Y-66925891D01*
X86266318Y-66925891D01*
X86260288Y-66923206D01*
X86166887Y-66903353D01*
X86079944Y-66884872D01*
X86079939Y-66884872D01*
X86073487Y-66883500D01*
X85882513Y-66883500D01*
X85876061Y-66884872D01*
X85876056Y-66884872D01*
X85789113Y-66903353D01*
X85695712Y-66923206D01*
X85689682Y-66925891D01*
X85689681Y-66925891D01*
X85527278Y-66998197D01*
X85527276Y-66998198D01*
X85521248Y-67000882D01*
X85366747Y-67113134D01*
X85362332Y-67118037D01*
X85357420Y-67122460D01*
X85356295Y-67121211D01*
X85302986Y-67154051D01*
X85269800Y-67158500D01*
X80324595Y-67158500D01*
X80256474Y-67138498D01*
X80235500Y-67121595D01*
X79410405Y-66296500D01*
X79376379Y-66234188D01*
X79373500Y-66207405D01*
X79373500Y-59044708D01*
X79393502Y-58976587D01*
X79447158Y-58930094D01*
X79517432Y-58919990D01*
X79550749Y-58929601D01*
X79680117Y-58987199D01*
X79773518Y-59007052D01*
X79860461Y-59025533D01*
X79860466Y-59025533D01*
X79866918Y-59026905D01*
X79922811Y-59026905D01*
X79990932Y-59046907D01*
X80011906Y-59063810D01*
X81538343Y-60590247D01*
X81545887Y-60598537D01*
X81550000Y-60605018D01*
X81555777Y-60610443D01*
X81599667Y-60651658D01*
X81602509Y-60654413D01*
X81622230Y-60674134D01*
X81625425Y-60676612D01*
X81634447Y-60684318D01*
X81666679Y-60714586D01*
X81673628Y-60718406D01*
X81684432Y-60724346D01*
X81700956Y-60735199D01*
X81716959Y-60747613D01*
X81757543Y-60765176D01*
X81768173Y-60770383D01*
X81806940Y-60791695D01*
X81814617Y-60793666D01*
X81814622Y-60793668D01*
X81826558Y-60796732D01*
X81845266Y-60803137D01*
X81863855Y-60811181D01*
X81871680Y-60812420D01*
X81871682Y-60812421D01*
X81907519Y-60818097D01*
X81919140Y-60820504D01*
X81954289Y-60829528D01*
X81961970Y-60831500D01*
X81982231Y-60831500D01*
X82001940Y-60833051D01*
X82021943Y-60836219D01*
X82029835Y-60835473D01*
X82035062Y-60834979D01*
X82065954Y-60832059D01*
X82077811Y-60831500D01*
X84267406Y-60831500D01*
X84335527Y-60851502D01*
X84356501Y-60868405D01*
X85500660Y-62012564D01*
X85534686Y-62074876D01*
X85529621Y-62145691D01*
X85487218Y-62202419D01*
X85454965Y-62226635D01*
X85398537Y-62285684D01*
X85374283Y-62311064D01*
X85312759Y-62346494D01*
X85241846Y-62343037D01*
X85184060Y-62301791D01*
X85165207Y-62268243D01*
X85123767Y-62157703D01*
X85120615Y-62149295D01*
X85033261Y-62032739D01*
X84916705Y-61945385D01*
X84780316Y-61894255D01*
X84718134Y-61887500D01*
X82921866Y-61887500D01*
X82859684Y-61894255D01*
X82723295Y-61945385D01*
X82606739Y-62032739D01*
X82519385Y-62149295D01*
X82468255Y-62285684D01*
X82461500Y-62347866D01*
X82461500Y-64144134D01*
X82468255Y-64206316D01*
X82519385Y-64342705D01*
X82606739Y-64459261D01*
X82723295Y-64546615D01*
X82859684Y-64597745D01*
X82921866Y-64604500D01*
X84718134Y-64604500D01*
X84780316Y-64597745D01*
X84916705Y-64546615D01*
X85033261Y-64459261D01*
X85120615Y-64342705D01*
X85142799Y-64283529D01*
X85164598Y-64225382D01*
X85207240Y-64168618D01*
X85273802Y-64143918D01*
X85343150Y-64159126D01*
X85377817Y-64187114D01*
X85406250Y-64219938D01*
X85578126Y-64362632D01*
X85771000Y-64475338D01*
X85979692Y-64555030D01*
X85984760Y-64556061D01*
X85984763Y-64556062D01*
X86092017Y-64577883D01*
X86198597Y-64599567D01*
X86203772Y-64599757D01*
X86203774Y-64599757D01*
X86416673Y-64607564D01*
X86416677Y-64607564D01*
X86421837Y-64607753D01*
X86426957Y-64607097D01*
X86426959Y-64607097D01*
X86638288Y-64580025D01*
X86638289Y-64580025D01*
X86643416Y-64579368D01*
X86648366Y-64577883D01*
X86852429Y-64516661D01*
X86852434Y-64516659D01*
X86857384Y-64515174D01*
X87057994Y-64416896D01*
X87239860Y-64287173D01*
X87398096Y-64129489D01*
X87528453Y-63948077D01*
X87627430Y-63747811D01*
X87692370Y-63534069D01*
X87721529Y-63312590D01*
X87723156Y-63246000D01*
X87704852Y-63023361D01*
X87650431Y-62806702D01*
X87561354Y-62601840D01*
X87440014Y-62414277D01*
X87289670Y-62249051D01*
X87285619Y-62245852D01*
X87285615Y-62245848D01*
X87118414Y-62113800D01*
X87118410Y-62113798D01*
X87114359Y-62110598D01*
X87058782Y-62079918D01*
X87008811Y-62029485D01*
X86993737Y-61973569D01*
X86993562Y-61968004D01*
X86993500Y-61964044D01*
X86993500Y-61936144D01*
X86992996Y-61932153D01*
X86992063Y-61920311D01*
X86991332Y-61897029D01*
X86990674Y-61876111D01*
X86988462Y-61868497D01*
X86988461Y-61868492D01*
X86985023Y-61856659D01*
X86981012Y-61837295D01*
X86979467Y-61825064D01*
X86978474Y-61817203D01*
X86975557Y-61809836D01*
X86975556Y-61809831D01*
X86962198Y-61776092D01*
X86958354Y-61764865D01*
X86948230Y-61730022D01*
X86946018Y-61722407D01*
X86935707Y-61704972D01*
X86927012Y-61687224D01*
X86919552Y-61668383D01*
X86893564Y-61632613D01*
X86887048Y-61622693D01*
X86868580Y-61591465D01*
X86868578Y-61591462D01*
X86864542Y-61584638D01*
X86850221Y-61570317D01*
X86837380Y-61555283D01*
X86830131Y-61545306D01*
X86825472Y-61538893D01*
X86791395Y-61510702D01*
X86782616Y-61502712D01*
X85085652Y-59805747D01*
X85078112Y-59797461D01*
X85074000Y-59790982D01*
X85024348Y-59744356D01*
X85021507Y-59741602D01*
X85001770Y-59721865D01*
X84998573Y-59719385D01*
X84989551Y-59711680D01*
X84963100Y-59686841D01*
X84957321Y-59681414D01*
X84950375Y-59677595D01*
X84950372Y-59677593D01*
X84939566Y-59671652D01*
X84923047Y-59660801D01*
X84922583Y-59660441D01*
X84907041Y-59648386D01*
X84899772Y-59645241D01*
X84899768Y-59645238D01*
X84866463Y-59630826D01*
X84855813Y-59625609D01*
X84817060Y-59604305D01*
X84797437Y-59599267D01*
X84778734Y-59592863D01*
X84767420Y-59587967D01*
X84767419Y-59587967D01*
X84760145Y-59584819D01*
X84752322Y-59583580D01*
X84752312Y-59583577D01*
X84716476Y-59577901D01*
X84704856Y-59575495D01*
X84669711Y-59566472D01*
X84669710Y-59566472D01*
X84662030Y-59564500D01*
X84641776Y-59564500D01*
X84622065Y-59562949D01*
X84609886Y-59561020D01*
X84602057Y-59559780D01*
X84594165Y-59560526D01*
X84558039Y-59563941D01*
X84546181Y-59564500D01*
X82356595Y-59564500D01*
X82288474Y-59544498D01*
X82267500Y-59527595D01*
X80909527Y-58169622D01*
X80875501Y-58107310D01*
X80873312Y-58093697D01*
X80856637Y-57935040D01*
X80856637Y-57935038D01*
X80855947Y-57928477D01*
X80796932Y-57746849D01*
X80701445Y-57581461D01*
X80573658Y-57439539D01*
X80419157Y-57327287D01*
X80413129Y-57324603D01*
X80413127Y-57324602D01*
X80250724Y-57252296D01*
X80250723Y-57252296D01*
X80244693Y-57249611D01*
X80151293Y-57229758D01*
X80064349Y-57211277D01*
X80064344Y-57211277D01*
X80057892Y-57209905D01*
X79866918Y-57209905D01*
X79860466Y-57211277D01*
X79860461Y-57211277D01*
X79773517Y-57229758D01*
X79680117Y-57249611D01*
X79674087Y-57252296D01*
X79674086Y-57252296D01*
X79550749Y-57307209D01*
X79480382Y-57316643D01*
X79416085Y-57286536D01*
X79378271Y-57226448D01*
X79373500Y-57192102D01*
X79373500Y-47204500D01*
X79393502Y-47136379D01*
X79447158Y-47089886D01*
X79499500Y-47078500D01*
X79638134Y-47078500D01*
X79700316Y-47071745D01*
X79836705Y-47020615D01*
X79953261Y-46933261D01*
X80040615Y-46816705D01*
X80084798Y-46698848D01*
X80127440Y-46642084D01*
X80194001Y-46617384D01*
X80263350Y-46632592D01*
X80298017Y-46660580D01*
X80323218Y-46689673D01*
X80330580Y-46696883D01*
X80494434Y-46832916D01*
X80502881Y-46838831D01*
X80686756Y-46946279D01*
X80696042Y-46950729D01*
X80895001Y-47026703D01*
X80904899Y-47029579D01*
X81008250Y-47050606D01*
X81022299Y-47049410D01*
X81026000Y-47039065D01*
X81026000Y-41863102D01*
X81022082Y-41849758D01*
X81007806Y-41847771D01*
X80969324Y-41853660D01*
X80959288Y-41856051D01*
X80756868Y-41922212D01*
X80747359Y-41926209D01*
X80558463Y-42024542D01*
X80549738Y-42030036D01*
X80379433Y-42157905D01*
X80371726Y-42164748D01*
X80224590Y-42318717D01*
X80218109Y-42326722D01*
X80113498Y-42480074D01*
X80058587Y-42525076D01*
X79988062Y-42533247D01*
X79924315Y-42501993D01*
X79903618Y-42477509D01*
X79822822Y-42352617D01*
X79822820Y-42352614D01*
X79820014Y-42348277D01*
X79669670Y-42183051D01*
X79665619Y-42179852D01*
X79665615Y-42179848D01*
X79498414Y-42047800D01*
X79498410Y-42047798D01*
X79494359Y-42044598D01*
X79458028Y-42024542D01*
X79442136Y-42015769D01*
X79298789Y-41936638D01*
X79293920Y-41934914D01*
X79293916Y-41934912D01*
X79093087Y-41863795D01*
X79093083Y-41863794D01*
X79088212Y-41862069D01*
X79083119Y-41861162D01*
X79083116Y-41861161D01*
X78873373Y-41823800D01*
X78873367Y-41823799D01*
X78868284Y-41822894D01*
X78794452Y-41821992D01*
X78650081Y-41820228D01*
X78650079Y-41820228D01*
X78644911Y-41820165D01*
X78424091Y-41853955D01*
X78211756Y-41923357D01*
X78013607Y-42026507D01*
X78009474Y-42029610D01*
X78009471Y-42029612D01*
X77985247Y-42047800D01*
X77834965Y-42160635D01*
X77680629Y-42322138D01*
X77554743Y-42506680D01*
X77460688Y-42709305D01*
X77400989Y-42924570D01*
X77377251Y-43146695D01*
X77377548Y-43151848D01*
X77377548Y-43151851D01*
X77383011Y-43246590D01*
X77390110Y-43369715D01*
X77391247Y-43374761D01*
X77391248Y-43374767D01*
X77411119Y-43462939D01*
X77439222Y-43587639D01*
X77523266Y-43794616D01*
X77574019Y-43877438D01*
X77637291Y-43980688D01*
X77639987Y-43985088D01*
X77786250Y-44153938D01*
X77790230Y-44157242D01*
X77794981Y-44161187D01*
X77834616Y-44220090D01*
X77836113Y-44291071D01*
X77798997Y-44351593D01*
X77758725Y-44376112D01*
X77670095Y-44409338D01*
X77643295Y-44419385D01*
X77526739Y-44506739D01*
X77439385Y-44623295D01*
X77388255Y-44759684D01*
X77381500Y-44821866D01*
X77381500Y-46618134D01*
X77388255Y-46680316D01*
X77439385Y-46816705D01*
X77526739Y-46933261D01*
X77643295Y-47020615D01*
X77779684Y-47071745D01*
X77841866Y-47078500D01*
X77980500Y-47078500D01*
X78048621Y-47098502D01*
X78095114Y-47152158D01*
X78106500Y-47204500D01*
X78106500Y-66443233D01*
X78105973Y-66454416D01*
X78104298Y-66461909D01*
X78104547Y-66469835D01*
X78104547Y-66469836D01*
X78106438Y-66529986D01*
X78106500Y-66533945D01*
X78106500Y-66561856D01*
X78106997Y-66565790D01*
X78106997Y-66565791D01*
X78107005Y-66565856D01*
X78107938Y-66577693D01*
X78109327Y-66621889D01*
X78114978Y-66641339D01*
X78118987Y-66660700D01*
X78121526Y-66680797D01*
X78124445Y-66688168D01*
X78124445Y-66688170D01*
X78137804Y-66721912D01*
X78141649Y-66733142D01*
X78153982Y-66775593D01*
X78158015Y-66782412D01*
X78158017Y-66782417D01*
X78164293Y-66793028D01*
X78172988Y-66810776D01*
X78180448Y-66829617D01*
X78185110Y-66836033D01*
X78185110Y-66836034D01*
X78206436Y-66865387D01*
X78212952Y-66875307D01*
X78235458Y-66913362D01*
X78249779Y-66927683D01*
X78262619Y-66942716D01*
X78274528Y-66959107D01*
X78280634Y-66964158D01*
X78308605Y-66987298D01*
X78317384Y-66995288D01*
X79339595Y-68017499D01*
X79373621Y-68079811D01*
X79376500Y-68106594D01*
X79376500Y-76191692D01*
X79356498Y-76259813D01*
X79308683Y-76303453D01*
X79283607Y-76316507D01*
X79279474Y-76319610D01*
X79279471Y-76319612D01*
X79109100Y-76447530D01*
X79104965Y-76450635D01*
X79101393Y-76454373D01*
X78968535Y-76593401D01*
X78950629Y-76612138D01*
X78947715Y-76616410D01*
X78947714Y-76616411D01*
X78835095Y-76781504D01*
X78780184Y-76826507D01*
X78731007Y-76836500D01*
X78546595Y-76836500D01*
X78478474Y-76816498D01*
X78457500Y-76799595D01*
X78394405Y-76736500D01*
X78360379Y-76674188D01*
X78357500Y-76647405D01*
X78357500Y-76394524D01*
X78377502Y-76326403D01*
X78389858Y-76310221D01*
X78463040Y-76228944D01*
X78539687Y-76096188D01*
X78555223Y-76069279D01*
X78555224Y-76069278D01*
X78558527Y-76063556D01*
X78617542Y-75881928D01*
X78624607Y-75814713D01*
X78636814Y-75698565D01*
X78637504Y-75692000D01*
X78631850Y-75638202D01*
X78618232Y-75508635D01*
X78618232Y-75508633D01*
X78617542Y-75502072D01*
X78558527Y-75320444D01*
X78463040Y-75155056D01*
X78335253Y-75013134D01*
X78180752Y-74900882D01*
X78174724Y-74898198D01*
X78174722Y-74898197D01*
X78012319Y-74825891D01*
X78012318Y-74825891D01*
X78006288Y-74823206D01*
X77912887Y-74803353D01*
X77825944Y-74784872D01*
X77825939Y-74784872D01*
X77819487Y-74783500D01*
X77628513Y-74783500D01*
X77622061Y-74784872D01*
X77622056Y-74784872D01*
X77535113Y-74803353D01*
X77441712Y-74823206D01*
X77435682Y-74825891D01*
X77435681Y-74825891D01*
X77273278Y-74898197D01*
X77273276Y-74898198D01*
X77267248Y-74900882D01*
X77112747Y-75013134D01*
X76984960Y-75155056D01*
X76889473Y-75320444D01*
X76830458Y-75502072D01*
X76829768Y-75508633D01*
X76829768Y-75508635D01*
X76816150Y-75638202D01*
X76810496Y-75692000D01*
X75438500Y-75692000D01*
X75438500Y-40004500D01*
X75458502Y-39936379D01*
X75512158Y-39889886D01*
X75564500Y-39878500D01*
X94615500Y-39878500D01*
X94683621Y-39898502D01*
G37*
G04 #@! TD.AperFunction*
M02*
