G04 #@! TF.GenerationSoftware,KiCad,Pcbnew,6.0.9-8da3e8f707~116~ubuntu20.04.1*
G04 #@! TF.CreationDate,2023-03-08T13:01:56+01:00*
G04 #@! TF.ProjectId,dac_adc_pmod,6461635f-6164-4635-9f70-6d6f642e6b69,rev?*
G04 #@! TF.SameCoordinates,Original*
G04 #@! TF.FileFunction,Copper,L1,Top*
G04 #@! TF.FilePolarity,Positive*
%FSLAX46Y46*%
G04 Gerber Fmt 4.6, Leading zero omitted, Abs format (unit mm)*
G04 Created by KiCad (PCBNEW 6.0.9-8da3e8f707~116~ubuntu20.04.1) date 2023-03-08 13:01:56*
%MOMM*%
%LPD*%
G01*
G04 APERTURE LIST*
G04 Aperture macros list*
%AMRoundRect*
0 Rectangle with rounded corners*
0 $1 Rounding radius*
0 $2 $3 $4 $5 $6 $7 $8 $9 X,Y pos of 4 corners*
0 Add a 4 corners polygon primitive as box body*
4,1,4,$2,$3,$4,$5,$6,$7,$8,$9,$2,$3,0*
0 Add four circle primitives for the rounded corners*
1,1,$1+$1,$2,$3*
1,1,$1+$1,$4,$5*
1,1,$1+$1,$6,$7*
1,1,$1+$1,$8,$9*
0 Add four rect primitives between the rounded corners*
20,1,$1+$1,$2,$3,$4,$5,0*
20,1,$1+$1,$4,$5,$6,$7,0*
20,1,$1+$1,$6,$7,$8,$9,0*
20,1,$1+$1,$8,$9,$2,$3,0*%
G04 Aperture macros list end*
G04 #@! TA.AperFunction,SMDPad,CuDef*
%ADD10RoundRect,0.237500X-0.250000X-0.237500X0.250000X-0.237500X0.250000X0.237500X-0.250000X0.237500X0*%
G04 #@! TD*
G04 #@! TA.AperFunction,SMDPad,CuDef*
%ADD11RoundRect,0.237500X0.250000X0.237500X-0.250000X0.237500X-0.250000X-0.237500X0.250000X-0.237500X0*%
G04 #@! TD*
G04 #@! TA.AperFunction,ComponentPad*
%ADD12R,1.700000X1.700000*%
G04 #@! TD*
G04 #@! TA.AperFunction,ComponentPad*
%ADD13O,1.700000X1.700000*%
G04 #@! TD*
G04 #@! TA.AperFunction,SMDPad,CuDef*
%ADD14RoundRect,0.237500X0.237500X-0.250000X0.237500X0.250000X-0.237500X0.250000X-0.237500X-0.250000X0*%
G04 #@! TD*
G04 #@! TA.AperFunction,SMDPad,CuDef*
%ADD15RoundRect,0.237500X0.300000X0.237500X-0.300000X0.237500X-0.300000X-0.237500X0.300000X-0.237500X0*%
G04 #@! TD*
G04 #@! TA.AperFunction,SMDPad,CuDef*
%ADD16RoundRect,0.237500X-0.237500X0.287500X-0.237500X-0.287500X0.237500X-0.287500X0.237500X0.287500X0*%
G04 #@! TD*
G04 #@! TA.AperFunction,SMDPad,CuDef*
%ADD17RoundRect,0.237500X-0.300000X-0.237500X0.300000X-0.237500X0.300000X0.237500X-0.300000X0.237500X0*%
G04 #@! TD*
G04 #@! TA.AperFunction,SMDPad,CuDef*
%ADD18R,1.397000X0.279400*%
G04 #@! TD*
G04 #@! TA.AperFunction,SMDPad,CuDef*
%ADD19RoundRect,0.237500X-0.237500X0.300000X-0.237500X-0.300000X0.237500X-0.300000X0.237500X0.300000X0*%
G04 #@! TD*
G04 #@! TA.AperFunction,SMDPad,CuDef*
%ADD20RoundRect,0.237500X-0.237500X0.250000X-0.237500X-0.250000X0.237500X-0.250000X0.237500X0.250000X0*%
G04 #@! TD*
G04 #@! TA.AperFunction,SMDPad,CuDef*
%ADD21R,0.250000X0.700000*%
G04 #@! TD*
G04 #@! TA.AperFunction,SMDPad,CuDef*
%ADD22R,3.300000X1.700000*%
G04 #@! TD*
G04 #@! TA.AperFunction,ViaPad*
%ADD23C,0.800000*%
G04 #@! TD*
G04 #@! TA.AperFunction,Conductor*
%ADD24C,0.250000*%
G04 #@! TD*
G04 APERTURE END LIST*
D10*
X89765500Y-50292000D03*
X91590500Y-50292000D03*
D11*
X79398500Y-52324000D03*
X77573500Y-52324000D03*
D10*
X89615000Y-65024000D03*
X91440000Y-65024000D03*
D12*
X90170000Y-82535000D03*
D13*
X90170000Y-79995000D03*
X90170000Y-77455000D03*
D14*
X78740000Y-73556500D03*
X78740000Y-71731500D03*
D15*
X85952500Y-56896000D03*
X84227500Y-56896000D03*
X85952500Y-58674000D03*
X84227500Y-58674000D03*
D11*
X91590500Y-55372000D03*
X89765500Y-55372000D03*
D16*
X78740000Y-68213000D03*
X78740000Y-69963000D03*
D11*
X80668500Y-65024000D03*
X78843500Y-65024000D03*
D17*
X89561500Y-62738000D03*
X91286500Y-62738000D03*
D11*
X79398500Y-54356000D03*
X77573500Y-54356000D03*
D12*
X80010000Y-82550000D03*
D13*
X80010000Y-80010000D03*
X80010000Y-77470000D03*
D15*
X80618500Y-62738000D03*
X78893500Y-62738000D03*
D10*
X84177500Y-49276000D03*
X86002500Y-49276000D03*
D11*
X86002500Y-66548000D03*
X84177500Y-66548000D03*
D12*
X78740000Y-45720000D03*
D13*
X78740000Y-43180000D03*
X81280000Y-45720000D03*
X81280000Y-43180000D03*
X83820000Y-45720000D03*
X83820000Y-43180000D03*
X86360000Y-45720000D03*
X86360000Y-43180000D03*
X88900000Y-45720000D03*
X88900000Y-43180000D03*
X91440000Y-45720000D03*
X91440000Y-43180000D03*
D12*
X85090000Y-82535000D03*
D13*
X85090000Y-79995000D03*
X85090000Y-77455000D03*
D10*
X89765500Y-52832000D03*
X91590500Y-52832000D03*
D18*
X82905600Y-52339240D03*
X82905600Y-52839619D03*
X82905600Y-53340000D03*
X82905600Y-53840381D03*
X82905600Y-54340760D03*
X87274400Y-54340760D03*
X87274400Y-53840381D03*
X87274400Y-53340000D03*
X87274400Y-52839619D03*
X87274400Y-52339240D03*
D12*
X83820000Y-63246000D03*
D13*
X86360000Y-63246000D03*
D19*
X88900000Y-69495500D03*
X88900000Y-71220500D03*
D20*
X90932000Y-69445500D03*
X90932000Y-71270500D03*
D21*
X83840000Y-71805800D03*
X84340000Y-71805800D03*
X84840000Y-71805800D03*
X85340000Y-71805800D03*
X85840000Y-71805800D03*
X86340000Y-71805800D03*
X86340000Y-68910200D03*
X85840000Y-68910200D03*
X85340000Y-68910200D03*
X84840000Y-68910200D03*
X84340000Y-68910200D03*
X83840000Y-68910200D03*
D22*
X85090000Y-70358000D03*
D23*
X88900000Y-67818000D03*
X85978000Y-67792000D03*
X77724000Y-75692000D03*
X86360000Y-40640000D03*
X81280000Y-40640000D03*
X91186000Y-61214000D03*
X87630000Y-70358000D03*
X77216000Y-62738000D03*
X82296000Y-70358000D03*
X82550000Y-55880000D03*
X79962405Y-58118405D03*
X86506600Y-51582100D03*
X87102400Y-49059000D03*
X84840000Y-73451700D03*
X87069900Y-71805800D03*
D24*
X84340000Y-68910200D02*
X84340000Y-68338000D01*
X84340000Y-68338000D02*
X82751300Y-66749300D01*
X82751300Y-66749300D02*
X82751300Y-66483800D01*
X82751300Y-66483800D02*
X82751300Y-65838700D01*
X82751300Y-65838700D02*
X83439000Y-65151000D01*
X84836000Y-65151000D02*
X85090000Y-64897000D01*
X83439000Y-65151000D02*
X84836000Y-65151000D01*
X85090000Y-64897000D02*
X85090000Y-60833000D01*
X85090000Y-60833000D02*
X84227500Y-59970500D01*
X78893500Y-62738000D02*
X78893500Y-63727500D01*
X79502000Y-63881000D02*
X79856000Y-64235000D01*
X80683000Y-65824000D02*
X81342800Y-66483800D01*
X81342800Y-66483800D02*
X82751300Y-66483800D01*
X78893500Y-63727500D02*
X79047000Y-63881000D01*
X79047000Y-63881000D02*
X79502000Y-63881000D01*
X79856000Y-64235000D02*
X79856000Y-65494495D01*
X79856000Y-65494495D02*
X80185505Y-65824000D01*
X80185505Y-65824000D02*
X80683000Y-65824000D01*
X84227500Y-59970500D02*
X87385600Y-59970500D01*
X87385600Y-59970500D02*
X87952300Y-59403800D01*
X87274400Y-54340760D02*
X87274400Y-55651400D01*
X87274400Y-55651400D02*
X87952300Y-56329300D01*
X87952300Y-56329300D02*
X87952300Y-59403800D01*
X87952300Y-59403800D02*
X91286500Y-62738000D01*
X84227500Y-59970500D02*
X84227500Y-58674000D01*
X88900000Y-69495500D02*
X90882000Y-69495500D01*
X90882000Y-69495500D02*
X90932000Y-69445500D01*
X88900000Y-69495500D02*
X88900000Y-67818000D01*
X86995000Y-67310000D02*
X86995000Y-68255200D01*
X87630000Y-66675000D02*
X89789000Y-66675000D01*
X86995000Y-67310000D02*
X87630000Y-66675000D01*
X89789000Y-66675000D02*
X91440000Y-65024000D01*
X86995000Y-68255200D02*
X86340000Y-68910200D01*
X88900000Y-71220500D02*
X88037500Y-70358000D01*
X78740000Y-43180000D02*
X78740000Y-45720000D01*
X83929400Y-51952400D02*
X78872300Y-46895300D01*
X85952500Y-55014300D02*
X85952500Y-56896000D01*
X89765500Y-50292000D02*
X87807200Y-48333700D01*
X85978000Y-67792000D02*
X85978000Y-68096900D01*
X85119800Y-48333700D02*
X84936400Y-48517100D01*
X78740000Y-45720000D02*
X78740000Y-46895300D01*
X87274400Y-52339200D02*
X88298200Y-52339200D01*
X82550000Y-42769400D02*
X81785300Y-42004700D01*
X83929400Y-52688000D02*
X83929400Y-52339200D01*
X86002500Y-66548000D02*
X86002500Y-67767500D01*
X78740000Y-43180000D02*
X79915300Y-43180000D01*
X82905600Y-52339200D02*
X83929400Y-52339200D01*
X79915300Y-42812600D02*
X79915300Y-43180000D01*
X82550000Y-46130700D02*
X82550000Y-42769400D01*
X83417500Y-52839600D02*
X83777800Y-52839600D01*
X87807200Y-48333700D02*
X85119800Y-48333700D01*
X78740000Y-74676000D02*
X77724000Y-75692000D01*
X84936400Y-48517100D02*
X82550000Y-46130700D01*
X78872300Y-46895300D02*
X78740000Y-46895300D01*
X83929400Y-52339200D02*
X83929400Y-51952400D01*
X85978000Y-68096900D02*
X85840000Y-68234900D01*
X81785300Y-42004700D02*
X80723200Y-42004700D01*
X78740000Y-73556500D02*
X78740000Y-74676000D01*
X83417500Y-52839600D02*
X83406000Y-52839600D01*
X84936400Y-48517100D02*
X84177500Y-49276000D01*
X86002500Y-67767500D02*
X85978000Y-67792000D01*
X89765500Y-52339200D02*
X88298200Y-52339200D01*
X83777800Y-52839600D02*
X85952500Y-55014300D01*
X85840000Y-68910200D02*
X85840000Y-68234900D01*
X89765500Y-52339200D02*
X89765500Y-50292000D01*
X82905600Y-52839600D02*
X83406000Y-52839600D01*
X85952500Y-58674000D02*
X85952500Y-56896000D01*
X89765500Y-52832000D02*
X89765500Y-52339200D01*
X80723200Y-42004700D02*
X79915300Y-42812600D01*
X83777800Y-52839600D02*
X83929400Y-52688000D01*
X88037500Y-70358000D02*
X87630000Y-70358000D01*
X77216000Y-65532000D02*
X77216000Y-62738000D01*
X84518200Y-70298600D02*
X84399400Y-70298600D01*
X78834700Y-75863300D02*
X78834700Y-80566800D01*
X84340000Y-68910200D02*
X84340000Y-69585500D01*
X83929400Y-56597900D02*
X83929400Y-54340800D01*
X84513800Y-52740500D02*
X84513800Y-50897100D01*
X78893500Y-62738000D02*
X77216000Y-62738000D01*
X82905600Y-54340800D02*
X83929400Y-54340800D01*
X85090000Y-70358000D02*
X84577600Y-70358000D01*
X84513800Y-50897100D02*
X81280000Y-47663300D01*
X84840000Y-68910200D02*
X84840000Y-69585500D01*
X84227500Y-58674000D02*
X84227500Y-56896000D01*
X78834700Y-80566800D02*
X79642600Y-81374700D01*
X80010000Y-82550000D02*
X80010000Y-81374700D01*
X87630000Y-70358000D02*
X85090000Y-70358000D01*
X86828900Y-54340800D02*
X86114100Y-54340800D01*
X79642600Y-81374700D02*
X80010000Y-81374700D01*
X81280000Y-45720000D02*
X81280000Y-43180000D01*
X84340000Y-69585500D02*
X84399400Y-69585500D01*
X78740000Y-68213000D02*
X78740000Y-67056000D01*
X81280000Y-47663300D02*
X81280000Y-45720000D01*
X84399400Y-69585500D02*
X84840000Y-69585500D01*
X84227500Y-56896000D02*
X83929400Y-56597900D01*
X84399400Y-70298600D02*
X84399400Y-69585500D01*
X78740000Y-67056000D02*
X77216000Y-65532000D01*
X86828900Y-54340800D02*
X87274400Y-54340800D01*
X84399400Y-70298600D02*
X78834700Y-75863300D01*
X86114100Y-54340800D02*
X84513800Y-52740500D01*
X84577600Y-70358000D02*
X84518200Y-70298600D01*
X83820000Y-63246000D02*
X81126500Y-63246000D01*
X81126500Y-63246000D02*
X81126500Y-64566000D01*
X80618500Y-62738000D02*
X77573500Y-59693000D01*
X80618500Y-62738000D02*
X81126500Y-63246000D01*
X77573500Y-59693000D02*
X77573500Y-54356000D01*
X81126500Y-64566000D02*
X80668500Y-65024000D01*
X78386000Y-53136500D02*
X77573500Y-52324000D01*
X89053500Y-64462500D02*
X89615000Y-65024000D01*
X78386000Y-56542000D02*
X78386000Y-53136500D01*
X89053500Y-63246000D02*
X89561500Y-62738000D01*
X86360000Y-63246000D02*
X89053500Y-63246000D01*
X89053500Y-63246000D02*
X89053500Y-64462500D01*
X79962405Y-58118405D02*
X78386000Y-56542000D01*
X86250600Y-51838100D02*
X86250600Y-52839600D01*
X86506600Y-51582100D02*
X86250600Y-51838100D01*
X87274400Y-52839600D02*
X86250600Y-52839600D01*
X93105700Y-51316800D02*
X91590500Y-52832000D01*
X90170000Y-43574800D02*
X90170000Y-42691600D01*
X91438200Y-70259300D02*
X90658300Y-70259300D01*
X89838500Y-71646100D02*
X88950200Y-72534400D01*
X88950200Y-72534400D02*
X85893300Y-72534400D01*
X90856900Y-42004700D02*
X91956600Y-42004700D01*
X92704400Y-68993100D02*
X91438200Y-70259300D01*
X85840000Y-71805800D02*
X85840000Y-72481100D01*
X90170000Y-42691600D02*
X90856900Y-42004700D01*
X93105700Y-43153800D02*
X93105700Y-51316800D01*
X84995300Y-43180000D02*
X84995300Y-43547300D01*
X83820000Y-43180000D02*
X84995300Y-43180000D01*
X92704400Y-53945900D02*
X92704400Y-68993100D01*
X91590500Y-52832000D02*
X92704400Y-53945900D01*
X90658300Y-70259300D02*
X89838500Y-71079100D01*
X89349500Y-44395300D02*
X90170000Y-43574800D01*
X85843300Y-44395300D02*
X89349500Y-44395300D01*
X85893300Y-72534400D02*
X85840000Y-72481100D01*
X84995300Y-43547300D02*
X85843300Y-44395300D01*
X91956600Y-42004700D02*
X93105700Y-43153800D01*
X89838500Y-71079100D02*
X89838500Y-71646100D01*
X87535300Y-45720000D02*
X87535300Y-46770800D01*
X86360000Y-45720000D02*
X87535300Y-45720000D01*
X90776800Y-50012300D02*
X90776800Y-53303100D01*
X87535300Y-46770800D02*
X90776800Y-50012300D01*
X90776800Y-53303100D02*
X91590500Y-54116800D01*
X91590500Y-54116800D02*
X91590500Y-55372000D01*
X92143200Y-41554400D02*
X88793500Y-41554400D01*
X85340000Y-72638900D02*
X85685900Y-72984800D01*
X93573300Y-42984500D02*
X92143200Y-41554400D01*
X91063900Y-71270500D02*
X93573300Y-68761100D01*
X87535300Y-42812600D02*
X87535300Y-43180000D01*
X90932000Y-71270500D02*
X91063900Y-71270500D01*
X93573300Y-68761100D02*
X93573300Y-42984500D01*
X89217700Y-72984800D02*
X90932000Y-71270500D01*
X86360000Y-43180000D02*
X87535300Y-43180000D01*
X88793500Y-41554400D02*
X87535300Y-42812600D01*
X85685900Y-72984800D02*
X89217700Y-72984800D01*
X85340000Y-71805800D02*
X85340000Y-72638900D01*
X86706700Y-49059000D02*
X86246100Y-49519600D01*
X85774800Y-53364600D02*
X85774800Y-49990900D01*
X86250600Y-53840400D02*
X85774800Y-53364600D01*
X87102400Y-49059000D02*
X86706700Y-49059000D01*
X85774800Y-49990900D02*
X86246100Y-49519600D01*
X86246100Y-49519600D02*
X86002500Y-49276000D01*
X87274400Y-53840400D02*
X86250600Y-53840400D01*
X84840000Y-73451700D02*
X84840000Y-71805800D01*
X91807300Y-44355300D02*
X92623300Y-45171300D01*
X91440000Y-44355300D02*
X91807300Y-44355300D01*
X91440000Y-43180000D02*
X91440000Y-44355300D01*
X92623300Y-49259200D02*
X91590500Y-50292000D01*
X92623300Y-45171300D02*
X92623300Y-49259200D01*
X87069900Y-71805800D02*
X86340000Y-71805800D01*
X84340000Y-71805800D02*
X84340000Y-72916800D01*
X83892000Y-73364800D02*
X83892000Y-77989000D01*
X85090000Y-79995000D02*
X85090000Y-78819700D01*
X84722700Y-78819700D02*
X85090000Y-78819700D01*
X83892000Y-77989000D02*
X84722700Y-78819700D01*
X84340000Y-72916800D02*
X83892000Y-73364800D01*
X80010000Y-80010000D02*
X80010000Y-78834700D01*
X83373600Y-75838400D02*
X80377300Y-78834700D01*
X80377300Y-78834700D02*
X80010000Y-78834700D01*
X83840000Y-72481100D02*
X83373600Y-72947500D01*
X83373600Y-72947500D02*
X83373600Y-75838400D01*
X83840000Y-71805800D02*
X83840000Y-72481100D01*
X85340000Y-68179800D02*
X85340000Y-68910200D01*
X84177500Y-66548000D02*
X84177500Y-67017300D01*
X84177500Y-67017300D02*
X85340000Y-68179800D01*
X78843500Y-65149500D02*
X82604200Y-68910200D01*
X82604200Y-68910200D02*
X83840000Y-68910200D01*
X78843500Y-65024000D02*
X78843500Y-65149500D01*
X81026000Y-54356000D02*
X79398500Y-54356000D01*
X82905600Y-53840381D02*
X81541619Y-53840381D01*
X81541619Y-53840381D02*
X81026000Y-54356000D01*
X81534000Y-53340000D02*
X80518000Y-52324000D01*
X82905600Y-53340000D02*
X81534000Y-53340000D01*
X80518000Y-52324000D02*
X79398500Y-52324000D01*
X89765500Y-55372000D02*
X89765500Y-54807300D01*
X87274400Y-53340000D02*
X88298200Y-53340000D01*
X89765500Y-54807300D02*
X88298200Y-53340000D01*
X78740000Y-69963000D02*
X78740000Y-71731500D01*
G04 #@! TA.AperFunction,Conductor*
G36*
X94683621Y-39898502D02*
G01*
X94730114Y-39952158D01*
X94741500Y-40004500D01*
X94741500Y-86995500D01*
X94721498Y-87063621D01*
X94667842Y-87110114D01*
X94615500Y-87121500D01*
X75564500Y-87121500D01*
X75496379Y-87101498D01*
X75449886Y-87047842D01*
X75438500Y-86995500D01*
X75438500Y-83444669D01*
X78652001Y-83444669D01*
X78652371Y-83451490D01*
X78657895Y-83502352D01*
X78661521Y-83517604D01*
X78706676Y-83638054D01*
X78715214Y-83653649D01*
X78791715Y-83755724D01*
X78804276Y-83768285D01*
X78906351Y-83844786D01*
X78921946Y-83853324D01*
X79042394Y-83898478D01*
X79057649Y-83902105D01*
X79108514Y-83907631D01*
X79115328Y-83908000D01*
X79737885Y-83908000D01*
X79753124Y-83903525D01*
X79754329Y-83902135D01*
X79756000Y-83894452D01*
X79756000Y-83889884D01*
X80264000Y-83889884D01*
X80268475Y-83905123D01*
X80269865Y-83906328D01*
X80277548Y-83907999D01*
X80904669Y-83907999D01*
X80911490Y-83907629D01*
X80962352Y-83902105D01*
X80977604Y-83898479D01*
X81098054Y-83853324D01*
X81113649Y-83844786D01*
X81215724Y-83768285D01*
X81228285Y-83755724D01*
X81304786Y-83653649D01*
X81313324Y-83638054D01*
X81358478Y-83517606D01*
X81362105Y-83502351D01*
X81367631Y-83451486D01*
X81368000Y-83444672D01*
X81368000Y-83429669D01*
X83732001Y-83429669D01*
X83732371Y-83436490D01*
X83737895Y-83487352D01*
X83741521Y-83502604D01*
X83786676Y-83623054D01*
X83795214Y-83638649D01*
X83871715Y-83740724D01*
X83884276Y-83753285D01*
X83986351Y-83829786D01*
X84001946Y-83838324D01*
X84122394Y-83883478D01*
X84137649Y-83887105D01*
X84188514Y-83892631D01*
X84195328Y-83893000D01*
X84817885Y-83893000D01*
X84833124Y-83888525D01*
X84834329Y-83887135D01*
X84836000Y-83879452D01*
X84836000Y-83874884D01*
X85344000Y-83874884D01*
X85348475Y-83890123D01*
X85349865Y-83891328D01*
X85357548Y-83892999D01*
X85984669Y-83892999D01*
X85991490Y-83892629D01*
X86042352Y-83887105D01*
X86057604Y-83883479D01*
X86178054Y-83838324D01*
X86193649Y-83829786D01*
X86295724Y-83753285D01*
X86308285Y-83740724D01*
X86384786Y-83638649D01*
X86393324Y-83623054D01*
X86438478Y-83502606D01*
X86442105Y-83487351D01*
X86447631Y-83436486D01*
X86448000Y-83429672D01*
X86448000Y-83429669D01*
X88812001Y-83429669D01*
X88812371Y-83436490D01*
X88817895Y-83487352D01*
X88821521Y-83502604D01*
X88866676Y-83623054D01*
X88875214Y-83638649D01*
X88951715Y-83740724D01*
X88964276Y-83753285D01*
X89066351Y-83829786D01*
X89081946Y-83838324D01*
X89202394Y-83883478D01*
X89217649Y-83887105D01*
X89268514Y-83892631D01*
X89275328Y-83893000D01*
X89897885Y-83893000D01*
X89913124Y-83888525D01*
X89914329Y-83887135D01*
X89916000Y-83879452D01*
X89916000Y-83874884D01*
X90424000Y-83874884D01*
X90428475Y-83890123D01*
X90429865Y-83891328D01*
X90437548Y-83892999D01*
X91064669Y-83892999D01*
X91071490Y-83892629D01*
X91122352Y-83887105D01*
X91137604Y-83883479D01*
X91258054Y-83838324D01*
X91273649Y-83829786D01*
X91375724Y-83753285D01*
X91388285Y-83740724D01*
X91464786Y-83638649D01*
X91473324Y-83623054D01*
X91518478Y-83502606D01*
X91522105Y-83487351D01*
X91527631Y-83436486D01*
X91528000Y-83429672D01*
X91528000Y-82807115D01*
X91523525Y-82791876D01*
X91522135Y-82790671D01*
X91514452Y-82789000D01*
X90442115Y-82789000D01*
X90426876Y-82793475D01*
X90425671Y-82794865D01*
X90424000Y-82802548D01*
X90424000Y-83874884D01*
X89916000Y-83874884D01*
X89916000Y-82807115D01*
X89911525Y-82791876D01*
X89910135Y-82790671D01*
X89902452Y-82789000D01*
X88830116Y-82789000D01*
X88814877Y-82793475D01*
X88813672Y-82794865D01*
X88812001Y-82802548D01*
X88812001Y-83429669D01*
X86448000Y-83429669D01*
X86448000Y-82807115D01*
X86443525Y-82791876D01*
X86442135Y-82790671D01*
X86434452Y-82789000D01*
X85362115Y-82789000D01*
X85346876Y-82793475D01*
X85345671Y-82794865D01*
X85344000Y-82802548D01*
X85344000Y-83874884D01*
X84836000Y-83874884D01*
X84836000Y-82807115D01*
X84831525Y-82791876D01*
X84830135Y-82790671D01*
X84822452Y-82789000D01*
X83750116Y-82789000D01*
X83734877Y-82793475D01*
X83733672Y-82794865D01*
X83732001Y-82802548D01*
X83732001Y-83429669D01*
X81368000Y-83429669D01*
X81368000Y-82822115D01*
X81363525Y-82806876D01*
X81362135Y-82805671D01*
X81354452Y-82804000D01*
X80282115Y-82804000D01*
X80266876Y-82808475D01*
X80265671Y-82809865D01*
X80264000Y-82817548D01*
X80264000Y-83889884D01*
X79756000Y-83889884D01*
X79756000Y-82822115D01*
X79751525Y-82806876D01*
X79750135Y-82805671D01*
X79742452Y-82804000D01*
X78670116Y-82804000D01*
X78654877Y-82808475D01*
X78653672Y-82809865D01*
X78652001Y-82817548D01*
X78652001Y-83444669D01*
X75438500Y-83444669D01*
X75438500Y-75692000D01*
X76810496Y-75692000D01*
X76830458Y-75881928D01*
X76889473Y-76063556D01*
X76892776Y-76069278D01*
X76892777Y-76069279D01*
X76909262Y-76097831D01*
X76984960Y-76228944D01*
X77112747Y-76370866D01*
X77197620Y-76432530D01*
X77218266Y-76447530D01*
X77267248Y-76483118D01*
X77273276Y-76485802D01*
X77273278Y-76485803D01*
X77435681Y-76558109D01*
X77441712Y-76560794D01*
X77535113Y-76580647D01*
X77622056Y-76599128D01*
X77622061Y-76599128D01*
X77628513Y-76600500D01*
X77819487Y-76600500D01*
X77825939Y-76599128D01*
X77825944Y-76599128D01*
X77912887Y-76580647D01*
X78006288Y-76560794D01*
X78012319Y-76558109D01*
X78174722Y-76485803D01*
X78174724Y-76485802D01*
X78180752Y-76483118D01*
X78229735Y-76447530D01*
X78250380Y-76432530D01*
X78335253Y-76370866D01*
X78463040Y-76228944D01*
X78538738Y-76097831D01*
X78555223Y-76069279D01*
X78555224Y-76069278D01*
X78558527Y-76063556D01*
X78617542Y-75881928D01*
X78634907Y-75716708D01*
X78661920Y-75651051D01*
X78671122Y-75640782D01*
X79132258Y-75179647D01*
X79140537Y-75172113D01*
X79147018Y-75168000D01*
X79193644Y-75118348D01*
X79196398Y-75115507D01*
X79216135Y-75095770D01*
X79218615Y-75092573D01*
X79226320Y-75083551D01*
X79251159Y-75057100D01*
X79256586Y-75051321D01*
X79260405Y-75044375D01*
X79260407Y-75044372D01*
X79266348Y-75033566D01*
X79277199Y-75017047D01*
X79284758Y-75007301D01*
X79289614Y-75001041D01*
X79292759Y-74993772D01*
X79292762Y-74993768D01*
X79307174Y-74960463D01*
X79312391Y-74949813D01*
X79333695Y-74911060D01*
X79338733Y-74891437D01*
X79345137Y-74872734D01*
X79350033Y-74861420D01*
X79350033Y-74861419D01*
X79353181Y-74854145D01*
X79354420Y-74846322D01*
X79354423Y-74846312D01*
X79360099Y-74810476D01*
X79362505Y-74798856D01*
X79371528Y-74763711D01*
X79371528Y-74763710D01*
X79373500Y-74756030D01*
X79373500Y-74735776D01*
X79375051Y-74716065D01*
X79376980Y-74703886D01*
X79378220Y-74696057D01*
X79374059Y-74652038D01*
X79373500Y-74640181D01*
X79373500Y-74508964D01*
X79393502Y-74440843D01*
X79433196Y-74401821D01*
X79444031Y-74395116D01*
X79480256Y-74358828D01*
X79561758Y-74277184D01*
X79561762Y-74277179D01*
X79566929Y-74272003D01*
X79651719Y-74134449D01*
X79654369Y-74130150D01*
X79654370Y-74130148D01*
X79658209Y-74123920D01*
X79712974Y-73958809D01*
X79723500Y-73856072D01*
X79723500Y-73256928D01*
X79712707Y-73152907D01*
X79657654Y-72987893D01*
X79566116Y-72839969D01*
X79539124Y-72813024D01*
X79459214Y-72733253D01*
X79425135Y-72670970D01*
X79430138Y-72600150D01*
X79459059Y-72555063D01*
X79561754Y-72452188D01*
X79561758Y-72452183D01*
X79566929Y-72447003D01*
X79570770Y-72440772D01*
X79654369Y-72305150D01*
X79654370Y-72305148D01*
X79658209Y-72298920D01*
X79712974Y-72133809D01*
X79723500Y-72031072D01*
X79723500Y-71431928D01*
X79712707Y-71327907D01*
X79708336Y-71314804D01*
X79659972Y-71169841D01*
X79657654Y-71162893D01*
X79566116Y-71014969D01*
X79506214Y-70955171D01*
X79472134Y-70892889D01*
X79477137Y-70822069D01*
X79506058Y-70776980D01*
X79561758Y-70721183D01*
X79566929Y-70716003D01*
X79574464Y-70703779D01*
X79654369Y-70574150D01*
X79654370Y-70574148D01*
X79658209Y-70567920D01*
X79712974Y-70402809D01*
X79723500Y-70300072D01*
X79723500Y-69625928D01*
X79715381Y-69547674D01*
X79713419Y-69528765D01*
X79713418Y-69528761D01*
X79712707Y-69521907D01*
X79707356Y-69505866D01*
X79659972Y-69363841D01*
X79657654Y-69356893D01*
X79566116Y-69208969D01*
X79533859Y-69176769D01*
X79499780Y-69114488D01*
X79504782Y-69043668D01*
X79533704Y-68998578D01*
X79561363Y-68970871D01*
X79570375Y-68959460D01*
X79653912Y-68823937D01*
X79660056Y-68810759D01*
X79710315Y-68659234D01*
X79713181Y-68645868D01*
X79722672Y-68553230D01*
X79723000Y-68546815D01*
X79723000Y-68485115D01*
X79718525Y-68469876D01*
X79717135Y-68468671D01*
X79709452Y-68467000D01*
X77775115Y-68467000D01*
X77759876Y-68471475D01*
X77758671Y-68472865D01*
X77757000Y-68480548D01*
X77757000Y-68546766D01*
X77757337Y-68553282D01*
X77767075Y-68647132D01*
X77769968Y-68660528D01*
X77820488Y-68811953D01*
X77826653Y-68825115D01*
X77910426Y-68960492D01*
X77919464Y-68971895D01*
X77946140Y-68998525D01*
X77980219Y-69060807D01*
X77975216Y-69131627D01*
X77946295Y-69176715D01*
X77913071Y-69209997D01*
X77909231Y-69216227D01*
X77909230Y-69216228D01*
X77826364Y-69350662D01*
X77821791Y-69358080D01*
X77767026Y-69523191D01*
X77766326Y-69530027D01*
X77766325Y-69530030D01*
X77764441Y-69548420D01*
X77756500Y-69625928D01*
X77756500Y-70300072D01*
X77756837Y-70303318D01*
X77756837Y-70303322D01*
X77765305Y-70384929D01*
X77767293Y-70404093D01*
X77822346Y-70569107D01*
X77913884Y-70717031D01*
X77958698Y-70761766D01*
X77973786Y-70776828D01*
X78007866Y-70839111D01*
X78002863Y-70909931D01*
X77973943Y-70955019D01*
X77913071Y-71015997D01*
X77909231Y-71022227D01*
X77909230Y-71022228D01*
X77826364Y-71156662D01*
X77821791Y-71164080D01*
X77767026Y-71329191D01*
X77766326Y-71336027D01*
X77766325Y-71336030D01*
X77763153Y-71366994D01*
X77756500Y-71431928D01*
X77756500Y-72031072D01*
X77756837Y-72034318D01*
X77756837Y-72034322D01*
X77764998Y-72112970D01*
X77767293Y-72135093D01*
X77822346Y-72300107D01*
X77913884Y-72448031D01*
X77919066Y-72453204D01*
X78020786Y-72554747D01*
X78054865Y-72617030D01*
X78049862Y-72687850D01*
X78020941Y-72732937D01*
X77918246Y-72835812D01*
X77918242Y-72835817D01*
X77913071Y-72840997D01*
X77909231Y-72847227D01*
X77909230Y-72847228D01*
X77826364Y-72981662D01*
X77821791Y-72989080D01*
X77767026Y-73154191D01*
X77756500Y-73256928D01*
X77756500Y-73856072D01*
X77767293Y-73960093D01*
X77769474Y-73966629D01*
X77769474Y-73966631D01*
X77776818Y-73988644D01*
X77822346Y-74125107D01*
X77913884Y-74273031D01*
X77919066Y-74278204D01*
X77991369Y-74350381D01*
X78025448Y-74412663D01*
X78020445Y-74483484D01*
X77991446Y-74528650D01*
X77773499Y-74746596D01*
X77711187Y-74780621D01*
X77684404Y-74783500D01*
X77628513Y-74783500D01*
X77622061Y-74784872D01*
X77622056Y-74784872D01*
X77556269Y-74798856D01*
X77441712Y-74823206D01*
X77435682Y-74825891D01*
X77435681Y-74825891D01*
X77273278Y-74898197D01*
X77273276Y-74898198D01*
X77267248Y-74900882D01*
X77112747Y-75013134D01*
X77108326Y-75018044D01*
X77108325Y-75018045D01*
X77035817Y-75098574D01*
X76984960Y-75155056D01*
X76889473Y-75320444D01*
X76830458Y-75502072D01*
X76829768Y-75508633D01*
X76829768Y-75508635D01*
X76815879Y-75640782D01*
X76810496Y-75692000D01*
X75438500Y-75692000D01*
X75438500Y-67940885D01*
X77757000Y-67940885D01*
X77761475Y-67956124D01*
X77762865Y-67957329D01*
X77770548Y-67959000D01*
X78467885Y-67959000D01*
X78483124Y-67954525D01*
X78484329Y-67953135D01*
X78486000Y-67945452D01*
X78486000Y-67940885D01*
X78994000Y-67940885D01*
X78998475Y-67956124D01*
X78999865Y-67957329D01*
X79007548Y-67959000D01*
X79704885Y-67959000D01*
X79720124Y-67954525D01*
X79721329Y-67953135D01*
X79723000Y-67945452D01*
X79723000Y-67879234D01*
X79722663Y-67872718D01*
X79712925Y-67778868D01*
X79710032Y-67765472D01*
X79659512Y-67614047D01*
X79653347Y-67600885D01*
X79569574Y-67465508D01*
X79560540Y-67454110D01*
X79447871Y-67341637D01*
X79436460Y-67332625D01*
X79300937Y-67249088D01*
X79287759Y-67242944D01*
X79136234Y-67192685D01*
X79122868Y-67189819D01*
X79030230Y-67180328D01*
X79023815Y-67180000D01*
X79012115Y-67180000D01*
X78996876Y-67184475D01*
X78995671Y-67185865D01*
X78994000Y-67193548D01*
X78994000Y-67940885D01*
X78486000Y-67940885D01*
X78486000Y-67198115D01*
X78481525Y-67182876D01*
X78480135Y-67181671D01*
X78472452Y-67180000D01*
X78456234Y-67180000D01*
X78449718Y-67180337D01*
X78355868Y-67190075D01*
X78342472Y-67192968D01*
X78191047Y-67243488D01*
X78177885Y-67249653D01*
X78042508Y-67333426D01*
X78031110Y-67342460D01*
X77918637Y-67455129D01*
X77909625Y-67466540D01*
X77826088Y-67602063D01*
X77819944Y-67615241D01*
X77769685Y-67766766D01*
X77766819Y-67780132D01*
X77757328Y-67872770D01*
X77757000Y-67879185D01*
X77757000Y-67940885D01*
X75438500Y-67940885D01*
X75438500Y-63021766D01*
X77848000Y-63021766D01*
X77848337Y-63028282D01*
X77858075Y-63122132D01*
X77860968Y-63135528D01*
X77911488Y-63286953D01*
X77917653Y-63300115D01*
X78001426Y-63435492D01*
X78010460Y-63446890D01*
X78123129Y-63559363D01*
X78134540Y-63568375D01*
X78270063Y-63651912D01*
X78283241Y-63658056D01*
X78434766Y-63708315D01*
X78448132Y-63711181D01*
X78540770Y-63720672D01*
X78547185Y-63721000D01*
X78621385Y-63721000D01*
X78636624Y-63716525D01*
X78637829Y-63715135D01*
X78639500Y-63707452D01*
X78639500Y-63010115D01*
X78635025Y-62994876D01*
X78633635Y-62993671D01*
X78625952Y-62992000D01*
X77866115Y-62992000D01*
X77850876Y-62996475D01*
X77849671Y-62997865D01*
X77848000Y-63005548D01*
X77848000Y-63021766D01*
X75438500Y-63021766D01*
X75438500Y-54643072D01*
X76577500Y-54643072D01*
X76577837Y-54646318D01*
X76577837Y-54646322D01*
X76587011Y-54734736D01*
X76588293Y-54747093D01*
X76643346Y-54912107D01*
X76734884Y-55060031D01*
X76857997Y-55182929D01*
X76864224Y-55186767D01*
X76864226Y-55186769D01*
X76880116Y-55196564D01*
X76927609Y-55249336D01*
X76940000Y-55303824D01*
X76940000Y-59614233D01*
X76939473Y-59625416D01*
X76937798Y-59632909D01*
X76938047Y-59640835D01*
X76938047Y-59640836D01*
X76939938Y-59700986D01*
X76940000Y-59704945D01*
X76940000Y-59732856D01*
X76940497Y-59736790D01*
X76940497Y-59736791D01*
X76940505Y-59736856D01*
X76941438Y-59748693D01*
X76942827Y-59792889D01*
X76948478Y-59812339D01*
X76952487Y-59831700D01*
X76955026Y-59851797D01*
X76957945Y-59859168D01*
X76957945Y-59859170D01*
X76971304Y-59892912D01*
X76975149Y-59904142D01*
X76987482Y-59946593D01*
X76991515Y-59953412D01*
X76991517Y-59953417D01*
X76997793Y-59964028D01*
X77006488Y-59981776D01*
X77013948Y-60000617D01*
X77018610Y-60007033D01*
X77018610Y-60007034D01*
X77039936Y-60036387D01*
X77046452Y-60046307D01*
X77068958Y-60084362D01*
X77083279Y-60098683D01*
X77096119Y-60113716D01*
X77108028Y-60130107D01*
X77114134Y-60135158D01*
X77142105Y-60158298D01*
X77150884Y-60166288D01*
X78534094Y-61549498D01*
X78568120Y-61611810D01*
X78563055Y-61682625D01*
X78520508Y-61739461D01*
X78458003Y-61763920D01*
X78446868Y-61765075D01*
X78433472Y-61767968D01*
X78282047Y-61818488D01*
X78268885Y-61824653D01*
X78133508Y-61908426D01*
X78122110Y-61917460D01*
X78009637Y-62030129D01*
X78000625Y-62041540D01*
X77917088Y-62177063D01*
X77910944Y-62190241D01*
X77860685Y-62341766D01*
X77857819Y-62355132D01*
X77848328Y-62447770D01*
X77848000Y-62454185D01*
X77848000Y-62465885D01*
X77852475Y-62481124D01*
X77853865Y-62482329D01*
X77861548Y-62484000D01*
X79021500Y-62484000D01*
X79089621Y-62504002D01*
X79136114Y-62557658D01*
X79147500Y-62610000D01*
X79147500Y-63702885D01*
X79151975Y-63718124D01*
X79153365Y-63719329D01*
X79161048Y-63721000D01*
X79239766Y-63721000D01*
X79246282Y-63720663D01*
X79340132Y-63710925D01*
X79353528Y-63708032D01*
X79504953Y-63657512D01*
X79518115Y-63651347D01*
X79653492Y-63567574D01*
X79664894Y-63558536D01*
X79666567Y-63556861D01*
X79667993Y-63556081D01*
X79670627Y-63553993D01*
X79670984Y-63554444D01*
X79728849Y-63522781D01*
X79799669Y-63527784D01*
X79844754Y-63556701D01*
X79847421Y-63559363D01*
X79852997Y-63564929D01*
X79859227Y-63568769D01*
X79859228Y-63568770D01*
X79990704Y-63649813D01*
X80001080Y-63656209D01*
X80166191Y-63710974D01*
X80173027Y-63711674D01*
X80173030Y-63711675D01*
X80220370Y-63716525D01*
X80268928Y-63721500D01*
X80367000Y-63721500D01*
X80435121Y-63741502D01*
X80481614Y-63795158D01*
X80493000Y-63847500D01*
X80493000Y-63914600D01*
X80472998Y-63982721D01*
X80419342Y-64029214D01*
X80373510Y-64040432D01*
X80372195Y-64040500D01*
X80368928Y-64040500D01*
X80365681Y-64040837D01*
X80365679Y-64040837D01*
X80271765Y-64050581D01*
X80271761Y-64050582D01*
X80264907Y-64051293D01*
X80258371Y-64053474D01*
X80258369Y-64053474D01*
X80125605Y-64097768D01*
X80099893Y-64106346D01*
X79951969Y-64197884D01*
X79946796Y-64203066D01*
X79845253Y-64304786D01*
X79782970Y-64338865D01*
X79712150Y-64333862D01*
X79667063Y-64304941D01*
X79564188Y-64202246D01*
X79564183Y-64202242D01*
X79559003Y-64197071D01*
X79552772Y-64193230D01*
X79417150Y-64109631D01*
X79417148Y-64109630D01*
X79410920Y-64105791D01*
X79245809Y-64051026D01*
X79238973Y-64050326D01*
X79238970Y-64050325D01*
X79187474Y-64045049D01*
X79143072Y-64040500D01*
X78543928Y-64040500D01*
X78540682Y-64040837D01*
X78540678Y-64040837D01*
X78446765Y-64050581D01*
X78446761Y-64050582D01*
X78439907Y-64051293D01*
X78433371Y-64053474D01*
X78433369Y-64053474D01*
X78300605Y-64097768D01*
X78274893Y-64106346D01*
X78126969Y-64197884D01*
X78121796Y-64203066D01*
X78009242Y-64315816D01*
X78009238Y-64315821D01*
X78004071Y-64320997D01*
X78000231Y-64327227D01*
X78000230Y-64327228D01*
X77918844Y-64459261D01*
X77912791Y-64469080D01*
X77858026Y-64634191D01*
X77857326Y-64641027D01*
X77857325Y-64641030D01*
X77854569Y-64667931D01*
X77847500Y-64736928D01*
X77847500Y-65311072D01*
X77858293Y-65415093D01*
X77913346Y-65580107D01*
X78004884Y-65728031D01*
X78010066Y-65733204D01*
X78122816Y-65845758D01*
X78122821Y-65845762D01*
X78127997Y-65850929D01*
X78134227Y-65854769D01*
X78134228Y-65854770D01*
X78147361Y-65862865D01*
X78276080Y-65942209D01*
X78441191Y-65996974D01*
X78448027Y-65997674D01*
X78448030Y-65997675D01*
X78499526Y-66002951D01*
X78543928Y-66007500D01*
X78753406Y-66007500D01*
X78821527Y-66027502D01*
X78842501Y-66044405D01*
X82100548Y-69302453D01*
X82108088Y-69310739D01*
X82112200Y-69317218D01*
X82117977Y-69322643D01*
X82161851Y-69363843D01*
X82164693Y-69366598D01*
X82184430Y-69386335D01*
X82187627Y-69388815D01*
X82196647Y-69396518D01*
X82228879Y-69426786D01*
X82235825Y-69430605D01*
X82235828Y-69430607D01*
X82246634Y-69436548D01*
X82263153Y-69447399D01*
X82279159Y-69459814D01*
X82286428Y-69462959D01*
X82286432Y-69462962D01*
X82319737Y-69477374D01*
X82330387Y-69482591D01*
X82369140Y-69503895D01*
X82376815Y-69505866D01*
X82376816Y-69505866D01*
X82388762Y-69508933D01*
X82407467Y-69515337D01*
X82426055Y-69523381D01*
X82433878Y-69524620D01*
X82433888Y-69524623D01*
X82469724Y-69530299D01*
X82481344Y-69532705D01*
X82516489Y-69541728D01*
X82524170Y-69543700D01*
X82544424Y-69543700D01*
X82564134Y-69545251D01*
X82584143Y-69548420D01*
X82592035Y-69547674D01*
X82628161Y-69544259D01*
X82640019Y-69543700D01*
X82806000Y-69543700D01*
X82874121Y-69563702D01*
X82920614Y-69617358D01*
X82932000Y-69669700D01*
X82932000Y-70085885D01*
X82936475Y-70101124D01*
X82937865Y-70102329D01*
X82945548Y-70104000D01*
X87229884Y-70104000D01*
X87245123Y-70099525D01*
X87246328Y-70098135D01*
X87247999Y-70090452D01*
X87247999Y-69463331D01*
X87247629Y-69456510D01*
X87242105Y-69405648D01*
X87238479Y-69390396D01*
X87193324Y-69269946D01*
X87184787Y-69254352D01*
X87124766Y-69174266D01*
X87099919Y-69107760D01*
X87114972Y-69038377D01*
X87136498Y-69009607D01*
X87387253Y-68758852D01*
X87395539Y-68751312D01*
X87402018Y-68747200D01*
X87448644Y-68697548D01*
X87451398Y-68694707D01*
X87471135Y-68674970D01*
X87473615Y-68671773D01*
X87481320Y-68662751D01*
X87506159Y-68636300D01*
X87511586Y-68630521D01*
X87515405Y-68623575D01*
X87515407Y-68623572D01*
X87521348Y-68612766D01*
X87532199Y-68596247D01*
X87539758Y-68586501D01*
X87544614Y-68580241D01*
X87547759Y-68572972D01*
X87547762Y-68572968D01*
X87562174Y-68539663D01*
X87567391Y-68529013D01*
X87588695Y-68490260D01*
X87593733Y-68470637D01*
X87600137Y-68451934D01*
X87605033Y-68440620D01*
X87605033Y-68440619D01*
X87608181Y-68433345D01*
X87609420Y-68425522D01*
X87609423Y-68425512D01*
X87615099Y-68389676D01*
X87617505Y-68378056D01*
X87626528Y-68342911D01*
X87626528Y-68342910D01*
X87628500Y-68335230D01*
X87628500Y-68314976D01*
X87630051Y-68295265D01*
X87631980Y-68283086D01*
X87633220Y-68275257D01*
X87629059Y-68231238D01*
X87628500Y-68219381D01*
X87628500Y-67624594D01*
X87648502Y-67556473D01*
X87665405Y-67535499D01*
X87844057Y-67356847D01*
X87906369Y-67322821D01*
X87977184Y-67327886D01*
X88034020Y-67370433D01*
X88058831Y-67436953D01*
X88052985Y-67484878D01*
X88006458Y-67628072D01*
X87986496Y-67818000D01*
X87987186Y-67824565D01*
X88001316Y-67959000D01*
X88006458Y-68007928D01*
X88065473Y-68189556D01*
X88068776Y-68195278D01*
X88068777Y-68195279D01*
X88089539Y-68231239D01*
X88160960Y-68354944D01*
X88165375Y-68359847D01*
X88218704Y-68419075D01*
X88249421Y-68483083D01*
X88240656Y-68553537D01*
X88203330Y-68602131D01*
X88202191Y-68603034D01*
X88195969Y-68606884D01*
X88190801Y-68612061D01*
X88078242Y-68724816D01*
X88078238Y-68724821D01*
X88073071Y-68729997D01*
X88069231Y-68736227D01*
X88069230Y-68736228D01*
X88036710Y-68788986D01*
X87981791Y-68878080D01*
X87927026Y-69043191D01*
X87916500Y-69145928D01*
X87916500Y-69845072D01*
X87927293Y-69949093D01*
X87982346Y-70114107D01*
X88073884Y-70262031D01*
X88079065Y-70267203D01*
X88081139Y-70269273D01*
X88082105Y-70271038D01*
X88083613Y-70272941D01*
X88083287Y-70273199D01*
X88115219Y-70331554D01*
X88110218Y-70402375D01*
X88081292Y-70447470D01*
X88078636Y-70450131D01*
X88069625Y-70461540D01*
X87986088Y-70597063D01*
X87979944Y-70610241D01*
X87929685Y-70761766D01*
X87926819Y-70775132D01*
X87917328Y-70867770D01*
X87917000Y-70874185D01*
X87917000Y-71060628D01*
X87896998Y-71128749D01*
X87843342Y-71175242D01*
X87773068Y-71185346D01*
X87708488Y-71155852D01*
X87697370Y-71144945D01*
X87681153Y-71126934D01*
X87526652Y-71014682D01*
X87520624Y-71011998D01*
X87520622Y-71011997D01*
X87358219Y-70939691D01*
X87358218Y-70939691D01*
X87352188Y-70937006D01*
X87345732Y-70935634D01*
X87339448Y-70933592D01*
X87340009Y-70931865D01*
X87285331Y-70902347D01*
X87251009Y-70840198D01*
X87248000Y-70812827D01*
X87248000Y-70630115D01*
X87243525Y-70614876D01*
X87242135Y-70613671D01*
X87234452Y-70612000D01*
X82950116Y-70612000D01*
X82934877Y-70616475D01*
X82933672Y-70617865D01*
X82932001Y-70625548D01*
X82932001Y-71252669D01*
X82932371Y-71259490D01*
X82937895Y-71310352D01*
X82941521Y-71325604D01*
X82986676Y-71446054D01*
X82995214Y-71461649D01*
X83071715Y-71563724D01*
X83084276Y-71576285D01*
X83156065Y-71630088D01*
X83198580Y-71686947D01*
X83206500Y-71730914D01*
X83206500Y-72166505D01*
X83186498Y-72234626D01*
X83169595Y-72255600D01*
X82981347Y-72443848D01*
X82973061Y-72451388D01*
X82966582Y-72455500D01*
X82961157Y-72461277D01*
X82919957Y-72505151D01*
X82917202Y-72507993D01*
X82897465Y-72527730D01*
X82894985Y-72530927D01*
X82887282Y-72539947D01*
X82857014Y-72572179D01*
X82853195Y-72579125D01*
X82853193Y-72579128D01*
X82847252Y-72589934D01*
X82836401Y-72606453D01*
X82823986Y-72622459D01*
X82820841Y-72629728D01*
X82820838Y-72629732D01*
X82806426Y-72663037D01*
X82801209Y-72673687D01*
X82779905Y-72712440D01*
X82777934Y-72720115D01*
X82777934Y-72720116D01*
X82774867Y-72732062D01*
X82768463Y-72750766D01*
X82760419Y-72769355D01*
X82759180Y-72777178D01*
X82759177Y-72777188D01*
X82753501Y-72813024D01*
X82751095Y-72824644D01*
X82740100Y-72867470D01*
X82740100Y-72887724D01*
X82738549Y-72907434D01*
X82735380Y-72927443D01*
X82736126Y-72935335D01*
X82739541Y-72971461D01*
X82740100Y-72983319D01*
X82740100Y-75523806D01*
X82720098Y-75591927D01*
X82703195Y-75612901D01*
X81426728Y-76889368D01*
X81364416Y-76923394D01*
X81293601Y-76918329D01*
X81236765Y-76875782D01*
X81222083Y-76850514D01*
X81213416Y-76830581D01*
X81213413Y-76830576D01*
X81211354Y-76825840D01*
X81198838Y-76806492D01*
X81092822Y-76642617D01*
X81092820Y-76642614D01*
X81090014Y-76638277D01*
X80939670Y-76473051D01*
X80935619Y-76469852D01*
X80935615Y-76469848D01*
X80768414Y-76337800D01*
X80768410Y-76337798D01*
X80764359Y-76334598D01*
X80737187Y-76319598D01*
X80710039Y-76304612D01*
X80568789Y-76226638D01*
X80563920Y-76224914D01*
X80563916Y-76224912D01*
X80363087Y-76153795D01*
X80363083Y-76153794D01*
X80358212Y-76152069D01*
X80353119Y-76151162D01*
X80353116Y-76151161D01*
X80143373Y-76113800D01*
X80143367Y-76113799D01*
X80138284Y-76112894D01*
X80064452Y-76111992D01*
X79920081Y-76110228D01*
X79920079Y-76110228D01*
X79914911Y-76110165D01*
X79694091Y-76143955D01*
X79481756Y-76213357D01*
X79283607Y-76316507D01*
X79279474Y-76319610D01*
X79279471Y-76319612D01*
X79109100Y-76447530D01*
X79104965Y-76450635D01*
X79071358Y-76485803D01*
X78961751Y-76600500D01*
X78950629Y-76612138D01*
X78824743Y-76796680D01*
X78809007Y-76830581D01*
X78735334Y-76989297D01*
X78730688Y-76999305D01*
X78670989Y-77214570D01*
X78647251Y-77436695D01*
X78660110Y-77659715D01*
X78661247Y-77664761D01*
X78661248Y-77664767D01*
X78677739Y-77737939D01*
X78709222Y-77877639D01*
X78758484Y-77998958D01*
X78777058Y-78044699D01*
X78793266Y-78084616D01*
X78909987Y-78275088D01*
X79056250Y-78443938D01*
X79228126Y-78586632D01*
X79275776Y-78614476D01*
X79301445Y-78629476D01*
X79350169Y-78681114D01*
X79363240Y-78750897D01*
X79336509Y-78816669D01*
X79296055Y-78850027D01*
X79283607Y-78856507D01*
X79279474Y-78859610D01*
X79279471Y-78859612D01*
X79109100Y-78987530D01*
X79104965Y-78990635D01*
X79101393Y-78994373D01*
X78968535Y-79133401D01*
X78950629Y-79152138D01*
X78824743Y-79336680D01*
X78809003Y-79370590D01*
X78735334Y-79529297D01*
X78730688Y-79539305D01*
X78670989Y-79754570D01*
X78647251Y-79976695D01*
X78647548Y-79981848D01*
X78647548Y-79981851D01*
X78653011Y-80076590D01*
X78660110Y-80199715D01*
X78661247Y-80204761D01*
X78661248Y-80204767D01*
X78677739Y-80277939D01*
X78709222Y-80417639D01*
X78793266Y-80624616D01*
X78909987Y-80815088D01*
X79056250Y-80983938D01*
X79060225Y-80987238D01*
X79060231Y-80987244D01*
X79065425Y-80991556D01*
X79105059Y-81050460D01*
X79106555Y-81121441D01*
X79069439Y-81181962D01*
X79029168Y-81206480D01*
X78921946Y-81246676D01*
X78906351Y-81255214D01*
X78804276Y-81331715D01*
X78791715Y-81344276D01*
X78715214Y-81446351D01*
X78706676Y-81461946D01*
X78661522Y-81582394D01*
X78657895Y-81597649D01*
X78652369Y-81648514D01*
X78652000Y-81655328D01*
X78652000Y-82277885D01*
X78656475Y-82293124D01*
X78657865Y-82294329D01*
X78665548Y-82296000D01*
X81349884Y-82296000D01*
X81365123Y-82291525D01*
X81366328Y-82290135D01*
X81367999Y-82282452D01*
X81367999Y-81655331D01*
X81367629Y-81648510D01*
X81362105Y-81597648D01*
X81358479Y-81582396D01*
X81313324Y-81461946D01*
X81304786Y-81446351D01*
X81228285Y-81344276D01*
X81215724Y-81331715D01*
X81113649Y-81255214D01*
X81098054Y-81246676D01*
X80987813Y-81205348D01*
X80931049Y-81162706D01*
X80906349Y-81096145D01*
X80921557Y-81026796D01*
X80943104Y-80998115D01*
X81044430Y-80897144D01*
X81044440Y-80897132D01*
X81048096Y-80893489D01*
X81061891Y-80874292D01*
X81175435Y-80716277D01*
X81178453Y-80712077D01*
X81185867Y-80697077D01*
X81275136Y-80516453D01*
X81275137Y-80516451D01*
X81277430Y-80511811D01*
X81342370Y-80298069D01*
X81371529Y-80076590D01*
X81371611Y-80073240D01*
X81373074Y-80013365D01*
X81373074Y-80013361D01*
X81373156Y-80010000D01*
X81354852Y-79787361D01*
X81300431Y-79570702D01*
X81211354Y-79365840D01*
X81180017Y-79317401D01*
X81092825Y-79182621D01*
X81092820Y-79182615D01*
X81090014Y-79178277D01*
X81087345Y-79175344D01*
X81061756Y-79109496D01*
X81075900Y-79039922D01*
X81098206Y-79009698D01*
X83043405Y-77064500D01*
X83105717Y-77030474D01*
X83176533Y-77035539D01*
X83233368Y-77078086D01*
X83258179Y-77144606D01*
X83258500Y-77153595D01*
X83258500Y-77910233D01*
X83257973Y-77921416D01*
X83256298Y-77928909D01*
X83256547Y-77936835D01*
X83256547Y-77936836D01*
X83258438Y-77996986D01*
X83258500Y-78000945D01*
X83258500Y-78028856D01*
X83258997Y-78032790D01*
X83258997Y-78032791D01*
X83259005Y-78032856D01*
X83259938Y-78044693D01*
X83261327Y-78088889D01*
X83266978Y-78108339D01*
X83270987Y-78127700D01*
X83273526Y-78147797D01*
X83276445Y-78155168D01*
X83276445Y-78155170D01*
X83289804Y-78188912D01*
X83293649Y-78200142D01*
X83305982Y-78242593D01*
X83310015Y-78249412D01*
X83310017Y-78249417D01*
X83316293Y-78260028D01*
X83324988Y-78277776D01*
X83332448Y-78296617D01*
X83337110Y-78303033D01*
X83337110Y-78303034D01*
X83358436Y-78332387D01*
X83364952Y-78342307D01*
X83387458Y-78380362D01*
X83401779Y-78394683D01*
X83414619Y-78409716D01*
X83426528Y-78426107D01*
X83432634Y-78431158D01*
X83460605Y-78454298D01*
X83469384Y-78462288D01*
X84002862Y-78995766D01*
X84036888Y-79058078D01*
X84031823Y-79128893D01*
X84017859Y-79155858D01*
X83904743Y-79321680D01*
X83810688Y-79524305D01*
X83750989Y-79739570D01*
X83727251Y-79961695D01*
X83727548Y-79966848D01*
X83727548Y-79966851D01*
X83733876Y-80076590D01*
X83740110Y-80184715D01*
X83741247Y-80189761D01*
X83741248Y-80189767D01*
X83743490Y-80199715D01*
X83789222Y-80402639D01*
X83873266Y-80609616D01*
X83989987Y-80800088D01*
X84136250Y-80968938D01*
X84140225Y-80972238D01*
X84140231Y-80972244D01*
X84145425Y-80976556D01*
X84185059Y-81035460D01*
X84186555Y-81106441D01*
X84149439Y-81166962D01*
X84109168Y-81191480D01*
X84001946Y-81231676D01*
X83986351Y-81240214D01*
X83884276Y-81316715D01*
X83871715Y-81329276D01*
X83795214Y-81431351D01*
X83786676Y-81446946D01*
X83741522Y-81567394D01*
X83737895Y-81582649D01*
X83732369Y-81633514D01*
X83732000Y-81640328D01*
X83732000Y-82262885D01*
X83736475Y-82278124D01*
X83737865Y-82279329D01*
X83745548Y-82281000D01*
X86429884Y-82281000D01*
X86445123Y-82276525D01*
X86446328Y-82275135D01*
X86447999Y-82267452D01*
X86447999Y-81640331D01*
X86447629Y-81633510D01*
X86442105Y-81582648D01*
X86438479Y-81567396D01*
X86393324Y-81446946D01*
X86384786Y-81431351D01*
X86308285Y-81329276D01*
X86295724Y-81316715D01*
X86193649Y-81240214D01*
X86178054Y-81231676D01*
X86067813Y-81190348D01*
X86011049Y-81147706D01*
X85986349Y-81081145D01*
X86001557Y-81011796D01*
X86023104Y-80983115D01*
X86124430Y-80882144D01*
X86124440Y-80882132D01*
X86128096Y-80878489D01*
X86187594Y-80795689D01*
X86255435Y-80701277D01*
X86258453Y-80697077D01*
X86347723Y-80516453D01*
X86355136Y-80501453D01*
X86355137Y-80501451D01*
X86357430Y-80496811D01*
X86389900Y-80389940D01*
X86420865Y-80288023D01*
X86420865Y-80288021D01*
X86422370Y-80283069D01*
X86451529Y-80061590D01*
X86452790Y-80010000D01*
X86453074Y-79998365D01*
X86453074Y-79998361D01*
X86453156Y-79995000D01*
X86450418Y-79961695D01*
X88807251Y-79961695D01*
X88807548Y-79966848D01*
X88807548Y-79966851D01*
X88813876Y-80076590D01*
X88820110Y-80184715D01*
X88821247Y-80189761D01*
X88821248Y-80189767D01*
X88823490Y-80199715D01*
X88869222Y-80402639D01*
X88953266Y-80609616D01*
X89069987Y-80800088D01*
X89216250Y-80968938D01*
X89220225Y-80972238D01*
X89220231Y-80972244D01*
X89225425Y-80976556D01*
X89265059Y-81035460D01*
X89266555Y-81106441D01*
X89229439Y-81166962D01*
X89189168Y-81191480D01*
X89081946Y-81231676D01*
X89066351Y-81240214D01*
X88964276Y-81316715D01*
X88951715Y-81329276D01*
X88875214Y-81431351D01*
X88866676Y-81446946D01*
X88821522Y-81567394D01*
X88817895Y-81582649D01*
X88812369Y-81633514D01*
X88812000Y-81640328D01*
X88812000Y-82262885D01*
X88816475Y-82278124D01*
X88817865Y-82279329D01*
X88825548Y-82281000D01*
X91509884Y-82281000D01*
X91525123Y-82276525D01*
X91526328Y-82275135D01*
X91527999Y-82267452D01*
X91527999Y-81640331D01*
X91527629Y-81633510D01*
X91522105Y-81582648D01*
X91518479Y-81567396D01*
X91473324Y-81446946D01*
X91464786Y-81431351D01*
X91388285Y-81329276D01*
X91375724Y-81316715D01*
X91273649Y-81240214D01*
X91258054Y-81231676D01*
X91147813Y-81190348D01*
X91091049Y-81147706D01*
X91066349Y-81081145D01*
X91081557Y-81011796D01*
X91103104Y-80983115D01*
X91204430Y-80882144D01*
X91204440Y-80882132D01*
X91208096Y-80878489D01*
X91267594Y-80795689D01*
X91335435Y-80701277D01*
X91338453Y-80697077D01*
X91427723Y-80516453D01*
X91435136Y-80501453D01*
X91435137Y-80501451D01*
X91437430Y-80496811D01*
X91469900Y-80389940D01*
X91500865Y-80288023D01*
X91500865Y-80288021D01*
X91502370Y-80283069D01*
X91531529Y-80061590D01*
X91532790Y-80010000D01*
X91533074Y-79998365D01*
X91533074Y-79998361D01*
X91533156Y-79995000D01*
X91514852Y-79772361D01*
X91460431Y-79555702D01*
X91371354Y-79350840D01*
X91250014Y-79163277D01*
X91099670Y-78998051D01*
X91095619Y-78994852D01*
X91095615Y-78994848D01*
X90928414Y-78862800D01*
X90928410Y-78862798D01*
X90924359Y-78859598D01*
X90883053Y-78836796D01*
X90833084Y-78786364D01*
X90818312Y-78716921D01*
X90843428Y-78650516D01*
X90870780Y-78623909D01*
X90927674Y-78583327D01*
X91049860Y-78496173D01*
X91208096Y-78338489D01*
X91243481Y-78289246D01*
X91335435Y-78161277D01*
X91338453Y-78157077D01*
X91343040Y-78147797D01*
X91435136Y-77961453D01*
X91435137Y-77961451D01*
X91437430Y-77956811D01*
X91502370Y-77743069D01*
X91531529Y-77521590D01*
X91533156Y-77455000D01*
X91514852Y-77232361D01*
X91460431Y-77015702D01*
X91371354Y-76810840D01*
X91250014Y-76623277D01*
X91099670Y-76458051D01*
X91095619Y-76454852D01*
X91095615Y-76454848D01*
X90928414Y-76322800D01*
X90928410Y-76322798D01*
X90924359Y-76319598D01*
X90728789Y-76211638D01*
X90723920Y-76209914D01*
X90723916Y-76209912D01*
X90523087Y-76138795D01*
X90523083Y-76138794D01*
X90518212Y-76137069D01*
X90513119Y-76136162D01*
X90513116Y-76136161D01*
X90303373Y-76098800D01*
X90303367Y-76098799D01*
X90298284Y-76097894D01*
X90224452Y-76096992D01*
X90080081Y-76095228D01*
X90080079Y-76095228D01*
X90074911Y-76095165D01*
X89854091Y-76128955D01*
X89641756Y-76198357D01*
X89443607Y-76301507D01*
X89439474Y-76304610D01*
X89439471Y-76304612D01*
X89269100Y-76432530D01*
X89264965Y-76435635D01*
X89110629Y-76597138D01*
X88984743Y-76781680D01*
X88890688Y-76984305D01*
X88830989Y-77199570D01*
X88807251Y-77421695D01*
X88807548Y-77426848D01*
X88807548Y-77426851D01*
X88813011Y-77521590D01*
X88820110Y-77644715D01*
X88821247Y-77649761D01*
X88821248Y-77649767D01*
X88823490Y-77659715D01*
X88869222Y-77862639D01*
X88953266Y-78069616D01*
X88988860Y-78127700D01*
X89054603Y-78234983D01*
X89069987Y-78260088D01*
X89216250Y-78428938D01*
X89388126Y-78571632D01*
X89408140Y-78583327D01*
X89461445Y-78614476D01*
X89510169Y-78666114D01*
X89523240Y-78735897D01*
X89496509Y-78801669D01*
X89456055Y-78835027D01*
X89443607Y-78841507D01*
X89439474Y-78844610D01*
X89439471Y-78844612D01*
X89419493Y-78859612D01*
X89264965Y-78975635D01*
X89110629Y-79137138D01*
X89107715Y-79141410D01*
X89107714Y-79141411D01*
X89022556Y-79266249D01*
X88984743Y-79321680D01*
X88890688Y-79524305D01*
X88830989Y-79739570D01*
X88807251Y-79961695D01*
X86450418Y-79961695D01*
X86434852Y-79772361D01*
X86380431Y-79555702D01*
X86291354Y-79350840D01*
X86170014Y-79163277D01*
X86019670Y-78998051D01*
X86015619Y-78994852D01*
X86015615Y-78994848D01*
X85848414Y-78862800D01*
X85848410Y-78862798D01*
X85844359Y-78859598D01*
X85803053Y-78836796D01*
X85753084Y-78786364D01*
X85738312Y-78716921D01*
X85763428Y-78650516D01*
X85790780Y-78623909D01*
X85847674Y-78583327D01*
X85969860Y-78496173D01*
X86128096Y-78338489D01*
X86163481Y-78289246D01*
X86255435Y-78161277D01*
X86258453Y-78157077D01*
X86263040Y-78147797D01*
X86355136Y-77961453D01*
X86355137Y-77961451D01*
X86357430Y-77956811D01*
X86422370Y-77743069D01*
X86451529Y-77521590D01*
X86453156Y-77455000D01*
X86434852Y-77232361D01*
X86380431Y-77015702D01*
X86291354Y-76810840D01*
X86170014Y-76623277D01*
X86019670Y-76458051D01*
X86015619Y-76454852D01*
X86015615Y-76454848D01*
X85848414Y-76322800D01*
X85848410Y-76322798D01*
X85844359Y-76319598D01*
X85648789Y-76211638D01*
X85643920Y-76209914D01*
X85643916Y-76209912D01*
X85443087Y-76138795D01*
X85443083Y-76138794D01*
X85438212Y-76137069D01*
X85433119Y-76136162D01*
X85433116Y-76136161D01*
X85223373Y-76098800D01*
X85223367Y-76098799D01*
X85218284Y-76097894D01*
X85144452Y-76096992D01*
X85000081Y-76095228D01*
X85000079Y-76095228D01*
X84994911Y-76095165D01*
X84774091Y-76128955D01*
X84743986Y-76138795D01*
X84690645Y-76156229D01*
X84619681Y-76158380D01*
X84558819Y-76121824D01*
X84527383Y-76058166D01*
X84525500Y-76036464D01*
X84525500Y-74469245D01*
X84545502Y-74401124D01*
X84599158Y-74354631D01*
X84669432Y-74344527D01*
X84677697Y-74345998D01*
X84738056Y-74358828D01*
X84738061Y-74358828D01*
X84744513Y-74360200D01*
X84935487Y-74360200D01*
X84941939Y-74358828D01*
X84941944Y-74358828D01*
X85028888Y-74340347D01*
X85122288Y-74320494D01*
X85154501Y-74306152D01*
X85290722Y-74245503D01*
X85290724Y-74245502D01*
X85296752Y-74242818D01*
X85451253Y-74130566D01*
X85579040Y-73988644D01*
X85674527Y-73823256D01*
X85712833Y-73705363D01*
X85752907Y-73646758D01*
X85818304Y-73619121D01*
X85832666Y-73618300D01*
X89138933Y-73618300D01*
X89150116Y-73618827D01*
X89157609Y-73620502D01*
X89165535Y-73620253D01*
X89165536Y-73620253D01*
X89225686Y-73618362D01*
X89229645Y-73618300D01*
X89257556Y-73618300D01*
X89261491Y-73617803D01*
X89261556Y-73617795D01*
X89273393Y-73616862D01*
X89305651Y-73615848D01*
X89309670Y-73615722D01*
X89317589Y-73615473D01*
X89337043Y-73609821D01*
X89356400Y-73605813D01*
X89368630Y-73604268D01*
X89368631Y-73604268D01*
X89376497Y-73603274D01*
X89383868Y-73600355D01*
X89383870Y-73600355D01*
X89417612Y-73586996D01*
X89428842Y-73583151D01*
X89463683Y-73573029D01*
X89463684Y-73573029D01*
X89471293Y-73570818D01*
X89478112Y-73566785D01*
X89478117Y-73566783D01*
X89488728Y-73560507D01*
X89506476Y-73551812D01*
X89525317Y-73544352D01*
X89561087Y-73518364D01*
X89571007Y-73511848D01*
X89602235Y-73493380D01*
X89602238Y-73493378D01*
X89609062Y-73489342D01*
X89623383Y-73475021D01*
X89638417Y-73462180D01*
X89648394Y-73454931D01*
X89654807Y-73450272D01*
X89682998Y-73416195D01*
X89690988Y-73407416D01*
X90794999Y-72303405D01*
X90857311Y-72269379D01*
X90884094Y-72266500D01*
X91219072Y-72266500D01*
X91222318Y-72266163D01*
X91222322Y-72266163D01*
X91316235Y-72256419D01*
X91316239Y-72256418D01*
X91323093Y-72255707D01*
X91329629Y-72253526D01*
X91329631Y-72253526D01*
X91481159Y-72202972D01*
X91488107Y-72200654D01*
X91636031Y-72109116D01*
X91641204Y-72103934D01*
X91753758Y-71991184D01*
X91753762Y-71991179D01*
X91758929Y-71986003D01*
X91762770Y-71979772D01*
X91846369Y-71844150D01*
X91846370Y-71844148D01*
X91850209Y-71837920D01*
X91904974Y-71672809D01*
X91915500Y-71570072D01*
X91915500Y-71366994D01*
X91935502Y-71298873D01*
X91952405Y-71277899D01*
X93965547Y-69264757D01*
X93973837Y-69257213D01*
X93980318Y-69253100D01*
X94026959Y-69203432D01*
X94029713Y-69200591D01*
X94049435Y-69180869D01*
X94051912Y-69177676D01*
X94059617Y-69168655D01*
X94077937Y-69149146D01*
X94089886Y-69136421D01*
X94093707Y-69129471D01*
X94099646Y-69118668D01*
X94110502Y-69102141D01*
X94118057Y-69092402D01*
X94118058Y-69092400D01*
X94122914Y-69086140D01*
X94140474Y-69045560D01*
X94145691Y-69034912D01*
X94163175Y-69003109D01*
X94163176Y-69003107D01*
X94166995Y-68996160D01*
X94172033Y-68976537D01*
X94178437Y-68957834D01*
X94183333Y-68946520D01*
X94183333Y-68946519D01*
X94186481Y-68939245D01*
X94187720Y-68931422D01*
X94187723Y-68931412D01*
X94193399Y-68895576D01*
X94195805Y-68883956D01*
X94204828Y-68848811D01*
X94204828Y-68848810D01*
X94206800Y-68841130D01*
X94206800Y-68820876D01*
X94208351Y-68801165D01*
X94210280Y-68788986D01*
X94211520Y-68781157D01*
X94207359Y-68737138D01*
X94206800Y-68725281D01*
X94206800Y-43063267D01*
X94207327Y-43052084D01*
X94209002Y-43044591D01*
X94206862Y-42976500D01*
X94206800Y-42972543D01*
X94206800Y-42944644D01*
X94206296Y-42940653D01*
X94205363Y-42928811D01*
X94204223Y-42892536D01*
X94203974Y-42884611D01*
X94201762Y-42876997D01*
X94201761Y-42876992D01*
X94198323Y-42865159D01*
X94194312Y-42845795D01*
X94192767Y-42833564D01*
X94191774Y-42825703D01*
X94188857Y-42818336D01*
X94188856Y-42818331D01*
X94175498Y-42784592D01*
X94171654Y-42773365D01*
X94161530Y-42738522D01*
X94159318Y-42730907D01*
X94149007Y-42713472D01*
X94140312Y-42695724D01*
X94132852Y-42676883D01*
X94106864Y-42641113D01*
X94100348Y-42631193D01*
X94081880Y-42599965D01*
X94081878Y-42599962D01*
X94077842Y-42593138D01*
X94063521Y-42578817D01*
X94050680Y-42563783D01*
X94038772Y-42547393D01*
X94004695Y-42519202D01*
X93995916Y-42511212D01*
X92646852Y-41162147D01*
X92639312Y-41153861D01*
X92635200Y-41147382D01*
X92585548Y-41100756D01*
X92582707Y-41098002D01*
X92562970Y-41078265D01*
X92559773Y-41075785D01*
X92550751Y-41068080D01*
X92546597Y-41064179D01*
X92518521Y-41037814D01*
X92511575Y-41033995D01*
X92511572Y-41033993D01*
X92500766Y-41028052D01*
X92484247Y-41017201D01*
X92483783Y-41016841D01*
X92468241Y-41004786D01*
X92460972Y-41001641D01*
X92460968Y-41001638D01*
X92427663Y-40987226D01*
X92417013Y-40982009D01*
X92378260Y-40960705D01*
X92358637Y-40955667D01*
X92339934Y-40949263D01*
X92328620Y-40944367D01*
X92328619Y-40944367D01*
X92321345Y-40941219D01*
X92313522Y-40939980D01*
X92313512Y-40939977D01*
X92277676Y-40934301D01*
X92266056Y-40931895D01*
X92230911Y-40922872D01*
X92230910Y-40922872D01*
X92223230Y-40920900D01*
X92202976Y-40920900D01*
X92183265Y-40919349D01*
X92171086Y-40917420D01*
X92163257Y-40916180D01*
X92133986Y-40918947D01*
X92119239Y-40920341D01*
X92107381Y-40920900D01*
X88872268Y-40920900D01*
X88861085Y-40920373D01*
X88853592Y-40918698D01*
X88845666Y-40918947D01*
X88845665Y-40918947D01*
X88785502Y-40920838D01*
X88781544Y-40920900D01*
X88753644Y-40920900D01*
X88749654Y-40921404D01*
X88737820Y-40922336D01*
X88693611Y-40923726D01*
X88685995Y-40925939D01*
X88685993Y-40925939D01*
X88674152Y-40929379D01*
X88654793Y-40933388D01*
X88653483Y-40933554D01*
X88634703Y-40935926D01*
X88627337Y-40938842D01*
X88627331Y-40938844D01*
X88593598Y-40952200D01*
X88582368Y-40956045D01*
X88566328Y-40960705D01*
X88539907Y-40968381D01*
X88533084Y-40972416D01*
X88522466Y-40978695D01*
X88504713Y-40987392D01*
X88497068Y-40990419D01*
X88485883Y-40994848D01*
X88472205Y-41004786D01*
X88450112Y-41020837D01*
X88440195Y-41027351D01*
X88402138Y-41049858D01*
X88387817Y-41064179D01*
X88372784Y-41077019D01*
X88356393Y-41088928D01*
X88347717Y-41099416D01*
X88328202Y-41123005D01*
X88320222Y-41131774D01*
X87357330Y-42094665D01*
X87295020Y-42128689D01*
X87224204Y-42123624D01*
X87190145Y-42104450D01*
X87118414Y-42047800D01*
X87118410Y-42047798D01*
X87114359Y-42044598D01*
X86918789Y-41936638D01*
X86913920Y-41934914D01*
X86913916Y-41934912D01*
X86713087Y-41863795D01*
X86713083Y-41863794D01*
X86708212Y-41862069D01*
X86703119Y-41861162D01*
X86703116Y-41861161D01*
X86493373Y-41823800D01*
X86493367Y-41823799D01*
X86488284Y-41822894D01*
X86414452Y-41821992D01*
X86270081Y-41820228D01*
X86270079Y-41820228D01*
X86264911Y-41820165D01*
X86044091Y-41853955D01*
X85831756Y-41923357D01*
X85633607Y-42026507D01*
X85629474Y-42029610D01*
X85629471Y-42029612D01*
X85464778Y-42153267D01*
X85454965Y-42160635D01*
X85300629Y-42322138D01*
X85193201Y-42479621D01*
X85138293Y-42524621D01*
X85067768Y-42532792D01*
X85004021Y-42501538D01*
X84983324Y-42477054D01*
X84902822Y-42352617D01*
X84902820Y-42352614D01*
X84900014Y-42348277D01*
X84749670Y-42183051D01*
X84745619Y-42179852D01*
X84745615Y-42179848D01*
X84578414Y-42047800D01*
X84578410Y-42047798D01*
X84574359Y-42044598D01*
X84378789Y-41936638D01*
X84373920Y-41934914D01*
X84373916Y-41934912D01*
X84173087Y-41863795D01*
X84173083Y-41863794D01*
X84168212Y-41862069D01*
X84163119Y-41861162D01*
X84163116Y-41861161D01*
X83953373Y-41823800D01*
X83953367Y-41823799D01*
X83948284Y-41822894D01*
X83874452Y-41821992D01*
X83730081Y-41820228D01*
X83730079Y-41820228D01*
X83724911Y-41820165D01*
X83504091Y-41853955D01*
X83291756Y-41923357D01*
X83093607Y-42026507D01*
X83089474Y-42029610D01*
X83089471Y-42029612D01*
X82957950Y-42128361D01*
X82891465Y-42153267D01*
X82822070Y-42138275D01*
X82793202Y-42116696D01*
X82288948Y-41612442D01*
X82281413Y-41604162D01*
X82277300Y-41597682D01*
X82227648Y-41551056D01*
X82224807Y-41548302D01*
X82205070Y-41528565D01*
X82201873Y-41526085D01*
X82192851Y-41518380D01*
X82179422Y-41505769D01*
X82160621Y-41488114D01*
X82153675Y-41484295D01*
X82153672Y-41484293D01*
X82142866Y-41478352D01*
X82126347Y-41467501D01*
X82125883Y-41467141D01*
X82110341Y-41455086D01*
X82103072Y-41451941D01*
X82103068Y-41451938D01*
X82069763Y-41437526D01*
X82059113Y-41432309D01*
X82020360Y-41411005D01*
X82000737Y-41405967D01*
X81982034Y-41399563D01*
X81970720Y-41394667D01*
X81970719Y-41394667D01*
X81963445Y-41391519D01*
X81955622Y-41390280D01*
X81955612Y-41390277D01*
X81919776Y-41384601D01*
X81908156Y-41382195D01*
X81873011Y-41373172D01*
X81873010Y-41373172D01*
X81865330Y-41371200D01*
X81845076Y-41371200D01*
X81825365Y-41369649D01*
X81813186Y-41367720D01*
X81805357Y-41366480D01*
X81776086Y-41369247D01*
X81761339Y-41370641D01*
X81749481Y-41371200D01*
X80801967Y-41371200D01*
X80790784Y-41370673D01*
X80783291Y-41368998D01*
X80775365Y-41369247D01*
X80775364Y-41369247D01*
X80715214Y-41371138D01*
X80711255Y-41371200D01*
X80683344Y-41371200D01*
X80679410Y-41371697D01*
X80679409Y-41371697D01*
X80679344Y-41371705D01*
X80667507Y-41372638D01*
X80635690Y-41373638D01*
X80631229Y-41373778D01*
X80623310Y-41374027D01*
X80605654Y-41379156D01*
X80603858Y-41379678D01*
X80584506Y-41383686D01*
X80577435Y-41384580D01*
X80564403Y-41386226D01*
X80557034Y-41389143D01*
X80557032Y-41389144D01*
X80523297Y-41402500D01*
X80512069Y-41406345D01*
X80469607Y-41418682D01*
X80462784Y-41422717D01*
X80462782Y-41422718D01*
X80452172Y-41428993D01*
X80434424Y-41437688D01*
X80415583Y-41445148D01*
X80409167Y-41449810D01*
X80409166Y-41449810D01*
X80379813Y-41471136D01*
X80369893Y-41477652D01*
X80338665Y-41496120D01*
X80338662Y-41496122D01*
X80331838Y-41500158D01*
X80317517Y-41514479D01*
X80302484Y-41527319D01*
X80286093Y-41539228D01*
X80281042Y-41545333D01*
X80281037Y-41545338D01*
X80257901Y-41573304D01*
X80249913Y-41582082D01*
X79737332Y-42094663D01*
X79675020Y-42128689D01*
X79604205Y-42123624D01*
X79570145Y-42104450D01*
X79498414Y-42047800D01*
X79498410Y-42047798D01*
X79494359Y-42044598D01*
X79298789Y-41936638D01*
X79293920Y-41934914D01*
X79293916Y-41934912D01*
X79093087Y-41863795D01*
X79093083Y-41863794D01*
X79088212Y-41862069D01*
X79083119Y-41861162D01*
X79083116Y-41861161D01*
X78873373Y-41823800D01*
X78873367Y-41823799D01*
X78868284Y-41822894D01*
X78794452Y-41821992D01*
X78650081Y-41820228D01*
X78650079Y-41820228D01*
X78644911Y-41820165D01*
X78424091Y-41853955D01*
X78211756Y-41923357D01*
X78013607Y-42026507D01*
X78009474Y-42029610D01*
X78009471Y-42029612D01*
X77844778Y-42153267D01*
X77834965Y-42160635D01*
X77680629Y-42322138D01*
X77554743Y-42506680D01*
X77538012Y-42542725D01*
X77475738Y-42676883D01*
X77460688Y-42709305D01*
X77400989Y-42924570D01*
X77377251Y-43146695D01*
X77390110Y-43369715D01*
X77391247Y-43374761D01*
X77391248Y-43374767D01*
X77400329Y-43415060D01*
X77439222Y-43587639D01*
X77523266Y-43794616D01*
X77639987Y-43985088D01*
X77786250Y-44153938D01*
X77790230Y-44157242D01*
X77794981Y-44161187D01*
X77834616Y-44220090D01*
X77836113Y-44291071D01*
X77798997Y-44351593D01*
X77758725Y-44376112D01*
X77670095Y-44409338D01*
X77643295Y-44419385D01*
X77526739Y-44506739D01*
X77439385Y-44623295D01*
X77388255Y-44759684D01*
X77381500Y-44821866D01*
X77381500Y-46618134D01*
X77388255Y-46680316D01*
X77439385Y-46816705D01*
X77526739Y-46933261D01*
X77643295Y-47020615D01*
X77779684Y-47071745D01*
X77841866Y-47078500D01*
X78041880Y-47078500D01*
X78110001Y-47098502D01*
X78156494Y-47152158D01*
X78157575Y-47154935D01*
X78159785Y-47159632D01*
X78162236Y-47167175D01*
X78166486Y-47173871D01*
X78166486Y-47173872D01*
X78166650Y-47174131D01*
X78177415Y-47195258D01*
X78177529Y-47195546D01*
X78177532Y-47195551D01*
X78180448Y-47202917D01*
X78185104Y-47209325D01*
X78185107Y-47209331D01*
X78213458Y-47248352D01*
X78217901Y-47254889D01*
X78248000Y-47302318D01*
X78253778Y-47307744D01*
X78253779Y-47307745D01*
X78254007Y-47307959D01*
X78269688Y-47325746D01*
X78274528Y-47332407D01*
X78280637Y-47337461D01*
X78280638Y-47337462D01*
X78317796Y-47368203D01*
X78323730Y-47373434D01*
X78358898Y-47406458D01*
X78358901Y-47406460D01*
X78364679Y-47411886D01*
X78371903Y-47415858D01*
X78391506Y-47429181D01*
X78391746Y-47429380D01*
X78391753Y-47429384D01*
X78397856Y-47434433D01*
X78437400Y-47453041D01*
X78448676Y-47458347D01*
X78455708Y-47461929D01*
X78504940Y-47488995D01*
X78512615Y-47490965D01*
X78512621Y-47490968D01*
X78512919Y-47491044D01*
X78535228Y-47499076D01*
X78535509Y-47499208D01*
X78535512Y-47499209D01*
X78542682Y-47502583D01*
X78550463Y-47504067D01*
X78550465Y-47504068D01*
X78555269Y-47504984D01*
X78620753Y-47539657D01*
X82557041Y-51475945D01*
X82591067Y-51538257D01*
X82586002Y-51609072D01*
X82543455Y-51665908D01*
X82476935Y-51690719D01*
X82467946Y-51691040D01*
X82158966Y-51691040D01*
X82096784Y-51697795D01*
X81960395Y-51748925D01*
X81843839Y-51836279D01*
X81756485Y-51952835D01*
X81705355Y-52089224D01*
X81698600Y-52151406D01*
X81698600Y-52304505D01*
X81678598Y-52372626D01*
X81624942Y-52419119D01*
X81554668Y-52429223D01*
X81490088Y-52399729D01*
X81483504Y-52393600D01*
X81021647Y-51931742D01*
X81014113Y-51923463D01*
X81010000Y-51916982D01*
X80960348Y-51870356D01*
X80957507Y-51867602D01*
X80937770Y-51847865D01*
X80934573Y-51845385D01*
X80925551Y-51837680D01*
X80899100Y-51812841D01*
X80893321Y-51807414D01*
X80886375Y-51803595D01*
X80886372Y-51803593D01*
X80875566Y-51797652D01*
X80859047Y-51786801D01*
X80858315Y-51786233D01*
X80843041Y-51774386D01*
X80835772Y-51771241D01*
X80835768Y-51771238D01*
X80802463Y-51756826D01*
X80791813Y-51751609D01*
X80753060Y-51730305D01*
X80733437Y-51725267D01*
X80714734Y-51718863D01*
X80703420Y-51713967D01*
X80703419Y-51713967D01*
X80696145Y-51710819D01*
X80688322Y-51709580D01*
X80688312Y-51709577D01*
X80652476Y-51703901D01*
X80640856Y-51701495D01*
X80605711Y-51692472D01*
X80605710Y-51692472D01*
X80598030Y-51690500D01*
X80577776Y-51690500D01*
X80558065Y-51688949D01*
X80545886Y-51687020D01*
X80538057Y-51685780D01*
X80530165Y-51686526D01*
X80494039Y-51689941D01*
X80482181Y-51690500D01*
X80350964Y-51690500D01*
X80282843Y-51670498D01*
X80243821Y-51630804D01*
X80237116Y-51619969D01*
X80222062Y-51604941D01*
X80119184Y-51502242D01*
X80119179Y-51502238D01*
X80114003Y-51497071D01*
X80091708Y-51483328D01*
X79972150Y-51409631D01*
X79972148Y-51409630D01*
X79965920Y-51405791D01*
X79800809Y-51351026D01*
X79793973Y-51350326D01*
X79793970Y-51350325D01*
X79742474Y-51345049D01*
X79698072Y-51340500D01*
X79098928Y-51340500D01*
X79095682Y-51340837D01*
X79095678Y-51340837D01*
X79001765Y-51350581D01*
X79001761Y-51350582D01*
X78994907Y-51351293D01*
X78988371Y-51353474D01*
X78988369Y-51353474D01*
X78891195Y-51385894D01*
X78829893Y-51406346D01*
X78681969Y-51497884D01*
X78676796Y-51503066D01*
X78575253Y-51604786D01*
X78512970Y-51638865D01*
X78442150Y-51633862D01*
X78397063Y-51604941D01*
X78294188Y-51502246D01*
X78294183Y-51502242D01*
X78289003Y-51497071D01*
X78266708Y-51483328D01*
X78147150Y-51409631D01*
X78147148Y-51409630D01*
X78140920Y-51405791D01*
X77975809Y-51351026D01*
X77968973Y-51350326D01*
X77968970Y-51350325D01*
X77917474Y-51345049D01*
X77873072Y-51340500D01*
X77273928Y-51340500D01*
X77270682Y-51340837D01*
X77270678Y-51340837D01*
X77176765Y-51350581D01*
X77176761Y-51350582D01*
X77169907Y-51351293D01*
X77163371Y-51353474D01*
X77163369Y-51353474D01*
X77066195Y-51385894D01*
X77004893Y-51406346D01*
X76856969Y-51497884D01*
X76851796Y-51503066D01*
X76739242Y-51615816D01*
X76739238Y-51615821D01*
X76734071Y-51620997D01*
X76730231Y-51627227D01*
X76730230Y-51627228D01*
X76650345Y-51756826D01*
X76642791Y-51769080D01*
X76588026Y-51934191D01*
X76587326Y-51941027D01*
X76587325Y-51941030D01*
X76586852Y-51945649D01*
X76577500Y-52036928D01*
X76577500Y-52611072D01*
X76577837Y-52614318D01*
X76577837Y-52614322D01*
X76585795Y-52691014D01*
X76588293Y-52715093D01*
X76590474Y-52721629D01*
X76590474Y-52721631D01*
X76634768Y-52854395D01*
X76643346Y-52880107D01*
X76734884Y-53028031D01*
X76740066Y-53033204D01*
X76852816Y-53145758D01*
X76852821Y-53145762D01*
X76857997Y-53150929D01*
X76864227Y-53154769D01*
X76864228Y-53154770D01*
X76990603Y-53232669D01*
X77038096Y-53285442D01*
X77049520Y-53355513D01*
X77021246Y-53420637D01*
X76990790Y-53447073D01*
X76856969Y-53529884D01*
X76851796Y-53535066D01*
X76739242Y-53647816D01*
X76739238Y-53647821D01*
X76734071Y-53652997D01*
X76730231Y-53659227D01*
X76730230Y-53659228D01*
X76672826Y-53752355D01*
X76642791Y-53801080D01*
X76588026Y-53966191D01*
X76577500Y-54068928D01*
X76577500Y-54643072D01*
X75438500Y-54643072D01*
X75438500Y-40004500D01*
X75458502Y-39936379D01*
X75512158Y-39889886D01*
X75564500Y-39878500D01*
X94615500Y-39878500D01*
X94683621Y-39898502D01*
G37*
G04 #@! TD.AperFunction*
G04 #@! TA.AperFunction,Conductor*
G36*
X82403621Y-63899502D02*
G01*
X82450114Y-63953158D01*
X82461500Y-64005500D01*
X82461500Y-64144134D01*
X82468255Y-64206316D01*
X82519385Y-64342705D01*
X82606739Y-64459261D01*
X82723295Y-64546615D01*
X82859684Y-64597745D01*
X82921866Y-64604500D01*
X84718134Y-64604500D01*
X84780316Y-64597745D01*
X84916705Y-64546615D01*
X85033261Y-64459261D01*
X85120615Y-64342705D01*
X85142799Y-64283529D01*
X85164598Y-64225382D01*
X85207240Y-64168618D01*
X85273802Y-64143918D01*
X85343150Y-64159126D01*
X85377817Y-64187114D01*
X85406250Y-64219938D01*
X85578126Y-64362632D01*
X85771000Y-64475338D01*
X85979692Y-64555030D01*
X85984760Y-64556061D01*
X85984763Y-64556062D01*
X86092017Y-64577883D01*
X86198597Y-64599567D01*
X86203772Y-64599757D01*
X86203774Y-64599757D01*
X86416673Y-64607564D01*
X86416677Y-64607564D01*
X86421837Y-64607753D01*
X86426957Y-64607097D01*
X86426959Y-64607097D01*
X86638288Y-64580025D01*
X86638289Y-64580025D01*
X86643416Y-64579368D01*
X86674651Y-64569997D01*
X86852429Y-64516661D01*
X86852434Y-64516659D01*
X86857384Y-64515174D01*
X87057994Y-64416896D01*
X87239860Y-64287173D01*
X87398096Y-64129489D01*
X87416392Y-64104028D01*
X87525435Y-63952277D01*
X87528453Y-63948077D01*
X87530746Y-63943437D01*
X87532446Y-63940608D01*
X87584674Y-63892518D01*
X87640451Y-63879500D01*
X88294000Y-63879500D01*
X88362121Y-63899502D01*
X88408614Y-63953158D01*
X88420000Y-64005500D01*
X88420000Y-64383733D01*
X88419473Y-64394916D01*
X88417798Y-64402409D01*
X88418047Y-64410335D01*
X88418047Y-64410336D01*
X88419938Y-64470486D01*
X88420000Y-64474445D01*
X88420000Y-64502356D01*
X88420497Y-64506290D01*
X88420497Y-64506291D01*
X88420505Y-64506356D01*
X88421438Y-64518193D01*
X88422827Y-64562389D01*
X88427760Y-64579368D01*
X88428478Y-64581839D01*
X88432487Y-64601200D01*
X88435026Y-64621297D01*
X88437945Y-64628668D01*
X88437945Y-64628670D01*
X88451304Y-64662412D01*
X88455149Y-64673642D01*
X88467482Y-64716093D01*
X88471515Y-64722912D01*
X88471517Y-64722917D01*
X88477793Y-64733528D01*
X88486488Y-64751276D01*
X88493948Y-64770117D01*
X88498610Y-64776533D01*
X88498610Y-64776534D01*
X88519936Y-64805887D01*
X88526452Y-64815807D01*
X88540643Y-64839802D01*
X88548958Y-64853862D01*
X88563279Y-64868183D01*
X88576119Y-64883216D01*
X88585615Y-64896285D01*
X88585616Y-64896288D01*
X88588028Y-64899607D01*
X88587493Y-64899996D01*
X88616901Y-64958119D01*
X88619000Y-64981024D01*
X88619000Y-65311072D01*
X88629793Y-65415093D01*
X88684846Y-65580107D01*
X88776384Y-65728031D01*
X88781566Y-65733204D01*
X88874852Y-65826327D01*
X88908931Y-65888609D01*
X88903928Y-65959429D01*
X88861431Y-66016302D01*
X88794933Y-66041171D01*
X88785834Y-66041500D01*
X87708768Y-66041500D01*
X87697585Y-66040973D01*
X87690092Y-66039298D01*
X87682166Y-66039547D01*
X87682165Y-66039547D01*
X87622002Y-66041438D01*
X87618044Y-66041500D01*
X87590144Y-66041500D01*
X87586154Y-66042004D01*
X87574320Y-66042936D01*
X87530111Y-66044326D01*
X87522495Y-66046539D01*
X87522493Y-66046539D01*
X87510652Y-66049979D01*
X87491293Y-66053988D01*
X87489983Y-66054154D01*
X87471203Y-66056526D01*
X87463837Y-66059442D01*
X87463831Y-66059444D01*
X87430098Y-66072800D01*
X87418868Y-66076645D01*
X87384017Y-66086770D01*
X87376407Y-66088981D01*
X87369584Y-66093016D01*
X87358966Y-66099295D01*
X87341213Y-66107992D01*
X87333568Y-66111019D01*
X87322383Y-66115448D01*
X87315968Y-66120109D01*
X87286612Y-66141437D01*
X87276695Y-66147951D01*
X87238638Y-66170458D01*
X87224317Y-66184779D01*
X87209284Y-66197619D01*
X87192893Y-66209528D01*
X87191479Y-66211238D01*
X87130395Y-66242142D01*
X87059773Y-66234855D01*
X87004302Y-66190545D01*
X86989368Y-66156353D01*
X86987707Y-66156907D01*
X86960376Y-66074986D01*
X86932654Y-65991893D01*
X86841116Y-65843969D01*
X86826062Y-65828941D01*
X86723184Y-65726242D01*
X86723179Y-65726238D01*
X86718003Y-65721071D01*
X86569920Y-65629791D01*
X86404809Y-65575026D01*
X86397973Y-65574326D01*
X86397970Y-65574325D01*
X86346474Y-65569049D01*
X86302072Y-65564500D01*
X85702928Y-65564500D01*
X85699682Y-65564837D01*
X85699678Y-65564837D01*
X85605765Y-65574581D01*
X85605761Y-65574582D01*
X85598907Y-65575293D01*
X85592371Y-65577474D01*
X85592369Y-65577474D01*
X85459605Y-65621768D01*
X85433893Y-65630346D01*
X85285969Y-65721884D01*
X85280796Y-65727066D01*
X85179253Y-65828786D01*
X85116970Y-65862865D01*
X85046150Y-65857862D01*
X85001063Y-65828941D01*
X84898188Y-65726246D01*
X84898183Y-65726242D01*
X84893003Y-65721071D01*
X84744920Y-65629791D01*
X84579809Y-65575026D01*
X84572973Y-65574326D01*
X84572970Y-65574325D01*
X84521474Y-65569049D01*
X84477072Y-65564500D01*
X83877928Y-65564500D01*
X83874682Y-65564837D01*
X83874678Y-65564837D01*
X83780765Y-65574581D01*
X83780761Y-65574582D01*
X83773907Y-65575293D01*
X83767371Y-65577474D01*
X83767369Y-65577474D01*
X83634605Y-65621768D01*
X83608893Y-65630346D01*
X83460969Y-65721884D01*
X83455796Y-65727066D01*
X83343242Y-65839816D01*
X83343238Y-65839821D01*
X83338071Y-65844997D01*
X83334231Y-65851227D01*
X83334230Y-65851228D01*
X83251364Y-65985662D01*
X83246791Y-65993080D01*
X83192026Y-66158191D01*
X83191326Y-66165027D01*
X83191325Y-66165030D01*
X83189302Y-66184779D01*
X83181500Y-66260928D01*
X83181500Y-66835072D01*
X83192293Y-66939093D01*
X83247346Y-67104107D01*
X83338884Y-67252031D01*
X83344066Y-67257204D01*
X83456816Y-67369758D01*
X83456821Y-67369762D01*
X83461997Y-67374929D01*
X83468227Y-67378769D01*
X83468228Y-67378770D01*
X83590452Y-67454110D01*
X83610080Y-67466209D01*
X83761947Y-67516581D01*
X83811375Y-67547079D01*
X84100901Y-67836605D01*
X84134927Y-67898917D01*
X84129862Y-67969732D01*
X84087315Y-68026568D01*
X84020795Y-68051379D01*
X84011806Y-68051700D01*
X83666866Y-68051700D01*
X83604684Y-68058455D01*
X83468295Y-68109585D01*
X83351739Y-68196939D01*
X83329759Y-68226267D01*
X83272900Y-68268780D01*
X83228934Y-68276700D01*
X82918794Y-68276700D01*
X82850673Y-68256698D01*
X82829699Y-68239795D01*
X80812500Y-66222595D01*
X80778474Y-66160283D01*
X80783539Y-66089467D01*
X80826086Y-66032632D01*
X80892606Y-66007821D01*
X80901595Y-66007500D01*
X80968072Y-66007500D01*
X80971318Y-66007163D01*
X80971322Y-66007163D01*
X81065235Y-65997419D01*
X81065239Y-65997418D01*
X81072093Y-65996707D01*
X81078629Y-65994526D01*
X81078631Y-65994526D01*
X81211395Y-65950232D01*
X81237107Y-65941654D01*
X81385031Y-65850116D01*
X81406324Y-65828786D01*
X81502758Y-65732184D01*
X81502762Y-65732179D01*
X81507929Y-65727003D01*
X81565485Y-65633631D01*
X81595369Y-65585150D01*
X81595370Y-65585148D01*
X81599209Y-65578920D01*
X81653974Y-65413809D01*
X81664500Y-65311072D01*
X81664500Y-64943197D01*
X81678489Y-64892070D01*
X81676114Y-64891042D01*
X81693674Y-64850463D01*
X81698891Y-64839813D01*
X81720195Y-64801060D01*
X81725233Y-64781437D01*
X81731637Y-64762734D01*
X81736533Y-64751420D01*
X81736533Y-64751419D01*
X81739681Y-64744145D01*
X81740920Y-64736322D01*
X81740923Y-64736312D01*
X81746599Y-64700476D01*
X81749005Y-64688856D01*
X81758028Y-64653711D01*
X81758028Y-64653710D01*
X81760000Y-64646030D01*
X81760000Y-64625776D01*
X81761551Y-64606065D01*
X81763480Y-64593886D01*
X81764720Y-64586057D01*
X81760559Y-64542038D01*
X81760000Y-64530181D01*
X81760000Y-64005500D01*
X81780002Y-63937379D01*
X81833658Y-63890886D01*
X81886000Y-63879500D01*
X82335500Y-63879500D01*
X82403621Y-63899502D01*
G37*
G04 #@! TD.AperFunction*
G04 #@! TA.AperFunction,Conductor*
G36*
X84208721Y-54188219D02*
G01*
X84262315Y-54220019D01*
X85282095Y-55239799D01*
X85316121Y-55302111D01*
X85319000Y-55328894D01*
X85319000Y-55917360D01*
X85298998Y-55985481D01*
X85259304Y-56024503D01*
X85185969Y-56069884D01*
X85180797Y-56075065D01*
X85178727Y-56077139D01*
X85176962Y-56078105D01*
X85175059Y-56079613D01*
X85174801Y-56079287D01*
X85116446Y-56111219D01*
X85045625Y-56106218D01*
X85000530Y-56077292D01*
X84997869Y-56074636D01*
X84986460Y-56065625D01*
X84850937Y-55982088D01*
X84837759Y-55975944D01*
X84686234Y-55925685D01*
X84672868Y-55922819D01*
X84580230Y-55913328D01*
X84573815Y-55913000D01*
X84499615Y-55913000D01*
X84484376Y-55917475D01*
X84483171Y-55918865D01*
X84481500Y-55926548D01*
X84481500Y-59638885D01*
X84485975Y-59654124D01*
X84487365Y-59655329D01*
X84495048Y-59657000D01*
X84573766Y-59657000D01*
X84580282Y-59656663D01*
X84674132Y-59646925D01*
X84687528Y-59644032D01*
X84838953Y-59593512D01*
X84852115Y-59587347D01*
X84987492Y-59503574D01*
X84998894Y-59494536D01*
X85000567Y-59492861D01*
X85001993Y-59492081D01*
X85004627Y-59489993D01*
X85004984Y-59490444D01*
X85062849Y-59458781D01*
X85133669Y-59463784D01*
X85178754Y-59492701D01*
X85181421Y-59495363D01*
X85186997Y-59500929D01*
X85335080Y-59592209D01*
X85500191Y-59646974D01*
X85507027Y-59647674D01*
X85507030Y-59647675D01*
X85554370Y-59652525D01*
X85602928Y-59657500D01*
X86302072Y-59657500D01*
X86305318Y-59657163D01*
X86305322Y-59657163D01*
X86399235Y-59647419D01*
X86399239Y-59647418D01*
X86406093Y-59646707D01*
X86412629Y-59644526D01*
X86412631Y-59644526D01*
X86545395Y-59600232D01*
X86571107Y-59591654D01*
X86719031Y-59500116D01*
X86788431Y-59430595D01*
X86836758Y-59382184D01*
X86836762Y-59382179D01*
X86841929Y-59377003D01*
X86933209Y-59228920D01*
X86987974Y-59063809D01*
X86998500Y-58961072D01*
X86998500Y-58386928D01*
X86990997Y-58314611D01*
X86988419Y-58289765D01*
X86988418Y-58289761D01*
X86987707Y-58282907D01*
X86932654Y-58117893D01*
X86841116Y-57969969D01*
X86745213Y-57874234D01*
X86711134Y-57811952D01*
X86716137Y-57741132D01*
X86745058Y-57696043D01*
X86836758Y-57604183D01*
X86841929Y-57599003D01*
X86845770Y-57592772D01*
X86929369Y-57457150D01*
X86929370Y-57457148D01*
X86933209Y-57450920D01*
X86987974Y-57285809D01*
X86998500Y-57183072D01*
X86998500Y-56608928D01*
X86998163Y-56605678D01*
X86988419Y-56511765D01*
X86988418Y-56511761D01*
X86987707Y-56504907D01*
X86978226Y-56476487D01*
X86934972Y-56346841D01*
X86932654Y-56339893D01*
X86841116Y-56191969D01*
X86760225Y-56111219D01*
X86723184Y-56074242D01*
X86723179Y-56074238D01*
X86718003Y-56069071D01*
X86645884Y-56024616D01*
X86598391Y-55971844D01*
X86586000Y-55917356D01*
X86586000Y-55114460D01*
X86606002Y-55046339D01*
X86659658Y-54999846D01*
X86712000Y-54988460D01*
X87116585Y-54988460D01*
X87131824Y-54983985D01*
X87133029Y-54982595D01*
X87134700Y-54974912D01*
X87134700Y-54614581D01*
X87154702Y-54546460D01*
X87208358Y-54499967D01*
X87260700Y-54488581D01*
X87288100Y-54488581D01*
X87356221Y-54508583D01*
X87402714Y-54562239D01*
X87414100Y-54614581D01*
X87414100Y-54970344D01*
X87418575Y-54985583D01*
X87419965Y-54986788D01*
X87427648Y-54988459D01*
X88017569Y-54988459D01*
X88024390Y-54988089D01*
X88075252Y-54982565D01*
X88090504Y-54978939D01*
X88210954Y-54933784D01*
X88226549Y-54925246D01*
X88328624Y-54848745D01*
X88341185Y-54836184D01*
X88417686Y-54734109D01*
X88426224Y-54718514D01*
X88454212Y-54643858D01*
X88496854Y-54587093D01*
X88563416Y-54562394D01*
X88632765Y-54577602D01*
X88661289Y-54598993D01*
X88790923Y-54728627D01*
X88824949Y-54790939D01*
X88821421Y-54857389D01*
X88780026Y-54982191D01*
X88779326Y-54989027D01*
X88779325Y-54989030D01*
X88774049Y-55040526D01*
X88769500Y-55084928D01*
X88769500Y-55659072D01*
X88780293Y-55763093D01*
X88835346Y-55928107D01*
X88926884Y-56076031D01*
X88932066Y-56081204D01*
X89044816Y-56193758D01*
X89044821Y-56193762D01*
X89049997Y-56198929D01*
X89198080Y-56290209D01*
X89363191Y-56344974D01*
X89370027Y-56345674D01*
X89370030Y-56345675D01*
X89421526Y-56350951D01*
X89465928Y-56355500D01*
X90065072Y-56355500D01*
X90068318Y-56355163D01*
X90068322Y-56355163D01*
X90162235Y-56345419D01*
X90162239Y-56345418D01*
X90169093Y-56344707D01*
X90175629Y-56342526D01*
X90175631Y-56342526D01*
X90308395Y-56298232D01*
X90334107Y-56289654D01*
X90482031Y-56198116D01*
X90493331Y-56186796D01*
X90588747Y-56091214D01*
X90651030Y-56057135D01*
X90721850Y-56062138D01*
X90766937Y-56091059D01*
X90869812Y-56193754D01*
X90869817Y-56193758D01*
X90874997Y-56198929D01*
X91023080Y-56290209D01*
X91188191Y-56344974D01*
X91195027Y-56345674D01*
X91195030Y-56345675D01*
X91246526Y-56350951D01*
X91290928Y-56355500D01*
X91890072Y-56355500D01*
X91931897Y-56351160D01*
X92001716Y-56364024D01*
X92053499Y-56412595D01*
X92070900Y-56476487D01*
X92070900Y-61701367D01*
X92050898Y-61769488D01*
X91997242Y-61815981D01*
X91926968Y-61826085D01*
X91904038Y-61819250D01*
X91903707Y-61820248D01*
X91745234Y-61767685D01*
X91731868Y-61764819D01*
X91639230Y-61755328D01*
X91632815Y-61755000D01*
X91558615Y-61755000D01*
X91543376Y-61759475D01*
X91542171Y-61760865D01*
X91540500Y-61768548D01*
X91540500Y-63702885D01*
X91544975Y-63718124D01*
X91546365Y-63719329D01*
X91554048Y-63721000D01*
X91632766Y-63721000D01*
X91639282Y-63720663D01*
X91733132Y-63710925D01*
X91746528Y-63708032D01*
X91904893Y-63655197D01*
X91905923Y-63658285D01*
X91961909Y-63649813D01*
X92026706Y-63678828D01*
X92065530Y-63738269D01*
X92070900Y-63774660D01*
X92070900Y-63952304D01*
X92050898Y-64020425D01*
X91997242Y-64066918D01*
X91926968Y-64077022D01*
X91905233Y-64071897D01*
X91904285Y-64071582D01*
X91842309Y-64051026D01*
X91835473Y-64050326D01*
X91835470Y-64050325D01*
X91783974Y-64045049D01*
X91739572Y-64040500D01*
X91140428Y-64040500D01*
X91137182Y-64040837D01*
X91137178Y-64040837D01*
X91043265Y-64050581D01*
X91043261Y-64050582D01*
X91036407Y-64051293D01*
X91029871Y-64053474D01*
X91029869Y-64053474D01*
X90897105Y-64097768D01*
X90871393Y-64106346D01*
X90723469Y-64197884D01*
X90718296Y-64203066D01*
X90616753Y-64304786D01*
X90554470Y-64338865D01*
X90483650Y-64333862D01*
X90438563Y-64304941D01*
X90335688Y-64202246D01*
X90335683Y-64202242D01*
X90330503Y-64197071D01*
X90324272Y-64193230D01*
X90188650Y-64109631D01*
X90188648Y-64109630D01*
X90182420Y-64105791D01*
X90017309Y-64051026D01*
X90010473Y-64050326D01*
X90010470Y-64050325D01*
X89958974Y-64045049D01*
X89914572Y-64040500D01*
X89813000Y-64040500D01*
X89744879Y-64020498D01*
X89698386Y-63966842D01*
X89687000Y-63914500D01*
X89687000Y-63847500D01*
X89707002Y-63779379D01*
X89760658Y-63732886D01*
X89813000Y-63721500D01*
X89911072Y-63721500D01*
X89914318Y-63721163D01*
X89914322Y-63721163D01*
X90008235Y-63711419D01*
X90008239Y-63711418D01*
X90015093Y-63710707D01*
X90021629Y-63708526D01*
X90021631Y-63708526D01*
X90154395Y-63664232D01*
X90180107Y-63655654D01*
X90328031Y-63564116D01*
X90335274Y-63556861D01*
X90337038Y-63555895D01*
X90338941Y-63554387D01*
X90339199Y-63554713D01*
X90397554Y-63522781D01*
X90468375Y-63527782D01*
X90513470Y-63556708D01*
X90516131Y-63559364D01*
X90527540Y-63568375D01*
X90663063Y-63651912D01*
X90676241Y-63658056D01*
X90827766Y-63708315D01*
X90841132Y-63711181D01*
X90933770Y-63720672D01*
X90940185Y-63721000D01*
X91014385Y-63721000D01*
X91029624Y-63716525D01*
X91030829Y-63715135D01*
X91032500Y-63707452D01*
X91032500Y-61773115D01*
X91028025Y-61757876D01*
X91026635Y-61756671D01*
X91018952Y-61755000D01*
X90940234Y-61755000D01*
X90933718Y-61755337D01*
X90839868Y-61765075D01*
X90826472Y-61767968D01*
X90675047Y-61818488D01*
X90661885Y-61824653D01*
X90526508Y-61908426D01*
X90515106Y-61917464D01*
X90513433Y-61919139D01*
X90512007Y-61919919D01*
X90509373Y-61922007D01*
X90509016Y-61921556D01*
X90451151Y-61953219D01*
X90380331Y-61948216D01*
X90335246Y-61919299D01*
X90332185Y-61916244D01*
X90327003Y-61911071D01*
X90292495Y-61889800D01*
X90185150Y-61823631D01*
X90185148Y-61823630D01*
X90178920Y-61819791D01*
X90013809Y-61765026D01*
X90006973Y-61764326D01*
X90006970Y-61764325D01*
X89955474Y-61759049D01*
X89911072Y-61754500D01*
X89211928Y-61754500D01*
X89208682Y-61754837D01*
X89208678Y-61754837D01*
X89114765Y-61764581D01*
X89114761Y-61764582D01*
X89107907Y-61765293D01*
X89101371Y-61767474D01*
X89101369Y-61767474D01*
X88968605Y-61811768D01*
X88942893Y-61820346D01*
X88794969Y-61911884D01*
X88789796Y-61917066D01*
X88677242Y-62029816D01*
X88677238Y-62029821D01*
X88672071Y-62034997D01*
X88668231Y-62041227D01*
X88668230Y-62041228D01*
X88585364Y-62175662D01*
X88580791Y-62183080D01*
X88526026Y-62348191D01*
X88515500Y-62450928D01*
X88515500Y-62486500D01*
X88495498Y-62554621D01*
X88441842Y-62601114D01*
X88389500Y-62612500D01*
X87636805Y-62612500D01*
X87568684Y-62592498D01*
X87531013Y-62554940D01*
X87442822Y-62418617D01*
X87442820Y-62418614D01*
X87440014Y-62414277D01*
X87289670Y-62249051D01*
X87285619Y-62245852D01*
X87285615Y-62245848D01*
X87118414Y-62113800D01*
X87118410Y-62113798D01*
X87114359Y-62110598D01*
X86918789Y-62002638D01*
X86913920Y-62000914D01*
X86913916Y-62000912D01*
X86713087Y-61929795D01*
X86713083Y-61929794D01*
X86708212Y-61928069D01*
X86703119Y-61927162D01*
X86703116Y-61927161D01*
X86493373Y-61889800D01*
X86493367Y-61889799D01*
X86488284Y-61888894D01*
X86414452Y-61887992D01*
X86270081Y-61886228D01*
X86270079Y-61886228D01*
X86264911Y-61886165D01*
X86044091Y-61919955D01*
X85831756Y-61989357D01*
X85801443Y-62005137D01*
X85744083Y-62034997D01*
X85633607Y-62092507D01*
X85629474Y-62095610D01*
X85629471Y-62095612D01*
X85503721Y-62190028D01*
X85454965Y-62226635D01*
X85398537Y-62285684D01*
X85374283Y-62311064D01*
X85312759Y-62346494D01*
X85241846Y-62343037D01*
X85184060Y-62301791D01*
X85165207Y-62268243D01*
X85123767Y-62157703D01*
X85120615Y-62149295D01*
X85033261Y-62032739D01*
X84916705Y-61945385D01*
X84780316Y-61894255D01*
X84718134Y-61887500D01*
X82921866Y-61887500D01*
X82859684Y-61894255D01*
X82723295Y-61945385D01*
X82606739Y-62032739D01*
X82519385Y-62149295D01*
X82468255Y-62285684D01*
X82461500Y-62347866D01*
X82461500Y-62486500D01*
X82441498Y-62554621D01*
X82387842Y-62601114D01*
X82335500Y-62612500D01*
X81790500Y-62612500D01*
X81722379Y-62592498D01*
X81675886Y-62538842D01*
X81664500Y-62486500D01*
X81664500Y-62450928D01*
X81664163Y-62447678D01*
X81654419Y-62353765D01*
X81654418Y-62353761D01*
X81653707Y-62346907D01*
X81635903Y-62293540D01*
X81600972Y-62188841D01*
X81598654Y-62181893D01*
X81507116Y-62033969D01*
X81462426Y-61989357D01*
X81389184Y-61916242D01*
X81389179Y-61916238D01*
X81384003Y-61911071D01*
X81349495Y-61889800D01*
X81242150Y-61823631D01*
X81242148Y-61823630D01*
X81235920Y-61819791D01*
X81070809Y-61765026D01*
X81063973Y-61764326D01*
X81063970Y-61764325D01*
X81012474Y-61759049D01*
X80968072Y-61754500D01*
X80583095Y-61754500D01*
X80514974Y-61734498D01*
X80494000Y-61717595D01*
X78243905Y-59467500D01*
X78209879Y-59405188D01*
X78207000Y-59378405D01*
X78207000Y-57563094D01*
X78227002Y-57494973D01*
X78280658Y-57448480D01*
X78350932Y-57438376D01*
X78415512Y-57467870D01*
X78422095Y-57473999D01*
X79015283Y-58067187D01*
X79049309Y-58129499D01*
X79051498Y-58143112D01*
X79066326Y-58284191D01*
X79068863Y-58308333D01*
X79127878Y-58489961D01*
X79223365Y-58655349D01*
X79351152Y-58797271D01*
X79505653Y-58909523D01*
X79511681Y-58912207D01*
X79511683Y-58912208D01*
X79628644Y-58964282D01*
X79680117Y-58987199D01*
X79773518Y-59007052D01*
X79860461Y-59025533D01*
X79860466Y-59025533D01*
X79866918Y-59026905D01*
X80057892Y-59026905D01*
X80064344Y-59025533D01*
X80064349Y-59025533D01*
X80151292Y-59007052D01*
X80244693Y-58987199D01*
X80296166Y-58964282D01*
X80310801Y-58957766D01*
X83182000Y-58957766D01*
X83182337Y-58964282D01*
X83192075Y-59058132D01*
X83194968Y-59071528D01*
X83245488Y-59222953D01*
X83251653Y-59236115D01*
X83335426Y-59371492D01*
X83344460Y-59382890D01*
X83457129Y-59495363D01*
X83468540Y-59504375D01*
X83604063Y-59587912D01*
X83617241Y-59594056D01*
X83768766Y-59644315D01*
X83782132Y-59647181D01*
X83874770Y-59656672D01*
X83881185Y-59657000D01*
X83955385Y-59657000D01*
X83970624Y-59652525D01*
X83971829Y-59651135D01*
X83973500Y-59643452D01*
X83973500Y-58946115D01*
X83969025Y-58930876D01*
X83967635Y-58929671D01*
X83959952Y-58928000D01*
X83200115Y-58928000D01*
X83184876Y-58932475D01*
X83183671Y-58933865D01*
X83182000Y-58941548D01*
X83182000Y-58957766D01*
X80310801Y-58957766D01*
X80413127Y-58912208D01*
X80413129Y-58912207D01*
X80419157Y-58909523D01*
X80573658Y-58797271D01*
X80701445Y-58655349D01*
X80796932Y-58489961D01*
X80825550Y-58401885D01*
X83182000Y-58401885D01*
X83186475Y-58417124D01*
X83187865Y-58418329D01*
X83195548Y-58420000D01*
X83955385Y-58420000D01*
X83970624Y-58415525D01*
X83971829Y-58414135D01*
X83973500Y-58406452D01*
X83973500Y-57168115D01*
X83969025Y-57152876D01*
X83967635Y-57151671D01*
X83959952Y-57150000D01*
X83200115Y-57150000D01*
X83184876Y-57154475D01*
X83183671Y-57155865D01*
X83182000Y-57163548D01*
X83182000Y-57179766D01*
X83182337Y-57186282D01*
X83192075Y-57280132D01*
X83194968Y-57293528D01*
X83245488Y-57444953D01*
X83251653Y-57458115D01*
X83335426Y-57593492D01*
X83344460Y-57604890D01*
X83435494Y-57695766D01*
X83469573Y-57758049D01*
X83464570Y-57828869D01*
X83435649Y-57873957D01*
X83343637Y-57966129D01*
X83334625Y-57977540D01*
X83251088Y-58113063D01*
X83244944Y-58126241D01*
X83194685Y-58277766D01*
X83191819Y-58291132D01*
X83182328Y-58383770D01*
X83182000Y-58390185D01*
X83182000Y-58401885D01*
X80825550Y-58401885D01*
X80855947Y-58308333D01*
X80858485Y-58284191D01*
X80875219Y-58124970D01*
X80875909Y-58118405D01*
X80860308Y-57969969D01*
X80856637Y-57935040D01*
X80856637Y-57935038D01*
X80855947Y-57928477D01*
X80796932Y-57746849D01*
X80701445Y-57581461D01*
X80583906Y-57450920D01*
X80578080Y-57444450D01*
X80578079Y-57444449D01*
X80573658Y-57439539D01*
X80419157Y-57327287D01*
X80413129Y-57324603D01*
X80413127Y-57324602D01*
X80250724Y-57252296D01*
X80250723Y-57252296D01*
X80244693Y-57249611D01*
X80151293Y-57229758D01*
X80064349Y-57211277D01*
X80064344Y-57211277D01*
X80057892Y-57209905D01*
X80002000Y-57209905D01*
X79933879Y-57189903D01*
X79912905Y-57173000D01*
X79363790Y-56623885D01*
X83182000Y-56623885D01*
X83186475Y-56639124D01*
X83187865Y-56640329D01*
X83195548Y-56642000D01*
X83955385Y-56642000D01*
X83970624Y-56637525D01*
X83971829Y-56636135D01*
X83973500Y-56628452D01*
X83973500Y-55931115D01*
X83969025Y-55915876D01*
X83967635Y-55914671D01*
X83959952Y-55913000D01*
X83881234Y-55913000D01*
X83874718Y-55913337D01*
X83780868Y-55923075D01*
X83767472Y-55925968D01*
X83616047Y-55976488D01*
X83602885Y-55982653D01*
X83467508Y-56066426D01*
X83456110Y-56075460D01*
X83343637Y-56188129D01*
X83334625Y-56199540D01*
X83251088Y-56335063D01*
X83244944Y-56348241D01*
X83194685Y-56499766D01*
X83191819Y-56513132D01*
X83182328Y-56605770D01*
X83182000Y-56612185D01*
X83182000Y-56623885D01*
X79363790Y-56623885D01*
X79056405Y-56316500D01*
X79022379Y-56254188D01*
X79019500Y-56227405D01*
X79019500Y-55465500D01*
X79039502Y-55397379D01*
X79093158Y-55350886D01*
X79145500Y-55339500D01*
X79698072Y-55339500D01*
X79701318Y-55339163D01*
X79701322Y-55339163D01*
X79795235Y-55329419D01*
X79795239Y-55329418D01*
X79802093Y-55328707D01*
X79808629Y-55326526D01*
X79808631Y-55326526D01*
X79960159Y-55275972D01*
X79967107Y-55273654D01*
X80115031Y-55182116D01*
X80182569Y-55114460D01*
X80232758Y-55064184D01*
X80232762Y-55064179D01*
X80237929Y-55059003D01*
X80243857Y-55049386D01*
X80245886Y-55047559D01*
X80246307Y-55047027D01*
X80246398Y-55047099D01*
X80296628Y-55001892D01*
X80351118Y-54989500D01*
X80947233Y-54989500D01*
X80958416Y-54990027D01*
X80965909Y-54991702D01*
X80973835Y-54991453D01*
X80973836Y-54991453D01*
X81033986Y-54989562D01*
X81037945Y-54989500D01*
X81065856Y-54989500D01*
X81069791Y-54989003D01*
X81069856Y-54988995D01*
X81081693Y-54988062D01*
X81113951Y-54987048D01*
X81117970Y-54986922D01*
X81125889Y-54986673D01*
X81145343Y-54981021D01*
X81164700Y-54977013D01*
X81176930Y-54975468D01*
X81176931Y-54975468D01*
X81184797Y-54974474D01*
X81192168Y-54971555D01*
X81192170Y-54971555D01*
X81225912Y-54958196D01*
X81237142Y-54954351D01*
X81271983Y-54944229D01*
X81271984Y-54944229D01*
X81279593Y-54942018D01*
X81286412Y-54937985D01*
X81286417Y-54937983D01*
X81297028Y-54931707D01*
X81314776Y-54923012D01*
X81333617Y-54915552D01*
X81369387Y-54889564D01*
X81379307Y-54883048D01*
X81410535Y-54864580D01*
X81410538Y-54864578D01*
X81417362Y-54860542D01*
X81431683Y-54846221D01*
X81446717Y-54833380D01*
X81456694Y-54826131D01*
X81463107Y-54821472D01*
X81491298Y-54787395D01*
X81499288Y-54778616D01*
X81566124Y-54711780D01*
X81628436Y-54677754D01*
X81699251Y-54682819D01*
X81756087Y-54725366D01*
X81758064Y-54728437D01*
X81838815Y-54836184D01*
X81851376Y-54848745D01*
X81953451Y-54925246D01*
X81969046Y-54933784D01*
X82089494Y-54978938D01*
X82104749Y-54982565D01*
X82155614Y-54988091D01*
X82162428Y-54988460D01*
X82747785Y-54988460D01*
X82763024Y-54983985D01*
X82764229Y-54982595D01*
X82765900Y-54974912D01*
X82765900Y-54614581D01*
X82785902Y-54546460D01*
X82839558Y-54499967D01*
X82891900Y-54488581D01*
X82919300Y-54488581D01*
X82987421Y-54508583D01*
X83033914Y-54562239D01*
X83045300Y-54614581D01*
X83045300Y-54970344D01*
X83049775Y-54985583D01*
X83051165Y-54986788D01*
X83058848Y-54988459D01*
X83648769Y-54988459D01*
X83655590Y-54988089D01*
X83706452Y-54982565D01*
X83721704Y-54978939D01*
X83842154Y-54933784D01*
X83857749Y-54925246D01*
X83959824Y-54848745D01*
X83972385Y-54836184D01*
X84048886Y-54734109D01*
X84057424Y-54718514D01*
X84102578Y-54598066D01*
X84106205Y-54582811D01*
X84111731Y-54531946D01*
X84112100Y-54525132D01*
X84112100Y-54498575D01*
X84107625Y-54483336D01*
X84106235Y-54482131D01*
X84089091Y-54478402D01*
X84026778Y-54444378D01*
X83992752Y-54382066D01*
X83997816Y-54311250D01*
X84015044Y-54279719D01*
X84043230Y-54242110D01*
X84100089Y-54199597D01*
X84108559Y-54196780D01*
X84137724Y-54188217D01*
X84208721Y-54188219D01*
G37*
G04 #@! TD.AperFunction*
G04 #@! TA.AperFunction,Conductor*
G36*
X81476121Y-42946002D02*
G01*
X81522614Y-42999658D01*
X81534000Y-43052000D01*
X81534000Y-47038517D01*
X81538064Y-47052359D01*
X81551478Y-47054393D01*
X81558184Y-47053534D01*
X81568262Y-47051392D01*
X81772255Y-46990191D01*
X81781842Y-46986433D01*
X81973095Y-46892739D01*
X81981945Y-46887464D01*
X82145453Y-46770836D01*
X82212527Y-46747562D01*
X82281535Y-46764246D01*
X82307716Y-46784320D01*
X83669368Y-48145972D01*
X83703394Y-48208284D01*
X83698329Y-48279099D01*
X83655782Y-48335935D01*
X83620148Y-48354591D01*
X83608893Y-48358346D01*
X83460969Y-48449884D01*
X83455796Y-48455066D01*
X83343242Y-48567816D01*
X83343238Y-48567821D01*
X83338071Y-48572997D01*
X83246791Y-48721080D01*
X83192026Y-48886191D01*
X83181500Y-48988928D01*
X83181500Y-49563072D01*
X83181837Y-49566318D01*
X83181837Y-49566322D01*
X83184911Y-49595944D01*
X83192293Y-49667093D01*
X83247346Y-49832107D01*
X83338884Y-49980031D01*
X83344066Y-49985204D01*
X83456816Y-50097758D01*
X83456821Y-50097762D01*
X83461997Y-50102929D01*
X83610080Y-50194209D01*
X83775191Y-50248974D01*
X83782027Y-50249674D01*
X83782030Y-50249675D01*
X83833526Y-50254951D01*
X83877928Y-50259500D01*
X84477072Y-50259500D01*
X84480318Y-50259163D01*
X84480322Y-50259163D01*
X84574235Y-50249419D01*
X84574239Y-50249418D01*
X84581093Y-50248707D01*
X84587629Y-50246526D01*
X84587631Y-50246526D01*
X84720395Y-50202232D01*
X84746107Y-50193654D01*
X84894031Y-50102116D01*
X84926127Y-50069964D01*
X84988409Y-50035885D01*
X85059230Y-50040888D01*
X85116102Y-50083385D01*
X85140971Y-50149884D01*
X85141300Y-50158982D01*
X85141300Y-53003005D01*
X85121298Y-53071126D01*
X85067642Y-53117619D01*
X84997368Y-53127723D01*
X84932788Y-53098229D01*
X84926205Y-53092100D01*
X84602355Y-52768250D01*
X84568329Y-52705938D01*
X84566009Y-52691014D01*
X84563459Y-52664040D01*
X84562900Y-52652181D01*
X84562900Y-52410993D01*
X84565132Y-52387384D01*
X84565190Y-52387081D01*
X84565190Y-52387077D01*
X84566675Y-52379294D01*
X84563149Y-52323249D01*
X84562900Y-52315338D01*
X84562900Y-52031163D01*
X84563427Y-52019979D01*
X84565101Y-52012491D01*
X84562962Y-51944432D01*
X84562900Y-51940475D01*
X84562900Y-51912544D01*
X84562394Y-51908538D01*
X84561461Y-51896692D01*
X84560322Y-51860437D01*
X84560073Y-51852510D01*
X84554422Y-51833058D01*
X84550414Y-51813706D01*
X84548868Y-51801468D01*
X84548867Y-51801466D01*
X84547874Y-51793603D01*
X84531594Y-51752486D01*
X84527759Y-51741285D01*
X84515418Y-51698806D01*
X84511385Y-51691987D01*
X84511383Y-51691982D01*
X84505107Y-51681371D01*
X84496410Y-51663621D01*
X84488952Y-51644783D01*
X84481018Y-51633862D01*
X84462972Y-51609025D01*
X84456453Y-51599101D01*
X84437978Y-51567860D01*
X84437974Y-51567855D01*
X84433942Y-51561037D01*
X84419618Y-51546713D01*
X84406776Y-51531678D01*
X84394872Y-51515293D01*
X84360806Y-51487111D01*
X84352027Y-51479122D01*
X79967491Y-47094586D01*
X79933465Y-47032274D01*
X79938530Y-46961459D01*
X79955760Y-46929926D01*
X79957082Y-46928163D01*
X80040615Y-46816705D01*
X80084798Y-46698848D01*
X80127440Y-46642084D01*
X80194001Y-46617384D01*
X80263350Y-46632592D01*
X80298017Y-46660580D01*
X80323218Y-46689673D01*
X80330580Y-46696883D01*
X80494434Y-46832916D01*
X80502881Y-46838831D01*
X80686756Y-46946279D01*
X80696042Y-46950729D01*
X80895001Y-47026703D01*
X80904899Y-47029579D01*
X81008250Y-47050606D01*
X81022299Y-47049410D01*
X81026000Y-47039065D01*
X81026000Y-43052000D01*
X81046002Y-42983879D01*
X81099658Y-42937386D01*
X81152000Y-42926000D01*
X81408000Y-42926000D01*
X81476121Y-42946002D01*
G37*
G04 #@! TD.AperFunction*
M02*
