M48
; DRILL file {KiCad 6.0.9-8da3e8f707~116~ubuntu20.04.1} date sre 08 mar 2023 13:02:03
; FORMAT={-:-/ absolute / metric / decimal}
; #@! TF.CreationDate,2023-03-08T13:02:03+01:00
; #@! TF.GenerationSoftware,Kicad,Pcbnew,6.0.9-8da3e8f707~116~ubuntu20.04.1
; #@! TF.FileFunction,Plated,1,2,PTH
FMAT,2
METRIC
; #@! TA.AperFunction,Plated,PTH,ViaDrill
T1C0.400
; #@! TA.AperFunction,Plated,PTH,ComponentDrill
T2C1.000
%
G90
G05
T1
X77.216Y-62.738
X77.724Y-75.692
X79.962Y-58.118
X81.28Y-40.64
X82.296Y-70.358
X82.55Y-55.88
X84.84Y-73.452
X85.978Y-67.792
X86.36Y-40.64
X86.507Y-51.582
X87.07Y-71.806
X87.102Y-49.059
X87.63Y-70.358
X88.9Y-67.818
X91.186Y-61.214
T2
X78.74Y-43.18
X78.74Y-45.72
X80.01Y-77.47
X80.01Y-80.01
X80.01Y-82.55
X81.28Y-43.18
X81.28Y-45.72
X83.82Y-43.18
X83.82Y-45.72
X83.82Y-63.246
X85.09Y-77.455
X85.09Y-79.995
X85.09Y-82.535
X86.36Y-43.18
X86.36Y-45.72
X86.36Y-63.246
X88.9Y-43.18
X88.9Y-45.72
X90.17Y-77.455
X90.17Y-79.995
X90.17Y-82.535
X91.44Y-43.18
X91.44Y-45.72
T0
M30
