%TF.GenerationSoftware,KiCad,Pcbnew,6.0.9-8da3e8f707~116~ubuntu20.04.1*%
%TF.CreationDate,2023-03-08T13:02:05+01:00*%
%TF.ProjectId,dac_adc_pmod,6461635f-6164-4635-9f70-6d6f642e6b69,rev?*%
%TF.SameCoordinates,Original*%
%TF.FileFunction,Drillmap*%
%TF.FilePolarity,Positive*%
%FSLAX45Y45*%
G04 Gerber Fmt 4.5, Leading zero omitted, Abs format (unit mm)*
G04 Created by KiCad (PCBNEW 6.0.9-8da3e8f707~116~ubuntu20.04.1) date 2023-03-08 13:02:05*
%MOMM*%
%LPD*%
G01*
G04 APERTURE LIST*
%ADD10C,0.100000*%
%ADD11C,0.200000*%
G04 APERTURE END LIST*
D10*
X7543800Y-3937000D02*
G75*
G03*
X7493000Y-3987800I0J-50800D01*
G01*
X7493000Y-3987800D02*
X7493000Y-8712200D01*
X9474200Y-8763000D02*
X7543800Y-8763000D01*
X9525000Y-8712200D02*
X9525000Y-3987800D01*
X7493000Y-8712200D02*
G75*
G03*
X7543800Y-8763000I50800J0D01*
G01*
X9525000Y-3987800D02*
G75*
G03*
X9474200Y-3937000I-50800J0D01*
G01*
X7543800Y-3937000D02*
X9474200Y-3937000D01*
X9474200Y-8763000D02*
G75*
G03*
X9525000Y-8712200I0J50800D01*
G01*
D11*
X7745619Y-9078476D02*
X7745619Y-8878476D01*
X7793238Y-8878476D01*
X7821809Y-8888000D01*
X7840857Y-8907048D01*
X7850381Y-8926095D01*
X7859905Y-8964190D01*
X7859905Y-8992762D01*
X7850381Y-9030857D01*
X7840857Y-9049905D01*
X7821809Y-9068952D01*
X7793238Y-9078476D01*
X7745619Y-9078476D01*
X7945619Y-9078476D02*
X7945619Y-8945143D01*
X7945619Y-8983238D02*
X7955143Y-8964190D01*
X7964667Y-8954667D01*
X7983714Y-8945143D01*
X8002762Y-8945143D01*
X8069428Y-9078476D02*
X8069428Y-8945143D01*
X8069428Y-8878476D02*
X8059905Y-8888000D01*
X8069428Y-8897524D01*
X8078952Y-8888000D01*
X8069428Y-8878476D01*
X8069428Y-8897524D01*
X8193238Y-9078476D02*
X8174190Y-9068952D01*
X8164667Y-9049905D01*
X8164667Y-8878476D01*
X8298000Y-9078476D02*
X8278952Y-9068952D01*
X8269428Y-9049905D01*
X8269428Y-8878476D01*
X8526571Y-9078476D02*
X8526571Y-8878476D01*
X8593238Y-9021333D01*
X8659905Y-8878476D01*
X8659905Y-9078476D01*
X8840857Y-9078476D02*
X8840857Y-8973714D01*
X8831333Y-8954667D01*
X8812286Y-8945143D01*
X8774190Y-8945143D01*
X8755143Y-8954667D01*
X8840857Y-9068952D02*
X8821810Y-9078476D01*
X8774190Y-9078476D01*
X8755143Y-9068952D01*
X8745619Y-9049905D01*
X8745619Y-9030857D01*
X8755143Y-9011810D01*
X8774190Y-9002286D01*
X8821810Y-9002286D01*
X8840857Y-8992762D01*
X8936095Y-8945143D02*
X8936095Y-9145143D01*
X8936095Y-8954667D02*
X8955143Y-8945143D01*
X8993238Y-8945143D01*
X9012286Y-8954667D01*
X9021810Y-8964190D01*
X9031333Y-8983238D01*
X9031333Y-9040381D01*
X9021810Y-9059429D01*
X9012286Y-9068952D01*
X8993238Y-9078476D01*
X8955143Y-9078476D01*
X8936095Y-9068952D01*
X9117048Y-9059429D02*
X9126571Y-9068952D01*
X9117048Y-9078476D01*
X9107524Y-9068952D01*
X9117048Y-9059429D01*
X9117048Y-9078476D01*
X9117048Y-8954667D02*
X9126571Y-8964190D01*
X9117048Y-8973714D01*
X9107524Y-8964190D01*
X9117048Y-8954667D01*
X9117048Y-8973714D01*
M02*
